<mxfile host="app.diagrams.net" modified="2024-05-16T08:06:55.734Z" agent="Mozilla/5.0 (Windows NT 10.0; Win64; x64) AppleWebKit/537.36 (KHTML, like Gecko) Chrome/124.0.0.0 Safari/537.36" etag="XH6u9JQoyucliP846dWs" version="24.4.0" type="device">
  <diagram id="C5RBs43oDa-KdzZeNtuy" name="Page-1">
    <mxGraphModel dx="2260" dy="1788" grid="1" gridSize="10" guides="1" tooltips="1" connect="1" arrows="1" fold="1" page="1" pageScale="1" pageWidth="827" pageHeight="1169" math="0" shadow="0">
      <root>
        <mxCell id="WIyWlLk6GJQsqaUBKTNV-0" />
        <mxCell id="WIyWlLk6GJQsqaUBKTNV-1" parent="WIyWlLk6GJQsqaUBKTNV-0" />
        <mxCell id="WIyWlLk6GJQsqaUBKTNV-2" value="" style="rounded=0;html=1;jettySize=auto;orthogonalLoop=1;fontSize=11;endArrow=block;endFill=0;endSize=8;strokeWidth=1;shadow=0;labelBackgroundColor=none;edgeStyle=orthogonalEdgeStyle;" parent="WIyWlLk6GJQsqaUBKTNV-1" source="WIyWlLk6GJQsqaUBKTNV-3" target="WIyWlLk6GJQsqaUBKTNV-6" edge="1">
          <mxGeometry relative="1" as="geometry" />
        </mxCell>
        <mxCell id="WIyWlLk6GJQsqaUBKTNV-3" value="Lamp doesn&#39;t work" style="rounded=1;whiteSpace=wrap;html=1;fontSize=12;glass=0;strokeWidth=1;shadow=0;" parent="WIyWlLk6GJQsqaUBKTNV-1" vertex="1">
          <mxGeometry x="160" y="80" width="120" height="40" as="geometry" />
        </mxCell>
        <mxCell id="WIyWlLk6GJQsqaUBKTNV-4" value="Yes" style="rounded=0;html=1;jettySize=auto;orthogonalLoop=1;fontSize=11;endArrow=block;endFill=0;endSize=8;strokeWidth=1;shadow=0;labelBackgroundColor=none;edgeStyle=orthogonalEdgeStyle;" parent="WIyWlLk6GJQsqaUBKTNV-1" source="WIyWlLk6GJQsqaUBKTNV-6" target="WIyWlLk6GJQsqaUBKTNV-10" edge="1">
          <mxGeometry y="20" relative="1" as="geometry">
            <mxPoint as="offset" />
          </mxGeometry>
        </mxCell>
        <mxCell id="WIyWlLk6GJQsqaUBKTNV-5" value="No" style="edgeStyle=orthogonalEdgeStyle;rounded=0;html=1;jettySize=auto;orthogonalLoop=1;fontSize=11;endArrow=block;endFill=0;endSize=8;strokeWidth=1;shadow=0;labelBackgroundColor=none;" parent="WIyWlLk6GJQsqaUBKTNV-1" source="WIyWlLk6GJQsqaUBKTNV-6" target="WIyWlLk6GJQsqaUBKTNV-7" edge="1">
          <mxGeometry y="10" relative="1" as="geometry">
            <mxPoint as="offset" />
          </mxGeometry>
        </mxCell>
        <mxCell id="WIyWlLk6GJQsqaUBKTNV-6" value="Lamp&lt;br&gt;plugged in?" style="rhombus;whiteSpace=wrap;html=1;shadow=0;fontFamily=Helvetica;fontSize=12;align=center;strokeWidth=1;spacing=6;spacingTop=-4;" parent="WIyWlLk6GJQsqaUBKTNV-1" vertex="1">
          <mxGeometry x="170" y="170" width="100" height="80" as="geometry" />
        </mxCell>
        <mxCell id="WIyWlLk6GJQsqaUBKTNV-7" value="Plug in lamp" style="rounded=1;whiteSpace=wrap;html=1;fontSize=12;glass=0;strokeWidth=1;shadow=0;" parent="WIyWlLk6GJQsqaUBKTNV-1" vertex="1">
          <mxGeometry x="320" y="190" width="120" height="40" as="geometry" />
        </mxCell>
        <mxCell id="WIyWlLk6GJQsqaUBKTNV-8" value="No" style="rounded=0;html=1;jettySize=auto;orthogonalLoop=1;fontSize=11;endArrow=block;endFill=0;endSize=8;strokeWidth=1;shadow=0;labelBackgroundColor=none;edgeStyle=orthogonalEdgeStyle;" parent="WIyWlLk6GJQsqaUBKTNV-1" source="WIyWlLk6GJQsqaUBKTNV-10" target="WIyWlLk6GJQsqaUBKTNV-11" edge="1">
          <mxGeometry x="0.3333" y="20" relative="1" as="geometry">
            <mxPoint as="offset" />
          </mxGeometry>
        </mxCell>
        <mxCell id="WIyWlLk6GJQsqaUBKTNV-9" value="Yes" style="edgeStyle=orthogonalEdgeStyle;rounded=0;html=1;jettySize=auto;orthogonalLoop=1;fontSize=11;endArrow=block;endFill=0;endSize=8;strokeWidth=1;shadow=0;labelBackgroundColor=none;" parent="WIyWlLk6GJQsqaUBKTNV-1" source="WIyWlLk6GJQsqaUBKTNV-10" target="WIyWlLk6GJQsqaUBKTNV-12" edge="1">
          <mxGeometry y="10" relative="1" as="geometry">
            <mxPoint as="offset" />
          </mxGeometry>
        </mxCell>
        <mxCell id="WIyWlLk6GJQsqaUBKTNV-10" value="Bulb&lt;br&gt;burned out?" style="rhombus;whiteSpace=wrap;html=1;shadow=0;fontFamily=Helvetica;fontSize=12;align=center;strokeWidth=1;spacing=6;spacingTop=-4;" parent="WIyWlLk6GJQsqaUBKTNV-1" vertex="1">
          <mxGeometry x="170" y="290" width="100" height="80" as="geometry" />
        </mxCell>
        <mxCell id="WIyWlLk6GJQsqaUBKTNV-11" value="Repair Lamp" style="rounded=1;whiteSpace=wrap;html=1;fontSize=12;glass=0;strokeWidth=1;shadow=0;" parent="WIyWlLk6GJQsqaUBKTNV-1" vertex="1">
          <mxGeometry x="160" y="430" width="120" height="40" as="geometry" />
        </mxCell>
        <mxCell id="WIyWlLk6GJQsqaUBKTNV-12" value="Replace Bulb" style="rounded=1;whiteSpace=wrap;html=1;fontSize=12;glass=0;strokeWidth=1;shadow=0;" parent="WIyWlLk6GJQsqaUBKTNV-1" vertex="1">
          <mxGeometry x="320" y="310" width="120" height="40" as="geometry" />
        </mxCell>
        <UserObject label="" plantUmlData="{&#xa;  &quot;data&quot;: &quot;class User {\n  + UserID: int\n  + Username: string\n  + Password: string\n  + Email: string\n}\n\nclass Student extends User {\n  + StudentID: int\n  *-- registersFor {Registration} : many\n}\n\nclass University {\n  + UniversityID: int\n  *-- organizes {Event} : many\n}\n\nclass Admin extends User {\n  + AdminID: int\n  *-- manages {Event} : many\n}\n\nclass Event {\n  + EventID: int\n  + Title: string\n  + Description: string\n  + Date: date\n  + Time: time\n  + Location: string\n  *-- belongsTo {Category} : 1\n  *-- has {Registration} : many\n}\n\nclass Category {\n  + CategoryID: int\n  + Name: string\n  + Description: string\n  *-- has {Event} : many\n}\n\nclass Registration {\n  + RegistrationID: int\n  + RegistrationDate: date\n  + Status: string\n  *-- belongsTo {Student} : many\n  *-- belongsTo {Event} : 1\n}\n&quot;,&#xa;  &quot;format&quot;: &quot;svg&quot;&#xa;}" id="Ujrtwh-Fv8kipslyC4hR-0">
          <mxCell style="shape=image;noLabel=1;verticalAlign=top;aspect=fixed;imageAspect=0;image=data:image/svg+xml,PD94bWwgdmVyc2lvbj0iMS4wIiBlbmNvZGluZz0idXMtYXNjaWkiIHN0YW5kYWxvbmU9Im5vIj8+PHN2ZyB4bWxucz0iaHR0cDovL3d3dy53My5vcmcvMjAwMC9zdmciIHhtbG5zOnhsaW5rPSJodHRwOi8vd3d3LnczLm9yZy8xOTk5L3hsaW5rIiBjb250ZW50U3R5bGVUeXBlPSJ0ZXh0L2NzcyIgaGVpZ2h0PSIzNjRweCIgcHJlc2VydmVBc3BlY3RSYXRpbz0ibm9uZSIgc3R5bGU9IndpZHRoOjEwNDFweDtoZWlnaHQ6MzY0cHg7YmFja2dyb3VuZDojRkZGRkZGOyIgdmVyc2lvbj0iMS4xIiB2aWV3Qm94PSIwIDAgMTA0MSAzNjQiIHdpZHRoPSIxMDQxcHgiIHpvb21BbmRQYW49Im1hZ25pZnkiPjxkZWZzLz48Zz48IS0tY2xhc3MgVXNlci0tPjxnIGlkPSJlbGVtX1VzZXIiPjxyZWN0IGNvZGVMaW5lPSIxIiBmaWxsPSIjRjFGMUYxIiBoZWlnaHQ9IjEwNy45Mzc1IiBpZD0iVXNlciIgcng9IjIuNSIgcnk9IjIuNSIgc3R5bGU9InN0cm9rZTojMTgxODE4O3N0cm9rZS13aWR0aDowLjU7IiB3aWR0aD0iMTM5IiB4PSI3MjEuNSIgeT0iMzciLz48ZWxsaXBzZSBjeD0iNzcyLjc1IiBjeT0iNTMiIGZpbGw9IiNBREQxQjIiIHJ4PSIxMSIgcnk9IjExIiBzdHlsZT0ic3Ryb2tlOiMxODE4MTg7c3Ryb2tlLXdpZHRoOjEuMDsiLz48cGF0aCBkPSJNNzcwLjM3NSw1Ny4yNSBMNzcwLjM3NSw1OSBMNzc1LjMxMjUsNTkgTDc3NS4zMTI1LDU3LjI1IEw3NzAuMzc1LDU3LjI1IFogTTc3MS4wNjI1LDU3LjkzNzUgUTc3MS4wNjI1LDU3LjkzNzUgNzcxLjA2MjUsNDguNzUgTDc2OS4zMTI1LDQ4Ljc1IFE3NjkuMzEyNSw0OC43NSA3NjkuMzEyNSw1Ny45Mzc1IEw3NzEuMDYyNSw1Ny45Mzc1IFogTTc3NC42MjUsNTcuOTM3NSBMNzc2LjM3NSw1Ny45Mzc1IFE3NzYuMzc1LDU3LjkzNzUgNzc2LjM3NSw1NS4xMjUgTDc3NC42MjUsNTUuMTI1IFE3NzQuNjI1LDU1LjEyNSA3NzQuNjI1LDU3LjkzNzUgWiBNNzc0LjYyNSw0OC43NSBRNzc0LjYyNSw0OC43NSA3NzQuNjI1LDUxLjU2MjUgTDc3Ni4zNzUsNTEuNTYyNSBRNzc2LjM3NSw1MS41NjI1IDc3Ni4zNzUsNDguNzUgTDc3NC42MjUsNDguNzUgWiBNNzcwLjM3NSw0OS40Mzc1IEw3NzUuMzEyNSw0OS40Mzc1IEw3NzUuMzEyNSw0Ny42ODc1IEw3NzAuMzc1LDQ3LjY4NzUgTDc3MC4zNzUsNDkuNDM3NSBaICIgZmlsbD0iIzAwMDAwMCIvPjx0ZXh0IGZpbGw9IiMwMDAwMDAiIGZvbnQtZmFtaWx5PSJzYW5zLXNlcmlmIiBmb250LXNpemU9IjE0IiBsZW5ndGhBZGp1c3Q9InNwYWNpbmciIHRleHRMZW5ndGg9IjI4IiB4PSI3OTMuMjUiIHk9IjU4Ljc0MjIiPlVzZXI8L3RleHQ+PGxpbmUgc3R5bGU9InN0cm9rZTojMTgxODE4O3N0cm9rZS13aWR0aDowLjU7IiB4MT0iNzIyLjUiIHgyPSI4NTkuNSIgeTE9IjY5IiB5Mj0iNjkiLz48ZWxsaXBzZSBjeD0iNzMyLjUiIGN5PSI4MS45OTIyIiBmaWxsPSJub25lIiByeD0iMyIgcnk9IjMiIHN0eWxlPSJzdHJva2U6IzAzODA0ODtzdHJva2Utd2lkdGg6MS4wOyIvPjx0ZXh0IGZpbGw9IiMwMDAwMDAiIGZvbnQtZmFtaWx5PSJzYW5zLXNlcmlmIiBmb250LXNpemU9IjE0IiBsZW5ndGhBZGp1c3Q9InNwYWNpbmciIHRleHRMZW5ndGg9Ijc3IiB4PSI3NDEuNSIgeT0iODYuMjM0NCI+VXNlcklEOiBpbnQ8L3RleHQ+PGVsbGlwc2UgY3g9IjczMi41IiBjeT0iOTYuOTc2NiIgZmlsbD0ibm9uZSIgcng9IjMiIHJ5PSIzIiBzdHlsZT0ic3Ryb2tlOiMwMzgwNDg7c3Ryb2tlLXdpZHRoOjEuMDsiLz48dGV4dCBmaWxsPSIjMDAwMDAwIiBmb250LWZhbWlseT0ic2Fucy1zZXJpZiIgZm9udC1zaXplPSIxNCIgbGVuZ3RoQWRqdXN0PSJzcGFjaW5nIiB0ZXh0TGVuZ3RoPSIxMTMiIHg9Ijc0MS41IiB5PSIxMDEuMjE4OCI+VXNlcm5hbWU6IHN0cmluZzwvdGV4dD48ZWxsaXBzZSBjeD0iNzMyLjUiIGN5PSIxMTEuOTYwOSIgZmlsbD0ibm9uZSIgcng9IjMiIHJ5PSIzIiBzdHlsZT0ic3Ryb2tlOiMwMzgwNDg7c3Ryb2tlLXdpZHRoOjEuMDsiLz48dGV4dCBmaWxsPSIjMDAwMDAwIiBmb250LWZhbWlseT0ic2Fucy1zZXJpZiIgZm9udC1zaXplPSIxNCIgbGVuZ3RoQWRqdXN0PSJzcGFjaW5nIiB0ZXh0TGVuZ3RoPSIxMTMiIHg9Ijc0MS41IiB5PSIxMTYuMjAzMSI+UGFzc3dvcmQ6IHN0cmluZzwvdGV4dD48ZWxsaXBzZSBjeD0iNzMyLjUiIGN5PSIxMjYuOTQ1MyIgZmlsbD0ibm9uZSIgcng9IjMiIHJ5PSIzIiBzdHlsZT0ic3Ryb2tlOiMwMzgwNDg7c3Ryb2tlLXdpZHRoOjEuMDsiLz48dGV4dCBmaWxsPSIjMDAwMDAwIiBmb250LWZhbWlseT0ic2Fucy1zZXJpZiIgZm9udC1zaXplPSIxNCIgbGVuZ3RoQWRqdXN0PSJzcGFjaW5nIiB0ZXh0TGVuZ3RoPSI5MiIgeD0iNzQxLjUiIHk9IjEzMS4xODc1Ij5FbWFpbDogc3RyaW5nPC90ZXh0PjxsaW5lIHN0eWxlPSJzdHJva2U6IzE4MTgxODtzdHJva2Utd2lkdGg6MC41OyIgeDE9IjcyMi41IiB4Mj0iODU5LjUiIHkxPSIxMzYuOTM3NSIgeTI9IjEzNi45Mzc1Ii8+PC9nPjwhLS1jbGFzcyBTdHVkZW50LS0+PGcgaWQ9ImVsZW1fU3R1ZGVudCI+PHJlY3QgY29kZUxpbmU9IjgiIGZpbGw9IiNGMUYxRjEiIGhlaWdodD0iNzcuOTY4OCIgaWQ9IlN0dWRlbnQiIHJ4PSIyLjUiIHJ5PSIyLjUiIHN0eWxlPSJzdHJva2U6IzE4MTgxODtzdHJva2Utd2lkdGg6MC41OyIgd2lkdGg9IjI4OCIgeD0iNTA2IiB5PSIyNTcuNSIvPjxlbGxpcHNlIGN4PSI2MjEuMjUiIGN5PSIyNzMuNSIgZmlsbD0iI0FERDFCMiIgcng9IjExIiByeT0iMTEiIHN0eWxlPSJzdHJva2U6IzE4MTgxODtzdHJva2Utd2lkdGg6MS4wOyIvPjxwYXRoIGQ9Ik02MTguODc1LDI3Ny43NSBMNjE4Ljg3NSwyNzkuNSBMNjIzLjgxMjUsMjc5LjUgTDYyMy44MTI1LDI3Ny43NSBMNjE4Ljg3NSwyNzcuNzUgWiBNNjE5LjU2MjUsMjc4LjQzNzUgUTYxOS41NjI1LDI3OC40Mzc1IDYxOS41NjI1LDI2OS4yNSBMNjE3LjgxMjUsMjY5LjI1IFE2MTcuODEyNSwyNjkuMjUgNjE3LjgxMjUsMjc4LjQzNzUgTDYxOS41NjI1LDI3OC40Mzc1IFogTTYyMy4xMjUsMjc4LjQzNzUgTDYyNC44NzUsMjc4LjQzNzUgUTYyNC44NzUsMjc4LjQzNzUgNjI0Ljg3NSwyNzUuNjI1IEw2MjMuMTI1LDI3NS42MjUgUTYyMy4xMjUsMjc1LjYyNSA2MjMuMTI1LDI3OC40Mzc1IFogTTYyMy4xMjUsMjY5LjI1IFE2MjMuMTI1LDI2OS4yNSA2MjMuMTI1LDI3Mi4wNjI1IEw2MjQuODc1LDI3Mi4wNjI1IFE2MjQuODc1LDI3Mi4wNjI1IDYyNC44NzUsMjY5LjI1IEw2MjMuMTI1LDI2OS4yNSBaIE02MTguODc1LDI2OS45Mzc1IEw2MjMuODEyNSwyNjkuOTM3NSBMNjIzLjgxMjUsMjY4LjE4NzUgTDYxOC44NzUsMjY4LjE4NzUgTDYxOC44NzUsMjY5LjkzNzUgWiAiIGZpbGw9IiMwMDAwMDAiLz48dGV4dCBmaWxsPSIjMDAwMDAwIiBmb250LWZhbWlseT0ic2Fucy1zZXJpZiIgZm9udC1zaXplPSIxNCIgbGVuZ3RoQWRqdXN0PSJzcGFjaW5nIiB0ZXh0TGVuZ3RoPSI0OSIgeD0iNjQxLjc1IiB5PSIyNzkuMjQyMiI+U3R1ZGVudDwvdGV4dD48bGluZSBzdHlsZT0ic3Ryb2tlOiMxODE4MTg7c3Ryb2tlLXdpZHRoOjAuNTsiIHgxPSI1MDciIHgyPSI3OTMiIHkxPSIyODkuNSIgeTI9IjI4OS41Ii8+PGVsbGlwc2UgY3g9IjUxNyIgY3k9IjMwMi40OTIyIiBmaWxsPSJub25lIiByeD0iMyIgcnk9IjMiIHN0eWxlPSJzdHJva2U6IzAzODA0ODtzdHJva2Utd2lkdGg6MS4wOyIvPjx0ZXh0IGZpbGw9IiMwMDAwMDAiIGZvbnQtZmFtaWx5PSJzYW5zLXNlcmlmIiBmb250LXNpemU9IjE0IiBsZW5ndGhBZGp1c3Q9InNwYWNpbmciIHRleHRMZW5ndGg9Ijk4IiB4PSI1MjYiIHk9IjMwNi43MzQ0Ij5TdHVkZW50SUQ6IGludDwvdGV4dD48ZWxsaXBzZSBjeD0iNTE3IiBjeT0iMzE3LjQ3NjYiIGZpbGw9IiMwMDAwMDAiIHJ4PSIzIiByeT0iMyIgc3R5bGU9InN0cm9rZTojMDAwMDAwO3N0cm9rZS13aWR0aDoxLjA7Ii8+PHRleHQgZmlsbD0iIzAwMDAwMCIgZm9udC1mYW1pbHk9InNhbnMtc2VyaWYiIGZvbnQtc2l6ZT0iMTQiIGxlbmd0aEFkanVzdD0ic3BhY2luZyIgdGV4dExlbmd0aD0iMjYyIiB4PSI1MjYiIHk9IjMyMS43MTg4Ij4tLSByZWdpc3RlcnNGb3Ige1JlZ2lzdHJhdGlvbn0gOiBtYW55PC90ZXh0PjxsaW5lIHN0eWxlPSJzdHJva2U6IzE4MTgxODtzdHJva2Utd2lkdGg6MC41OyIgeDE9IjUwNyIgeDI9Ijc5MyIgeTE9IjMyNy40Njg4IiB5Mj0iMzI3LjQ2ODgiLz48L2c+PCEtLWNsYXNzIFVuaXZlcnNpdHktLT48ZyBpZD0iZWxlbV9Vbml2ZXJzaXR5Ij48cmVjdCBjb2RlTGluZT0iMTMiIGZpbGw9IiNGMUYxRjEiIGhlaWdodD0iNzcuOTY4OCIgaWQ9IlVuaXZlcnNpdHkiIHJ4PSIyLjUiIHJ5PSIyLjUiIHN0eWxlPSJzdHJva2U6IzE4MTgxODtzdHJva2Utd2lkdGg6MC41OyIgd2lkdGg9IjIxOCIgeD0iNyIgeT0iNTIiLz48ZWxsaXBzZSBjeD0iNzYuNzUiIGN5PSI2OCIgZmlsbD0iI0FERDFCMiIgcng9IjExIiByeT0iMTEiIHN0eWxlPSJzdHJva2U6IzE4MTgxODtzdHJva2Utd2lkdGg6MS4wOyIvPjxwYXRoIGQ9Ik03NC4zNzUsNzIuMjUgTDc0LjM3NSw3NCBMNzkuMzEyNSw3NCBMNzkuMzEyNSw3Mi4yNSBMNzQuMzc1LDcyLjI1IFogTTc1LjA2MjUsNzIuOTM3NSBRNzUuMDYyNSw3Mi45Mzc1IDc1LjA2MjUsNjMuNzUgTDczLjMxMjUsNjMuNzUgUTczLjMxMjUsNjMuNzUgNzMuMzEyNSw3Mi45Mzc1IEw3NS4wNjI1LDcyLjkzNzUgWiBNNzguNjI1LDcyLjkzNzUgTDgwLjM3NSw3Mi45Mzc1IFE4MC4zNzUsNzIuOTM3NSA4MC4zNzUsNzAuMTI1IEw3OC42MjUsNzAuMTI1IFE3OC42MjUsNzAuMTI1IDc4LjYyNSw3Mi45Mzc1IFogTTc4LjYyNSw2My43NSBRNzguNjI1LDYzLjc1IDc4LjYyNSw2Ni41NjI1IEw4MC4zNzUsNjYuNTYyNSBRODAuMzc1LDY2LjU2MjUgODAuMzc1LDYzLjc1IEw3OC42MjUsNjMuNzUgWiBNNzQuMzc1LDY0LjQzNzUgTDc5LjMxMjUsNjQuNDM3NSBMNzkuMzEyNSw2Mi42ODc1IEw3NC4zNzUsNjIuNjg3NSBMNzQuMzc1LDY0LjQzNzUgWiAiIGZpbGw9IiMwMDAwMDAiLz48dGV4dCBmaWxsPSIjMDAwMDAwIiBmb250LWZhbWlseT0ic2Fucy1zZXJpZiIgZm9udC1zaXplPSIxNCIgbGVuZ3RoQWRqdXN0PSJzcGFjaW5nIiB0ZXh0TGVuZ3RoPSI3MCIgeD0iOTcuMjUiIHk9IjczLjc0MjIiPlVuaXZlcnNpdHk8L3RleHQ+PGxpbmUgc3R5bGU9InN0cm9rZTojMTgxODE4O3N0cm9rZS13aWR0aDowLjU7IiB4MT0iOCIgeDI9IjIyNCIgeTE9Ijg0IiB5Mj0iODQiLz48ZWxsaXBzZSBjeD0iMTgiIGN5PSI5Ni45OTIyIiBmaWxsPSJub25lIiByeD0iMyIgcnk9IjMiIHN0eWxlPSJzdHJva2U6IzAzODA0ODtzdHJva2Utd2lkdGg6MS4wOyIvPjx0ZXh0IGZpbGw9IiMwMDAwMDAiIGZvbnQtZmFtaWx5PSJzYW5zLXNlcmlmIiBmb250LXNpemU9IjE0IiBsZW5ndGhBZGp1c3Q9InNwYWNpbmciIHRleHRMZW5ndGg9IjExOSIgeD0iMjciIHk9IjEwMS4yMzQ0Ij5Vbml2ZXJzaXR5SUQ6IGludDwvdGV4dD48ZWxsaXBzZSBjeD0iMTgiIGN5PSIxMTEuOTc2NiIgZmlsbD0iIzAwMDAwMCIgcng9IjMiIHJ5PSIzIiBzdHlsZT0ic3Ryb2tlOiMwMDAwMDA7c3Ryb2tlLXdpZHRoOjEuMDsiLz48dGV4dCBmaWxsPSIjMDAwMDAwIiBmb250LWZhbWlseT0ic2Fucy1zZXJpZiIgZm9udC1zaXplPSIxNCIgbGVuZ3RoQWRqdXN0PSJzcGFjaW5nIiB0ZXh0TGVuZ3RoPSIxOTIiIHg9IjI3IiB5PSIxMTYuMjE4OCI+LS0gb3JnYW5pemVzIHtFdmVudH0gOiBtYW55PC90ZXh0PjxsaW5lIHN0eWxlPSJzdHJva2U6IzE4MTgxODtzdHJva2Utd2lkdGg6MC41OyIgeDE9IjgiIHgyPSIyMjQiIHkxPSIxMjEuOTY4OCIgeTI9IjEyMS45Njg4Ii8+PC9nPjwhLS1jbGFzcyBBZG1pbi0tPjxnIGlkPSJlbGVtX0FkbWluIj48cmVjdCBjb2RlTGluZT0iMTgiIGZpbGw9IiNGMUYxRjEiIGhlaWdodD0iNzcuOTY4OCIgaWQ9IkFkbWluIiByeD0iMi41IiByeT0iMi41IiBzdHlsZT0ic3Ryb2tlOiMxODE4MTg7c3Ryb2tlLXdpZHRoOjAuNTsiIHdpZHRoPSIyMDUiIHg9IjgyOS41IiB5PSIyNTcuNSIvPjxlbGxpcHNlIGN4PSI5MDkuNzUiIGN5PSIyNzMuNSIgZmlsbD0iI0FERDFCMiIgcng9IjExIiByeT0iMTEiIHN0eWxlPSJzdHJva2U6IzE4MTgxODtzdHJva2Utd2lkdGg6MS4wOyIvPjxwYXRoIGQ9Ik05MDcuMzc1LDI3Ny43NSBMOTA3LjM3NSwyNzkuNSBMOTEyLjMxMjUsMjc5LjUgTDkxMi4zMTI1LDI3Ny43NSBMOTA3LjM3NSwyNzcuNzUgWiBNOTA4LjA2MjUsMjc4LjQzNzUgUTkwOC4wNjI1LDI3OC40Mzc1IDkwOC4wNjI1LDI2OS4yNSBMOTA2LjMxMjUsMjY5LjI1IFE5MDYuMzEyNSwyNjkuMjUgOTA2LjMxMjUsMjc4LjQzNzUgTDkwOC4wNjI1LDI3OC40Mzc1IFogTTkxMS42MjUsMjc4LjQzNzUgTDkxMy4zNzUsMjc4LjQzNzUgUTkxMy4zNzUsMjc4LjQzNzUgOTEzLjM3NSwyNzUuNjI1IEw5MTEuNjI1LDI3NS42MjUgUTkxMS42MjUsMjc1LjYyNSA5MTEuNjI1LDI3OC40Mzc1IFogTTkxMS42MjUsMjY5LjI1IFE5MTEuNjI1LDI2OS4yNSA5MTEuNjI1LDI3Mi4wNjI1IEw5MTMuMzc1LDI3Mi4wNjI1IFE5MTMuMzc1LDI3Mi4wNjI1IDkxMy4zNzUsMjY5LjI1IEw5MTEuNjI1LDI2OS4yNSBaIE05MDcuMzc1LDI2OS45Mzc1IEw5MTIuMzEyNSwyNjkuOTM3NSBMOTEyLjMxMjUsMjY4LjE4NzUgTDkwNy4zNzUsMjY4LjE4NzUgTDkwNy4zNzUsMjY5LjkzNzUgWiAiIGZpbGw9IiMwMDAwMDAiLz48dGV4dCBmaWxsPSIjMDAwMDAwIiBmb250LWZhbWlseT0ic2Fucy1zZXJpZiIgZm9udC1zaXplPSIxNCIgbGVuZ3RoQWRqdXN0PSJzcGFjaW5nIiB0ZXh0TGVuZ3RoPSIzNiIgeD0iOTMwLjI1IiB5PSIyNzkuMjQyMiI+QWRtaW48L3RleHQ+PGxpbmUgc3R5bGU9InN0cm9rZTojMTgxODE4O3N0cm9rZS13aWR0aDowLjU7IiB4MT0iODMwLjUiIHgyPSIxMDMzLjUiIHkxPSIyODkuNSIgeTI9IjI4OS41Ii8+PGVsbGlwc2UgY3g9Ijg0MC41IiBjeT0iMzAyLjQ5MjIiIGZpbGw9Im5vbmUiIHJ4PSIzIiByeT0iMyIgc3R5bGU9InN0cm9rZTojMDM4MDQ4O3N0cm9rZS13aWR0aDoxLjA7Ii8+PHRleHQgZmlsbD0iIzAwMDAwMCIgZm9udC1mYW1pbHk9InNhbnMtc2VyaWYiIGZvbnQtc2l6ZT0iMTQiIGxlbmd0aEFkanVzdD0ic3BhY2luZyIgdGV4dExlbmd0aD0iODUiIHg9Ijg0OS41IiB5PSIzMDYuNzM0NCI+QWRtaW5JRDogaW50PC90ZXh0PjxlbGxpcHNlIGN4PSI4NDAuNSIgY3k9IjMxNy40NzY2IiBmaWxsPSIjMDAwMDAwIiByeD0iMyIgcnk9IjMiIHN0eWxlPSJzdHJva2U6IzAwMDAwMDtzdHJva2Utd2lkdGg6MS4wOyIvPjx0ZXh0IGZpbGw9IiMwMDAwMDAiIGZvbnQtZmFtaWx5PSJzYW5zLXNlcmlmIiBmb250LXNpemU9IjE0IiBsZW5ndGhBZGp1c3Q9InNwYWNpbmciIHRleHRMZW5ndGg9IjE3OSIgeD0iODQ5LjUiIHk9IjMyMS43MTg4Ij4tLSBtYW5hZ2VzIHtFdmVudH0gOiBtYW55PC90ZXh0PjxsaW5lIHN0eWxlPSJzdHJva2U6IzE4MTgxODtzdHJva2Utd2lkdGg6MC41OyIgeDE9IjgzMC41IiB4Mj0iMTAzMy41IiB5MT0iMzI3LjQ2ODgiIHkyPSIzMjcuNDY4OCIvPjwvZz48IS0tY2xhc3MgRXZlbnQtLT48ZyBpZD0iZWxlbV9FdmVudCI+PHJlY3QgY29kZUxpbmU9IjIzIiBmaWxsPSIjRjFGMUYxIiBoZWlnaHQ9IjE2Ny44NzUiIGlkPSJFdmVudCIgcng9IjIuNSIgcnk9IjIuNSIgc3R5bGU9InN0cm9rZTojMTgxODE4O3N0cm9rZS13aWR0aDowLjU7IiB3aWR0aD0iMjI1IiB4PSIyNjAuNSIgeT0iNyIvPjxlbGxpcHNlIGN4PSIzNTEuMjUiIGN5PSIyMyIgZmlsbD0iI0FERDFCMiIgcng9IjExIiByeT0iMTEiIHN0eWxlPSJzdHJva2U6IzE4MTgxODtzdHJva2Utd2lkdGg6MS4wOyIvPjxwYXRoIGQ9Ik0zNDguODc1LDI3LjI1IEwzNDguODc1LDI5IEwzNTMuODEyNSwyOSBMMzUzLjgxMjUsMjcuMjUgTDM0OC44NzUsMjcuMjUgWiBNMzQ5LjU2MjUsMjcuOTM3NSBRMzQ5LjU2MjUsMjcuOTM3NSAzNDkuNTYyNSwxOC43NSBMMzQ3LjgxMjUsMTguNzUgUTM0Ny44MTI1LDE4Ljc1IDM0Ny44MTI1LDI3LjkzNzUgTDM0OS41NjI1LDI3LjkzNzUgWiBNMzUzLjEyNSwyNy45Mzc1IEwzNTQuODc1LDI3LjkzNzUgUTM1NC44NzUsMjcuOTM3NSAzNTQuODc1LDI1LjEyNSBMMzUzLjEyNSwyNS4xMjUgUTM1My4xMjUsMjUuMTI1IDM1My4xMjUsMjcuOTM3NSBaIE0zNTMuMTI1LDE4Ljc1IFEzNTMuMTI1LDE4Ljc1IDM1My4xMjUsMjEuNTYyNSBMMzU0Ljg3NSwyMS41NjI1IFEzNTQuODc1LDIxLjU2MjUgMzU0Ljg3NSwxOC43NSBMMzUzLjEyNSwxOC43NSBaIE0zNDguODc1LDE5LjQzNzUgTDM1My44MTI1LDE5LjQzNzUgTDM1My44MTI1LDE3LjY4NzUgTDM0OC44NzUsMTcuNjg3NSBMMzQ4Ljg3NSwxOS40Mzc1IFogIiBmaWxsPSIjMDAwMDAwIi8+PHRleHQgZmlsbD0iIzAwMDAwMCIgZm9udC1mYW1pbHk9InNhbnMtc2VyaWYiIGZvbnQtc2l6ZT0iMTQiIGxlbmd0aEFkanVzdD0ic3BhY2luZyIgdGV4dExlbmd0aD0iMzUiIHg9IjM3MS43NSIgeT0iMjguNzQyMiI+RXZlbnQ8L3RleHQ+PGxpbmUgc3R5bGU9InN0cm9rZTojMTgxODE4O3N0cm9rZS13aWR0aDowLjU7IiB4MT0iMjYxLjUiIHgyPSI0ODQuNSIgeTE9IjM5IiB5Mj0iMzkiLz48ZWxsaXBzZSBjeD0iMjcxLjUiIGN5PSI1MS45OTIyIiBmaWxsPSJub25lIiByeD0iMyIgcnk9IjMiIHN0eWxlPSJzdHJva2U6IzAzODA0ODtzdHJva2Utd2lkdGg6MS4wOyIvPjx0ZXh0IGZpbGw9IiMwMDAwMDAiIGZvbnQtZmFtaWx5PSJzYW5zLXNlcmlmIiBmb250LXNpemU9IjE0IiBsZW5ndGhBZGp1c3Q9InNwYWNpbmciIHRleHRMZW5ndGg9Ijg0IiB4PSIyODAuNSIgeT0iNTYuMjM0NCI+RXZlbnRJRDogaW50PC90ZXh0PjxlbGxpcHNlIGN4PSIyNzEuNSIgY3k9IjY2Ljk3NjYiIGZpbGw9Im5vbmUiIHJ4PSIzIiByeT0iMyIgc3R5bGU9InN0cm9rZTojMDM4MDQ4O3N0cm9rZS13aWR0aDoxLjA7Ii8+PHRleHQgZmlsbD0iIzAwMDAwMCIgZm9udC1mYW1pbHk9InNhbnMtc2VyaWYiIGZvbnQtc2l6ZT0iMTQiIGxlbmd0aEFkanVzdD0ic3BhY2luZyIgdGV4dExlbmd0aD0iOTEiIHg9IjI4MC41IiB5PSI3MS4yMTg4Ij5UaXRsZTogc3RyaW5nPC90ZXh0PjxlbGxpcHNlIGN4PSIyNzEuNSIgY3k9IjgxLjk2MDkiIGZpbGw9Im5vbmUiIHJ4PSIzIiByeT0iMyIgc3R5bGU9InN0cm9rZTojMDM4MDQ4O3N0cm9rZS13aWR0aDoxLjA7Ii8+PHRleHQgZmlsbD0iIzAwMDAwMCIgZm9udC1mYW1pbHk9InNhbnMtc2VyaWYiIGZvbnQtc2l6ZT0iMTQiIGxlbmd0aEFkanVzdD0ic3BhY2luZyIgdGV4dExlbmd0aD0iMTMzIiB4PSIyODAuNSIgeT0iODYuMjAzMSI+RGVzY3JpcHRpb246IHN0cmluZzwvdGV4dD48ZWxsaXBzZSBjeD0iMjcxLjUiIGN5PSI5Ni45NDUzIiBmaWxsPSJub25lIiByeD0iMyIgcnk9IjMiIHN0eWxlPSJzdHJva2U6IzAzODA0ODtzdHJva2Utd2lkdGg6MS4wOyIvPjx0ZXh0IGZpbGw9IiMwMDAwMDAiIGZvbnQtZmFtaWx5PSJzYW5zLXNlcmlmIiBmb250LXNpemU9IjE0IiBsZW5ndGhBZGp1c3Q9InNwYWNpbmciIHRleHRMZW5ndGg9IjcwIiB4PSIyODAuNSIgeT0iMTAxLjE4NzUiPkRhdGU6IGRhdGU8L3RleHQ+PGVsbGlwc2UgY3g9IjI3MS41IiBjeT0iMTExLjkyOTciIGZpbGw9Im5vbmUiIHJ4PSIzIiByeT0iMyIgc3R5bGU9InN0cm9rZTojMDM4MDQ4O3N0cm9rZS13aWR0aDoxLjA7Ii8+PHRleHQgZmlsbD0iIzAwMDAwMCIgZm9udC1mYW1pbHk9InNhbnMtc2VyaWYiIGZvbnQtc2l6ZT0iMTQiIGxlbmd0aEFkanVzdD0ic3BhY2luZyIgdGV4dExlbmd0aD0iNzIiIHg9IjI4MC41IiB5PSIxMTYuMTcxOSI+VGltZTogdGltZTwvdGV4dD48ZWxsaXBzZSBjeD0iMjcxLjUiIGN5PSIxMjYuOTE0MSIgZmlsbD0ibm9uZSIgcng9IjMiIHJ5PSIzIiBzdHlsZT0ic3Ryb2tlOiMwMzgwNDg7c3Ryb2tlLXdpZHRoOjEuMDsiLz48dGV4dCBmaWxsPSIjMDAwMDAwIiBmb250LWZhbWlseT0ic2Fucy1zZXJpZiIgZm9udC1zaXplPSIxNCIgbGVuZ3RoQWRqdXN0PSJzcGFjaW5nIiB0ZXh0TGVuZ3RoPSIxMTIiIHg9IjI4MC41IiB5PSIxMzEuMTU2MyI+TG9jYXRpb246IHN0cmluZzwvdGV4dD48ZWxsaXBzZSBjeD0iMjcxLjUiIGN5PSIxNDEuODk4NCIgZmlsbD0iIzAwMDAwMCIgcng9IjMiIHJ5PSIzIiBzdHlsZT0ic3Ryb2tlOiMwMDAwMDA7c3Ryb2tlLXdpZHRoOjEuMDsiLz48dGV4dCBmaWxsPSIjMDAwMDAwIiBmb250LWZhbWlseT0ic2Fucy1zZXJpZiIgZm9udC1zaXplPSIxNCIgbGVuZ3RoQWRqdXN0PSJzcGFjaW5nIiB0ZXh0TGVuZ3RoPSIxOTEiIHg9IjI4MC41IiB5PSIxNDYuMTQwNiI+LS0gYmVsb25nc1RvIHtDYXRlZ29yeX0gOiAxPC90ZXh0PjxlbGxpcHNlIGN4PSIyNzEuNSIgY3k9IjE1Ni44ODI4IiBmaWxsPSIjMDAwMDAwIiByeD0iMyIgcnk9IjMiIHN0eWxlPSJzdHJva2U6IzAwMDAwMDtzdHJva2Utd2lkdGg6MS4wOyIvPjx0ZXh0IGZpbGw9IiMwMDAwMDAiIGZvbnQtZmFtaWx5PSJzYW5zLXNlcmlmIiBmb250LXNpemU9IjE0IiBsZW5ndGhBZGp1c3Q9InNwYWNpbmciIHRleHRMZW5ndGg9IjE5OSIgeD0iMjgwLjUiIHk9IjE2MS4xMjUiPi0tIGhhcyB7UmVnaXN0cmF0aW9ufSA6IG1hbnk8L3RleHQ+PGxpbmUgc3R5bGU9InN0cm9rZTojMTgxODE4O3N0cm9rZS13aWR0aDowLjU7IiB4MT0iMjYxLjUiIHgyPSI0ODQuNSIgeTE9IjE2Ni44NzUiIHkyPSIxNjYuODc1Ii8+PC9nPjwhLS1jbGFzcyBDYXRlZ29yeS0tPjxnIGlkPSJlbGVtX0NhdGVnb3J5Ij48cmVjdCBjb2RlTGluZT0iMzQiIGZpbGw9IiNGMUYxRjEiIGhlaWdodD0iMTA3LjkzNzUiIGlkPSJDYXRlZ29yeSIgcng9IjIuNSIgcnk9IjIuNSIgc3R5bGU9InN0cm9rZTojMTgxODE4O3N0cm9rZS13aWR0aDowLjU7IiB3aWR0aD0iMTc2IiB4PSIyOCIgeT0iMjQyLjUiLz48ZWxsaXBzZSBjeD0iODMuNzUiIGN5PSIyNTguNSIgZmlsbD0iI0FERDFCMiIgcng9IjExIiByeT0iMTEiIHN0eWxlPSJzdHJva2U6IzE4MTgxODtzdHJva2Utd2lkdGg6MS4wOyIvPjxwYXRoIGQ9Ik04MS4zNzUsMjYyLjc1IEw4MS4zNzUsMjY0LjUgTDg2LjMxMjUsMjY0LjUgTDg2LjMxMjUsMjYyLjc1IEw4MS4zNzUsMjYyLjc1IFogTTgyLjA2MjUsMjYzLjQzNzUgUTgyLjA2MjUsMjYzLjQzNzUgODIuMDYyNSwyNTQuMjUgTDgwLjMxMjUsMjU0LjI1IFE4MC4zMTI1LDI1NC4yNSA4MC4zMTI1LDI2My40Mzc1IEw4Mi4wNjI1LDI2My40Mzc1IFogTTg1LjYyNSwyNjMuNDM3NSBMODcuMzc1LDI2My40Mzc1IFE4Ny4zNzUsMjYzLjQzNzUgODcuMzc1LDI2MC42MjUgTDg1LjYyNSwyNjAuNjI1IFE4NS42MjUsMjYwLjYyNSA4NS42MjUsMjYzLjQzNzUgWiBNODUuNjI1LDI1NC4yNSBRODUuNjI1LDI1NC4yNSA4NS42MjUsMjU3LjA2MjUgTDg3LjM3NSwyNTcuMDYyNSBRODcuMzc1LDI1Ny4wNjI1IDg3LjM3NSwyNTQuMjUgTDg1LjYyNSwyNTQuMjUgWiBNODEuMzc1LDI1NC45Mzc1IEw4Ni4zMTI1LDI1NC45Mzc1IEw4Ni4zMTI1LDI1My4xODc1IEw4MS4zNzUsMjUzLjE4NzUgTDgxLjM3NSwyNTQuOTM3NSBaICIgZmlsbD0iIzAwMDAwMCIvPjx0ZXh0IGZpbGw9IiMwMDAwMDAiIGZvbnQtZmFtaWx5PSJzYW5zLXNlcmlmIiBmb250LXNpemU9IjE0IiBsZW5ndGhBZGp1c3Q9InNwYWNpbmciIHRleHRMZW5ndGg9IjU2IiB4PSIxMDQuMjUiIHk9IjI2NC4yNDIyIj5DYXRlZ29yeTwvdGV4dD48bGluZSBzdHlsZT0ic3Ryb2tlOiMxODE4MTg7c3Ryb2tlLXdpZHRoOjAuNTsiIHgxPSIyOSIgeDI9IjIwMyIgeTE9IjI3NC41IiB5Mj0iMjc0LjUiLz48ZWxsaXBzZSBjeD0iMzkiIGN5PSIyODcuNDkyMiIgZmlsbD0ibm9uZSIgcng9IjMiIHJ5PSIzIiBzdHlsZT0ic3Ryb2tlOiMwMzgwNDg7c3Ryb2tlLXdpZHRoOjEuMDsiLz48dGV4dCBmaWxsPSIjMDAwMDAwIiBmb250LWZhbWlseT0ic2Fucy1zZXJpZiIgZm9udC1zaXplPSIxNCIgbGVuZ3RoQWRqdXN0PSJzcGFjaW5nIiB0ZXh0TGVuZ3RoPSIxMDUiIHg9IjQ4IiB5PSIyOTEuNzM0NCI+Q2F0ZWdvcnlJRDogaW50PC90ZXh0PjxlbGxpcHNlIGN4PSIzOSIgY3k9IjMwMi40NzY2IiBmaWxsPSJub25lIiByeD0iMyIgcnk9IjMiIHN0eWxlPSJzdHJva2U6IzAzODA0ODtzdHJva2Utd2lkdGg6MS4wOyIvPjx0ZXh0IGZpbGw9IiMwMDAwMDAiIGZvbnQtZmFtaWx5PSJzYW5zLXNlcmlmIiBmb250LXNpemU9IjE0IiBsZW5ndGhBZGp1c3Q9InNwYWNpbmciIHRleHRMZW5ndGg9Ijg1IiB4PSI0OCIgeT0iMzA2LjcxODgiPk5hbWU6IHN0cmluZzwvdGV4dD48ZWxsaXBzZSBjeD0iMzkiIGN5PSIzMTcuNDYwOSIgZmlsbD0ibm9uZSIgcng9IjMiIHJ5PSIzIiBzdHlsZT0ic3Ryb2tlOiMwMzgwNDg7c3Ryb2tlLXdpZHRoOjEuMDsiLz48dGV4dCBmaWxsPSIjMDAwMDAwIiBmb250LWZhbWlseT0ic2Fucy1zZXJpZiIgZm9udC1zaXplPSIxNCIgbGVuZ3RoQWRqdXN0PSJzcGFjaW5nIiB0ZXh0TGVuZ3RoPSIxMzMiIHg9IjQ4IiB5PSIzMjEuNzAzMSI+RGVzY3JpcHRpb246IHN0cmluZzwvdGV4dD48ZWxsaXBzZSBjeD0iMzkiIGN5PSIzMzIuNDQ1MyIgZmlsbD0iIzAwMDAwMCIgcng9IjMiIHJ5PSIzIiBzdHlsZT0ic3Ryb2tlOiMwMDAwMDA7c3Ryb2tlLXdpZHRoOjEuMDsiLz48dGV4dCBmaWxsPSIjMDAwMDAwIiBmb250LWZhbWlseT0ic2Fucy1zZXJpZiIgZm9udC1zaXplPSIxNCIgbGVuZ3RoQWRqdXN0PSJzcGFjaW5nIiB0ZXh0TGVuZ3RoPSIxNTAiIHg9IjQ4IiB5PSIzMzYuNjg3NSI+LS0gaGFzIHtFdmVudH0gOiBtYW55PC90ZXh0PjxsaW5lIHN0eWxlPSJzdHJva2U6IzE4MTgxODtzdHJva2Utd2lkdGg6MC41OyIgeDE9IjI5IiB4Mj0iMjAzIiB5MT0iMzQyLjQzNzUiIHkyPSIzNDIuNDM3NSIvPjwvZz48IS0tY2xhc3MgUmVnaXN0cmF0aW9uLS0+PGcgaWQ9ImVsZW1fUmVnaXN0cmF0aW9uIj48cmVjdCBjb2RlTGluZT0iNDEiIGZpbGw9IiNGMUYxRjEiIGhlaWdodD0iMTIyLjkyMTkiIGlkPSJSZWdpc3RyYXRpb24iIHJ4PSIyLjUiIHJ5PSIyLjUiIHN0eWxlPSJzdHJva2U6IzE4MTgxODtzdHJva2Utd2lkdGg6MC41OyIgd2lkdGg9IjIzMiIgeD0iMjM5IiB5PSIyMzUiLz48ZWxsaXBzZSBjeD0iMzA4Ljc1IiBjeT0iMjUxIiBmaWxsPSIjQUREMUIyIiByeD0iMTEiIHJ5PSIxMSIgc3R5bGU9InN0cm9rZTojMTgxODE4O3N0cm9rZS13aWR0aDoxLjA7Ii8+PHBhdGggZD0iTTMwNi4zNzUsMjU1LjI1IEwzMDYuMzc1LDI1NyBMMzExLjMxMjUsMjU3IEwzMTEuMzEyNSwyNTUuMjUgTDMwNi4zNzUsMjU1LjI1IFogTTMwNy4wNjI1LDI1NS45Mzc1IFEzMDcuMDYyNSwyNTUuOTM3NSAzMDcuMDYyNSwyNDYuNzUgTDMwNS4zMTI1LDI0Ni43NSBRMzA1LjMxMjUsMjQ2Ljc1IDMwNS4zMTI1LDI1NS45Mzc1IEwzMDcuMDYyNSwyNTUuOTM3NSBaIE0zMTAuNjI1LDI1NS45Mzc1IEwzMTIuMzc1LDI1NS45Mzc1IFEzMTIuMzc1LDI1NS45Mzc1IDMxMi4zNzUsMjUzLjEyNSBMMzEwLjYyNSwyNTMuMTI1IFEzMTAuNjI1LDI1My4xMjUgMzEwLjYyNSwyNTUuOTM3NSBaIE0zMTAuNjI1LDI0Ni43NSBRMzEwLjYyNSwyNDYuNzUgMzEwLjYyNSwyNDkuNTYyNSBMMzEyLjM3NSwyNDkuNTYyNSBRMzEyLjM3NSwyNDkuNTYyNSAzMTIuMzc1LDI0Ni43NSBMMzEwLjYyNSwyNDYuNzUgWiBNMzA2LjM3NSwyNDcuNDM3NSBMMzExLjMxMjUsMjQ3LjQzNzUgTDMxMS4zMTI1LDI0NS42ODc1IEwzMDYuMzc1LDI0NS42ODc1IEwzMDYuMzc1LDI0Ny40Mzc1IFogIiBmaWxsPSIjMDAwMDAwIi8+PHRleHQgZmlsbD0iIzAwMDAwMCIgZm9udC1mYW1pbHk9InNhbnMtc2VyaWYiIGZvbnQtc2l6ZT0iMTQiIGxlbmd0aEFkanVzdD0ic3BhY2luZyIgdGV4dExlbmd0aD0iODQiIHg9IjMyOS4yNSIgeT0iMjU2Ljc0MjIiPlJlZ2lzdHJhdGlvbjwvdGV4dD48bGluZSBzdHlsZT0ic3Ryb2tlOiMxODE4MTg7c3Ryb2tlLXdpZHRoOjAuNTsiIHgxPSIyNDAiIHgyPSI0NzAiIHkxPSIyNjciIHkyPSIyNjciLz48ZWxsaXBzZSBjeD0iMjUwIiBjeT0iMjc5Ljk5MjIiIGZpbGw9Im5vbmUiIHJ4PSIzIiByeT0iMyIgc3R5bGU9InN0cm9rZTojMDM4MDQ4O3N0cm9rZS13aWR0aDoxLjA7Ii8+PHRleHQgZmlsbD0iIzAwMDAwMCIgZm9udC1mYW1pbHk9InNhbnMtc2VyaWYiIGZvbnQtc2l6ZT0iMTQiIGxlbmd0aEFkanVzdD0ic3BhY2luZyIgdGV4dExlbmd0aD0iMTMzIiB4PSIyNTkiIHk9IjI4NC4yMzQ0Ij5SZWdpc3RyYXRpb25JRDogaW50PC90ZXh0PjxlbGxpcHNlIGN4PSIyNTAiIGN5PSIyOTQuOTc2NiIgZmlsbD0ibm9uZSIgcng9IjMiIHJ5PSIzIiBzdHlsZT0ic3Ryb2tlOiMwMzgwNDg7c3Ryb2tlLXdpZHRoOjEuMDsiLz48dGV4dCBmaWxsPSIjMDAwMDAwIiBmb250LWZhbWlseT0ic2Fucy1zZXJpZiIgZm9udC1zaXplPSIxNCIgbGVuZ3RoQWRqdXN0PSJzcGFjaW5nIiB0ZXh0TGVuZ3RoPSIxNTQiIHg9IjI1OSIgeT0iMjk5LjIxODgiPlJlZ2lzdHJhdGlvbkRhdGU6IGRhdGU8L3RleHQ+PGVsbGlwc2UgY3g9IjI1MCIgY3k9IjMwOS45NjA5IiBmaWxsPSJub25lIiByeD0iMyIgcnk9IjMiIHN0eWxlPSJzdHJva2U6IzAzODA0ODtzdHJva2Utd2lkdGg6MS4wOyIvPjx0ZXh0IGZpbGw9IiMwMDAwMDAiIGZvbnQtZmFtaWx5PSJzYW5zLXNlcmlmIiBmb250LXNpemU9IjE0IiBsZW5ndGhBZGp1c3Q9InNwYWNpbmciIHRleHRMZW5ndGg9Ijk4IiB4PSIyNTkiIHk9IjMxNC4yMDMxIj5TdGF0dXM6IHN0cmluZzwvdGV4dD48ZWxsaXBzZSBjeD0iMjUwIiBjeT0iMzI0Ljk0NTMiIGZpbGw9IiMwMDAwMDAiIHJ4PSIzIiByeT0iMyIgc3R5bGU9InN0cm9rZTojMDAwMDAwO3N0cm9rZS13aWR0aDoxLjA7Ii8+PHRleHQgZmlsbD0iIzAwMDAwMCIgZm9udC1mYW1pbHk9InNhbnMtc2VyaWYiIGZvbnQtc2l6ZT0iMTQiIGxlbmd0aEFkanVzdD0ic3BhY2luZyIgdGV4dExlbmd0aD0iMjA2IiB4PSIyNTkiIHk9IjMyOS4xODc1Ij4tLSBiZWxvbmdzVG8ge1N0dWRlbnR9IDogbWFueTwvdGV4dD48ZWxsaXBzZSBjeD0iMjUwIiBjeT0iMzM5LjkyOTciIGZpbGw9IiMwMDAwMDAiIHJ4PSIzIiByeT0iMyIgc3R5bGU9InN0cm9rZTojMDAwMDAwO3N0cm9rZS13aWR0aDoxLjA7Ii8+PHRleHQgZmlsbD0iIzAwMDAwMCIgZm9udC1mYW1pbHk9InNhbnMtc2VyaWYiIGZvbnQtc2l6ZT0iMTQiIGxlbmd0aEFkanVzdD0ic3BhY2luZyIgdGV4dExlbmd0aD0iMTcwIiB4PSIyNTkiIHk9IjM0NC4xNzE5Ij4tLSBiZWxvbmdzVG8ge0V2ZW50fSA6IDE8L3RleHQ+PGxpbmUgc3R5bGU9InN0cm9rZTojMTgxODE4O3N0cm9rZS13aWR0aDowLjU7IiB4MT0iMjQwIiB4Mj0iNDcwIiB5MT0iMzQ5LjkyMTkiIHkyPSIzNDkuOTIxOSIvPjwvZz48IS0tcmV2ZXJzZSBsaW5rIFVzZXIgdG8gU3R1ZGVudC0tPjxnIGlkPSJsaW5rX1VzZXJfU3R1ZGVudCI+PHBhdGggZD0iTTc0My44ODc0LDE1OS45OTQ4IEM3MTkuNDg3NCwxOTUuMjA0OCA2OTguMzIsMjI1Ljc2IDY3Ni40MSwyNTcuMzkgIiBmaWxsPSJub25lIiBpZD0iVXNlci1iYWNrdG8tU3R1ZGVudCIgc3R5bGU9InN0cm9rZTojMTgxODE4O3N0cm9rZS13aWR0aDoxLjA7Ii8+PHBvbHlnb24gZmlsbD0ibm9uZSIgcG9pbnRzPSI3NTQuMTQsMTQ1LjIsNzM4Ljk1NTksMTU2LjU3NzMsNzQ4LjgxOSwxNjMuNDEyMyw3NTQuMTQsMTQ1LjIiIHN0eWxlPSJzdHJva2U6IzE4MTgxODtzdHJva2Utd2lkdGg6MS4wOyIvPjwvZz48IS0tcmV2ZXJzZSBsaW5rIFVzZXIgdG8gQWRtaW4tLT48ZyBpZD0ibGlua19Vc2VyX0FkbWluIj48cGF0aCBkPSJNODM4LjExMjYsMTU5Ljk5NDggQzg2Mi41MTI2LDE5NS4yMDQ4IDg4My42OCwyMjUuNzYgOTA1LjU5LDI1Ny4zOSAiIGZpbGw9Im5vbmUiIGlkPSJVc2VyLWJhY2t0by1BZG1pbiIgc3R5bGU9InN0cm9rZTojMTgxODE4O3N0cm9rZS13aWR0aDoxLjA7Ii8+PHBvbHlnb24gZmlsbD0ibm9uZSIgcG9pbnRzPSI4MjcuODYsMTQ1LjIsODMzLjE4MSwxNjMuNDEyMyw4NDMuMDQ0MSwxNTYuNTc3Myw4MjcuODYsMTQ1LjIiIHN0eWxlPSJzdHJva2U6IzE4MTgxODtzdHJva2Utd2lkdGg6MS4wOyIvPjwvZz48IS0tU1JDPVtYTEIxUmlDVzNCdGRBdG5VcktFbGtLcmo5cXNRZmNiakZ1MGJZNWJBZUM5a2pvcEFsdXlXR1k1amptbDJwdHhsc09RZzRLSG04NmNYQm0wTV9sZ3lBRzRybnJZQkxmUDBSNTRoM3h1dnFmVW5UR1BrTXU1REg4UVlnQnBzWmEtcnIwcG9jd01rQ3ctR2tqV3pCOVRXZks5WVFVZDlrQmZ0N3JkMVFGRzA5UkgyVG5Wald5UXBncUprZmt1WmE4aVFndUo2N3FkR1J5X0V5YmhnaU12SHRzaEk5dDhybm5KZzNvcUYxeGdfZm1sVDhwVnZEWlVJQWVsN1NTR1M1LW1BUXRTNnVsV0F4NHVWbGZYQXAyWFpSbi1vQ0xoSHRhMl9UYW5iUjNTc2swaGZKcTdfQk5NWVhHNmNDOXRYVFZ1WFJleUczVV9pQVVxWmtBTEd3ZlpZaXh0aU1GMjl4Z3lYX0I5ZVZyS0drcmlMbW95MF0tLT48L2c+PC9zdmc+;" vertex="1" parent="WIyWlLk6GJQsqaUBKTNV-1">
            <mxGeometry x="-110" y="110" width="1041" height="364" as="geometry" />
          </mxCell>
        </UserObject>
        <UserObject label="" plantUmlData="{&#xa;  &quot;data&quot;: &quot;@startuml\n\nstart\n\n:Choose login option;\nif (Login as Student) then (yes)\n  :Enter username and password;\n  if (Credentials correct?) then (yes)\n    :Login successful;\n    :View events;\n    :Search events;\n    :Register for events;\n  else (no)\n    :Display error message;\n  endif\nelseif (Login as College) then (yes)\n  :Enter college ID and password;\n  if (Credentials correct?) then (yes)\n    :Login successful;\n    :View events;\n    :Search events;\n    :Submit event request;\n  else (no)\n    :Display error message;\n  endif\nelseif (Login as Admin) then (yes)\n  :Enter username and password;\n  if (Credentials correct?) then (yes)\n    :Login successful;\n    :View events;\n    :Search events;\n    if (Event request pending?) then (yes)\n      :Approve or decline request;\n    else (no)\n      :Continue viewing events;\n    endif\n  else (no)\n    :Display error message;\n  endif\nelse (Guest)\n  :Continue as guest;\n  :View events;\n  :Search events;\nendif\n\nstop\n\n@enduml\n&quot;,&#xa;  &quot;format&quot;: &quot;svg&quot;&#xa;}" id="Ujrtwh-Fv8kipslyC4hR-4">
          <mxCell style="shape=image;noLabel=1;verticalAlign=top;aspect=fixed;imageAspect=0;image=data:image/svg+xml,PD94bWwgdmVyc2lvbj0iMS4wIiBlbmNvZGluZz0idXMtYXNjaWkiIHN0YW5kYWxvbmU9Im5vIj8+PHN2ZyB4bWxucz0iaHR0cDovL3d3dy53My5vcmcvMjAwMC9zdmciIHhtbG5zOnhsaW5rPSJodHRwOi8vd3d3LnczLm9yZy8xOTk5L3hsaW5rIiBjb250ZW50U3R5bGVUeXBlPSJ0ZXh0L2NzcyIgaGVpZ2h0PSI2NDhweCIgcHJlc2VydmVBc3BlY3RSYXRpbz0ibm9uZSIgc3R5bGU9IndpZHRoOjE0NzBweDtoZWlnaHQ6NjQ4cHg7YmFja2dyb3VuZDojRkZGRkZGOyIgdmVyc2lvbj0iMS4xIiB2aWV3Qm94PSIwIDAgMTQ3MCA2NDgiIHdpZHRoPSIxNDcwcHgiIHpvb21BbmRQYW49Im1hZ25pZnkiPjxkZWZzLz48Zz48ZWxsaXBzZSBjeD0iNzI1IiBjeT0iMjAiIGZpbGw9IiMyMjIyMjIiIHJ4PSIxMCIgcnk9IjEwIiBzdHlsZT0ic3Ryb2tlOiMyMjIyMjI7c3Ryb2tlLXdpZHRoOjEuMDsiLz48cmVjdCBmaWxsPSIjRjFGMUYxIiBoZWlnaHQ9IjMyLjg0MzgiIHJ4PSIxMi41IiByeT0iMTIuNSIgc3R5bGU9InN0cm9rZTojMTgxODE4O3N0cm9rZS13aWR0aDowLjU7IiB3aWR0aD0iMTQ3IiB4PSI2NTEuNSIgeT0iNTAiLz48dGV4dCBmaWxsPSIjMDAwMDAwIiBmb250LWZhbWlseT0ic2Fucy1zZXJpZiIgZm9udC1zaXplPSIxMiIgbGVuZ3RoQWRqdXN0PSJzcGFjaW5nIiB0ZXh0TGVuZ3RoPSIxMjciIHg9IjY2MS41IiB5PSI3MS4zNDM4Ij5DaG9vc2UgbG9naW4gb3B0aW9uPC90ZXh0Pjxwb2x5Z29uIGZpbGw9IiNGMUYxRjEiIHBvaW50cz0iMTIzLjc1LDEwMi44NDM4LDIxOS43NSwxMDIuODQzOCwyMzEuNzUsMTE0Ljg0MzgsMjE5Ljc1LDEyNi44NDM4LDEyMy43NSwxMjYuODQzOCwxMTEuNzUsMTE0Ljg0MzgsMTIzLjc1LDEwMi44NDM4IiBzdHlsZT0ic3Ryb2tlOiMxODE4MTg7c3Ryb2tlLXdpZHRoOjAuNTsiLz48dGV4dCBmaWxsPSIjMDAwMDAwIiBmb250LWZhbWlseT0ic2Fucy1zZXJpZiIgZm9udC1zaXplPSIxMSIgbGVuZ3RoQWRqdXN0PSJzcGFjaW5nIiB0ZXh0TGVuZ3RoPSIxOCIgeD0iMTc1Ljc1IiB5PSIxMzcuMjQyMiI+eWVzPC90ZXh0Pjx0ZXh0IGZpbGw9IiMwMDAwMDAiIGZvbnQtZmFtaWx5PSJzYW5zLXNlcmlmIiBmb250LXNpemU9IjExIiBsZW5ndGhBZGp1c3Q9InNwYWNpbmciIHRleHRMZW5ndGg9Ijk2IiB4PSIxMjMuNzUiIHk9IjExOS4zNTU1Ij5Mb2dpbiBhcyBTdHVkZW50PC90ZXh0PjxyZWN0IGZpbGw9IiNGMUYxRjEiIGhlaWdodD0iMzIuODQzOCIgcng9IjEyLjUiIHJ5PSIxMi41IiBzdHlsZT0ic3Ryb2tlOiMxODE4MTg7c3Ryb2tlLXdpZHRoOjAuNTsiIHdpZHRoPSIyMDIiIHg9IjcwLjc1IiB5PSIxNTguNjE3MiIvPjx0ZXh0IGZpbGw9IiMwMDAwMDAiIGZvbnQtZmFtaWx5PSJzYW5zLXNlcmlmIiBmb250LXNpemU9IjEyIiBsZW5ndGhBZGp1c3Q9InNwYWNpbmciIHRleHRMZW5ndGg9IjE4MiIgeD0iODAuNzUiIHk9IjE3OS45NjA5Ij5FbnRlciB1c2VybmFtZSBhbmQgcGFzc3dvcmQ8L3RleHQ+PHBvbHlnb24gZmlsbD0iI0YxRjFGMSIgcG9pbnRzPSIxMTEuNzUsMjExLjQ2MDksMjMxLjc1LDIxMS40NjA5LDI0My43NSwyMjMuNDYwOSwyMzEuNzUsMjM1LjQ2MDksMTExLjc1LDIzNS40NjA5LDk5Ljc1LDIyMy40NjA5LDExMS43NSwyMTEuNDYwOSIgc3R5bGU9InN0cm9rZTojMTgxODE4O3N0cm9rZS13aWR0aDowLjU7Ii8+PHRleHQgZmlsbD0iIzAwMDAwMCIgZm9udC1mYW1pbHk9InNhbnMtc2VyaWYiIGZvbnQtc2l6ZT0iMTEiIGxlbmd0aEFkanVzdD0ic3BhY2luZyIgdGV4dExlbmd0aD0iMTIwIiB4PSIxMTEuNzUiIHk9IjIyNy45NzI3Ij5DcmVkZW50aWFscyBjb3JyZWN0PzwvdGV4dD48dGV4dCBmaWxsPSIjMDAwMDAwIiBmb250LWZhbWlseT0ic2Fucy1zZXJpZiIgZm9udC1zaXplPSIxMSIgbGVuZ3RoQWRqdXN0PSJzcGFjaW5nIiB0ZXh0TGVuZ3RoPSIxOCIgeD0iODEuNzUiIHk9IjIyMi4wODU5Ij55ZXM8L3RleHQ+PHRleHQgZmlsbD0iIzAwMDAwMCIgZm9udC1mYW1pbHk9InNhbnMtc2VyaWYiIGZvbnQtc2l6ZT0iMTEiIGxlbmd0aEFkanVzdD0ic3BhY2luZyIgdGV4dExlbmd0aD0iMTIiIHg9IjI0My43NSIgeT0iMjIyLjA4NTkiPm5vPC90ZXh0PjxyZWN0IGZpbGw9IiNGMUYxRjEiIGhlaWdodD0iMzIuODQzOCIgcng9IjEyLjUiIHJ5PSIxMi41IiBzdHlsZT0ic3Ryb2tlOiMxODE4MTg7c3Ryb2tlLXdpZHRoOjAuNTsiIHdpZHRoPSIxMjUiIHg9IjIyIiB5PSIyNDUuNDYwOSIvPjx0ZXh0IGZpbGw9IiMwMDAwMDAiIGZvbnQtZmFtaWx5PSJzYW5zLXNlcmlmIiBmb250LXNpemU9IjEyIiBsZW5ndGhBZGp1c3Q9InNwYWNpbmciIHRleHRMZW5ndGg9IjEwNSIgeD0iMzIiIHk9IjI2Ni44MDQ3Ij5Mb2dpbiBzdWNjZXNzZnVsPC90ZXh0PjxyZWN0IGZpbGw9IiNGMUYxRjEiIGhlaWdodD0iMzIuODQzOCIgcng9IjEyLjUiIHJ5PSIxMi41IiBzdHlsZT0ic3Ryb2tlOiMxODE4MTg7c3Ryb2tlLXdpZHRoOjAuNTsiIHdpZHRoPSI5MyIgeD0iMzgiIHk9IjMxMy4zMDQ3Ii8+PHRleHQgZmlsbD0iIzAwMDAwMCIgZm9udC1mYW1pbHk9InNhbnMtc2VyaWYiIGZvbnQtc2l6ZT0iMTIiIGxlbmd0aEFkanVzdD0ic3BhY2luZyIgdGV4dExlbmd0aD0iNzMiIHg9IjQ4IiB5PSIzMzQuNjQ4NCI+VmlldyBldmVudHM8L3RleHQ+PHJlY3QgZmlsbD0iI0YxRjFGMSIgaGVpZ2h0PSIzMi44NDM4IiByeD0iMTIuNSIgcnk9IjEyLjUiIHN0eWxlPSJzdHJva2U6IzE4MTgxODtzdHJva2Utd2lkdGg6MC41OyIgd2lkdGg9IjEwOCIgeD0iMzAuNSIgeT0iMzgxLjE0ODQiLz48dGV4dCBmaWxsPSIjMDAwMDAwIiBmb250LWZhbWlseT0ic2Fucy1zZXJpZiIgZm9udC1zaXplPSIxMiIgbGVuZ3RoQWRqdXN0PSJzcGFjaW5nIiB0ZXh0TGVuZ3RoPSI4OCIgeD0iNDAuNSIgeT0iNDAyLjQ5MjIiPlNlYXJjaCBldmVudHM8L3RleHQ+PHJlY3QgZmlsbD0iI0YxRjFGMSIgaGVpZ2h0PSIzMi44NDM4IiByeD0iMTIuNSIgcnk9IjEyLjUiIHN0eWxlPSJzdHJva2U6IzE4MTgxODtzdHJva2Utd2lkdGg6MC41OyIgd2lkdGg9IjE0NyIgeD0iMTEiIHk9IjQ0OC45OTIyIi8+PHRleHQgZmlsbD0iIzAwMDAwMCIgZm9udC1mYW1pbHk9InNhbnMtc2VyaWYiIGZvbnQtc2l6ZT0iMTIiIGxlbmd0aEFkanVzdD0ic3BhY2luZyIgdGV4dExlbmd0aD0iMTI3IiB4PSIyMSIgeT0iNDcwLjMzNTkiPlJlZ2lzdGVyIGZvciBldmVudHM8L3RleHQ+PHJlY3QgZmlsbD0iI0YxRjFGMSIgaGVpZ2h0PSIzMi44NDM4IiByeD0iMTIuNSIgcnk9IjEyLjUiIHN0eWxlPSJzdHJva2U6IzE4MTgxODtzdHJva2Utd2lkdGg6MC41OyIgd2lkdGg9IjE2MiIgeD0iMTc4IiB5PSIyNDUuNDYwOSIvPjx0ZXh0IGZpbGw9IiMwMDAwMDAiIGZvbnQtZmFtaWx5PSJzYW5zLXNlcmlmIiBmb250LXNpemU9IjEyIiBsZW5ndGhBZGp1c3Q9InNwYWNpbmciIHRleHRMZW5ndGg9IjE0MiIgeD0iMTg4IiB5PSIyNjYuODA0NyI+RGlzcGxheSBlcnJvciBtZXNzYWdlPC90ZXh0Pjxwb2x5Z29uIGZpbGw9IiNGMUYxRjEiIHBvaW50cz0iMTcxLjc1LDQ4Ny44MzU5LDE4My43NSw0OTkuODM1OSwxNzEuNzUsNTExLjgzNTksMTU5Ljc1LDQ5OS44MzU5LDE3MS43NSw0ODcuODM1OSIgc3R5bGU9InN0cm9rZTojMTgxODE4O3N0cm9rZS13aWR0aDowLjU7Ii8+PHBvbHlnb24gZmlsbD0iI0YxRjFGMSIgcG9pbnRzPSI0NjcuMjUsMTAyLjg0MzgsNTYzLjI1LDEwMi44NDM4LDU3NS4yNSwxMTQuODQzOCw1NjMuMjUsMTI2Ljg0MzgsNDY3LjI1LDEyNi44NDM4LDQ1NS4yNSwxMTQuODQzOCw0NjcuMjUsMTAyLjg0MzgiIHN0eWxlPSJzdHJva2U6IzE4MTgxODtzdHJva2Utd2lkdGg6MC41OyIvPjx0ZXh0IGZpbGw9IiMwMDAwMDAiIGZvbnQtZmFtaWx5PSJzYW5zLXNlcmlmIiBmb250LXNpemU9IjExIiBsZW5ndGhBZGp1c3Q9InNwYWNpbmciIHRleHRMZW5ndGg9IjE4IiB4PSI1MTkuMjUiIHk9IjEzNy4yNDIyIj55ZXM8L3RleHQ+PHRleHQgZmlsbD0iIzAwMDAwMCIgZm9udC1mYW1pbHk9InNhbnMtc2VyaWYiIGZvbnQtc2l6ZT0iMTEiIGxlbmd0aEFkanVzdD0ic3BhY2luZyIgdGV4dExlbmd0aD0iOTYiIHg9IjQ2Ny4yNSIgeT0iMTE5LjM1NTUiPkxvZ2luIGFzIENvbGxlZ2U8L3RleHQ+PHJlY3QgZmlsbD0iI0YxRjFGMSIgaGVpZ2h0PSIzMi44NDM4IiByeD0iMTIuNSIgcnk9IjEyLjUiIHN0eWxlPSJzdHJva2U6IzE4MTgxODtzdHJva2Utd2lkdGg6MC41OyIgd2lkdGg9IjIxMiIgeD0iNDA5LjI1IiB5PSIxNTguNjE3MiIvPjx0ZXh0IGZpbGw9IiMwMDAwMDAiIGZvbnQtZmFtaWx5PSJzYW5zLXNlcmlmIiBmb250LXNpemU9IjEyIiBsZW5ndGhBZGp1c3Q9InNwYWNpbmciIHRleHRMZW5ndGg9IjE5MiIgeD0iNDE5LjI1IiB5PSIxNzkuOTYwOSI+RW50ZXIgY29sbGVnZSBJRCBhbmQgcGFzc3dvcmQ8L3RleHQ+PHBvbHlnb24gZmlsbD0iI0YxRjFGMSIgcG9pbnRzPSI0NTUuMjUsMjExLjQ2MDksNTc1LjI1LDIxMS40NjA5LDU4Ny4yNSwyMjMuNDYwOSw1NzUuMjUsMjM1LjQ2MDksNDU1LjI1LDIzNS40NjA5LDQ0My4yNSwyMjMuNDYwOSw0NTUuMjUsMjExLjQ2MDkiIHN0eWxlPSJzdHJva2U6IzE4MTgxODtzdHJva2Utd2lkdGg6MC41OyIvPjx0ZXh0IGZpbGw9IiMwMDAwMDAiIGZvbnQtZmFtaWx5PSJzYW5zLXNlcmlmIiBmb250LXNpemU9IjExIiBsZW5ndGhBZGp1c3Q9InNwYWNpbmciIHRleHRMZW5ndGg9IjEyMCIgeD0iNDU1LjI1IiB5PSIyMjcuOTcyNyI+Q3JlZGVudGlhbHMgY29ycmVjdD88L3RleHQ+PHRleHQgZmlsbD0iIzAwMDAwMCIgZm9udC1mYW1pbHk9InNhbnMtc2VyaWYiIGZvbnQtc2l6ZT0iMTEiIGxlbmd0aEFkanVzdD0ic3BhY2luZyIgdGV4dExlbmd0aD0iMTgiIHg9IjQyNS4yNSIgeT0iMjIyLjA4NTkiPnllczwvdGV4dD48dGV4dCBmaWxsPSIjMDAwMDAwIiBmb250LWZhbWlseT0ic2Fucy1zZXJpZiIgZm9udC1zaXplPSIxMSIgbGVuZ3RoQWRqdXN0PSJzcGFjaW5nIiB0ZXh0TGVuZ3RoPSIxMiIgeD0iNTg3LjI1IiB5PSIyMjIuMDg1OSI+bm88L3RleHQ+PHJlY3QgZmlsbD0iI0YxRjFGMSIgaGVpZ2h0PSIzMi44NDM4IiByeD0iMTIuNSIgcnk9IjEyLjUiIHN0eWxlPSJzdHJva2U6IzE4MTgxODtzdHJva2Utd2lkdGg6MC41OyIgd2lkdGg9IjEyNSIgeD0iMzY0IiB5PSIyNDUuNDYwOSIvPjx0ZXh0IGZpbGw9IiMwMDAwMDAiIGZvbnQtZmFtaWx5PSJzYW5zLXNlcmlmIiBmb250LXNpemU9IjEyIiBsZW5ndGhBZGp1c3Q9InNwYWNpbmciIHRleHRMZW5ndGg9IjEwNSIgeD0iMzc0IiB5PSIyNjYuODA0NyI+TG9naW4gc3VjY2Vzc2Z1bDwvdGV4dD48cmVjdCBmaWxsPSIjRjFGMUYxIiBoZWlnaHQ9IjMyLjg0MzgiIHJ4PSIxMi41IiByeT0iMTIuNSIgc3R5bGU9InN0cm9rZTojMTgxODE4O3N0cm9rZS13aWR0aDowLjU7IiB3aWR0aD0iOTMiIHg9IjM4MCIgeT0iMzEzLjMwNDciLz48dGV4dCBmaWxsPSIjMDAwMDAwIiBmb250LWZhbWlseT0ic2Fucy1zZXJpZiIgZm9udC1zaXplPSIxMiIgbGVuZ3RoQWRqdXN0PSJzcGFjaW5nIiB0ZXh0TGVuZ3RoPSI3MyIgeD0iMzkwIiB5PSIzMzQuNjQ4NCI+VmlldyBldmVudHM8L3RleHQ+PHJlY3QgZmlsbD0iI0YxRjFGMSIgaGVpZ2h0PSIzMi44NDM4IiByeD0iMTIuNSIgcnk9IjEyLjUiIHN0eWxlPSJzdHJva2U6IzE4MTgxODtzdHJva2Utd2lkdGg6MC41OyIgd2lkdGg9IjEwOCIgeD0iMzcyLjUiIHk9IjM4MS4xNDg0Ii8+PHRleHQgZmlsbD0iIzAwMDAwMCIgZm9udC1mYW1pbHk9InNhbnMtc2VyaWYiIGZvbnQtc2l6ZT0iMTIiIGxlbmd0aEFkanVzdD0ic3BhY2luZyIgdGV4dExlbmd0aD0iODgiIHg9IjM4Mi41IiB5PSI0MDIuNDkyMiI+U2VhcmNoIGV2ZW50czwvdGV4dD48cmVjdCBmaWxsPSIjRjFGMUYxIiBoZWlnaHQ9IjMyLjg0MzgiIHJ4PSIxMi41IiByeT0iMTIuNSIgc3R5bGU9InN0cm9rZTojMTgxODE4O3N0cm9rZS13aWR0aDowLjU7IiB3aWR0aD0iMTUzIiB4PSIzNTAiIHk9IjQ0OC45OTIyIi8+PHRleHQgZmlsbD0iIzAwMDAwMCIgZm9udC1mYW1pbHk9InNhbnMtc2VyaWYiIGZvbnQtc2l6ZT0iMTIiIGxlbmd0aEFkanVzdD0ic3BhY2luZyIgdGV4dExlbmd0aD0iMTMzIiB4PSIzNjAiIHk9IjQ3MC4zMzU5Ij5TdWJtaXQgZXZlbnQgcmVxdWVzdDwvdGV4dD48cmVjdCBmaWxsPSIjRjFGMUYxIiBoZWlnaHQ9IjMyLjg0MzgiIHJ4PSIxMi41IiByeT0iMTIuNSIgc3R5bGU9InN0cm9rZTojMTgxODE4O3N0cm9rZS13aWR0aDowLjU7IiB3aWR0aD0iMTYyIiB4PSI1MjMiIHk9IjI0NS40NjA5Ii8+PHRleHQgZmlsbD0iIzAwMDAwMCIgZm9udC1mYW1pbHk9InNhbnMtc2VyaWYiIGZvbnQtc2l6ZT0iMTIiIGxlbmd0aEFkanVzdD0ic3BhY2luZyIgdGV4dExlbmd0aD0iMTQyIiB4PSI1MzMiIHk9IjI2Ni44MDQ3Ij5EaXNwbGF5IGVycm9yIG1lc3NhZ2U8L3RleHQ+PHBvbHlnb24gZmlsbD0iI0YxRjFGMSIgcG9pbnRzPSI1MTUuMjUsNDg3LjgzNTksNTI3LjI1LDQ5OS44MzU5LDUxNS4yNSw1MTEuODM1OSw1MDMuMjUsNDk5LjgzNTksNTE1LjI1LDQ4Ny44MzU5IiBzdHlsZT0ic3Ryb2tlOiMxODE4MTg7c3Ryb2tlLXdpZHRoOjAuNTsiLz48cG9seWdvbiBmaWxsPSIjRjFGMUYxIiBwb2ludHM9IjEwNDIuMjUsMTAyLjg0MzgsMTEyNi4yNSwxMDIuODQzOCwxMTM4LjI1LDExNC44NDM4LDExMjYuMjUsMTI2Ljg0MzgsMTA0Mi4yNSwxMjYuODQzOCwxMDMwLjI1LDExNC44NDM4LDEwNDIuMjUsMTAyLjg0MzgiIHN0eWxlPSJzdHJva2U6IzE4MTgxODtzdHJva2Utd2lkdGg6MC41OyIvPjx0ZXh0IGZpbGw9IiMwMDAwMDAiIGZvbnQtZmFtaWx5PSJzYW5zLXNlcmlmIiBmb250LXNpemU9IjExIiBsZW5ndGhBZGp1c3Q9InNwYWNpbmciIHRleHRMZW5ndGg9IjE4IiB4PSIxMDg4LjI1IiB5PSIxMzcuMjQyMiI+eWVzPC90ZXh0Pjx0ZXh0IGZpbGw9IiMwMDAwMDAiIGZvbnQtZmFtaWx5PSJzYW5zLXNlcmlmIiBmb250LXNpemU9IjExIiBsZW5ndGhBZGp1c3Q9InNwYWNpbmciIHRleHRMZW5ndGg9Ijg0IiB4PSIxMDQyLjI1IiB5PSIxMTkuMzU1NSI+TG9naW4gYXMgQWRtaW48L3RleHQ+PHRleHQgZmlsbD0iIzAwMDAwMCIgZm9udC1mYW1pbHk9InNhbnMtc2VyaWYiIGZvbnQtc2l6ZT0iMTEiIGxlbmd0aEFkanVzdD0ic3BhY2luZyIgdGV4dExlbmd0aD0iMzAiIHg9IjExMzguMjUiIHk9IjExMy40Njg4Ij5HdWVzdDwvdGV4dD48cmVjdCBmaWxsPSIjRjFGMUYxIiBoZWlnaHQ9IjMyLjg0MzgiIHJ4PSIxMi41IiByeT0iMTIuNSIgc3R5bGU9InN0cm9rZTojMTgxODE4O3N0cm9rZS13aWR0aDowLjU7IiB3aWR0aD0iMjAyIiB4PSI5ODMuMjUiIHk9IjE1OC42MTcyIi8+PHRleHQgZmlsbD0iIzAwMDAwMCIgZm9udC1mYW1pbHk9InNhbnMtc2VyaWYiIGZvbnQtc2l6ZT0iMTIiIGxlbmd0aEFkanVzdD0ic3BhY2luZyIgdGV4dExlbmd0aD0iMTgyIiB4PSI5OTMuMjUiIHk9IjE3OS45NjA5Ij5FbnRlciB1c2VybmFtZSBhbmQgcGFzc3dvcmQ8L3RleHQ+PHBvbHlnb24gZmlsbD0iI0YxRjFGMSIgcG9pbnRzPSIxMDI0LjI1LDIxMS40NjA5LDExNDQuMjUsMjExLjQ2MDksMTE1Ni4yNSwyMjMuNDYwOSwxMTQ0LjI1LDIzNS40NjA5LDEwMjQuMjUsMjM1LjQ2MDksMTAxMi4yNSwyMjMuNDYwOSwxMDI0LjI1LDIxMS40NjA5IiBzdHlsZT0ic3Ryb2tlOiMxODE4MTg7c3Ryb2tlLXdpZHRoOjAuNTsiLz48dGV4dCBmaWxsPSIjMDAwMDAwIiBmb250LWZhbWlseT0ic2Fucy1zZXJpZiIgZm9udC1zaXplPSIxMSIgbGVuZ3RoQWRqdXN0PSJzcGFjaW5nIiB0ZXh0TGVuZ3RoPSIxMjAiIHg9IjEwMjQuMjUiIHk9IjIyNy45NzI3Ij5DcmVkZW50aWFscyBjb3JyZWN0PzwvdGV4dD48dGV4dCBmaWxsPSIjMDAwMDAwIiBmb250LWZhbWlseT0ic2Fucy1zZXJpZiIgZm9udC1zaXplPSIxMSIgbGVuZ3RoQWRqdXN0PSJzcGFjaW5nIiB0ZXh0TGVuZ3RoPSIxOCIgeD0iOTk0LjI1IiB5PSIyMjIuMDg1OSI+eWVzPC90ZXh0Pjx0ZXh0IGZpbGw9IiMwMDAwMDAiIGZvbnQtZmFtaWx5PSJzYW5zLXNlcmlmIiBmb250LXNpemU9IjExIiBsZW5ndGhBZGp1c3Q9InNwYWNpbmciIHRleHRMZW5ndGg9IjEyIiB4PSIxMTU2LjI1IiB5PSIyMjIuMDg1OSI+bm88L3RleHQ+PHJlY3QgZmlsbD0iI0YxRjFGMSIgaGVpZ2h0PSIzMi44NDM4IiByeD0iMTIuNSIgcnk9IjEyLjUiIHN0eWxlPSJzdHJva2U6IzE4MTgxODtzdHJva2Utd2lkdGg6MC41OyIgd2lkdGg9IjEyNSIgeD0iODcyIiB5PSIyNDUuNDYwOSIvPjx0ZXh0IGZpbGw9IiMwMDAwMDAiIGZvbnQtZmFtaWx5PSJzYW5zLXNlcmlmIiBmb250LXNpemU9IjEyIiBsZW5ndGhBZGp1c3Q9InNwYWNpbmciIHRleHRMZW5ndGg9IjEwNSIgeD0iODgyIiB5PSIyNjYuODA0NyI+TG9naW4gc3VjY2Vzc2Z1bDwvdGV4dD48cmVjdCBmaWxsPSIjRjFGMUYxIiBoZWlnaHQ9IjMyLjg0MzgiIHJ4PSIxMi41IiByeT0iMTIuNSIgc3R5bGU9InN0cm9rZTojMTgxODE4O3N0cm9rZS13aWR0aDowLjU7IiB3aWR0aD0iOTMiIHg9Ijg4OCIgeT0iMzEzLjMwNDciLz48dGV4dCBmaWxsPSIjMDAwMDAwIiBmb250LWZhbWlseT0ic2Fucy1zZXJpZiIgZm9udC1zaXplPSIxMiIgbGVuZ3RoQWRqdXN0PSJzcGFjaW5nIiB0ZXh0TGVuZ3RoPSI3MyIgeD0iODk4IiB5PSIzMzQuNjQ4NCI+VmlldyBldmVudHM8L3RleHQ+PHJlY3QgZmlsbD0iI0YxRjFGMSIgaGVpZ2h0PSIzMi44NDM4IiByeD0iMTIuNSIgcnk9IjEyLjUiIHN0eWxlPSJzdHJva2U6IzE4MTgxODtzdHJva2Utd2lkdGg6MC41OyIgd2lkdGg9IjEwOCIgeD0iODgwLjUiIHk9IjM4MS4xNDg0Ii8+PHRleHQgZmlsbD0iIzAwMDAwMCIgZm9udC1mYW1pbHk9InNhbnMtc2VyaWYiIGZvbnQtc2l6ZT0iMTIiIGxlbmd0aEFkanVzdD0ic3BhY2luZyIgdGV4dExlbmd0aD0iODgiIHg9Ijg5MC41IiB5PSI0MDIuNDkyMiI+U2VhcmNoIGV2ZW50czwvdGV4dD48cG9seWdvbiBmaWxsPSIjRjFGMUYxIiBwb2ludHM9Ijg2OC41LDQ0OC45OTIyLDEwMDAuNSw0NDguOTkyMiwxMDEyLjUsNDYwLjk5MjIsMTAwMC41LDQ3Mi45OTIyLDg2OC41LDQ3Mi45OTIyLDg1Ni41LDQ2MC45OTIyLDg2OC41LDQ0OC45OTIyIiBzdHlsZT0ic3Ryb2tlOiMxODE4MTg7c3Ryb2tlLXdpZHRoOjAuNTsiLz48dGV4dCBmaWxsPSIjMDAwMDAwIiBmb250LWZhbWlseT0ic2Fucy1zZXJpZiIgZm9udC1zaXplPSIxMSIgbGVuZ3RoQWRqdXN0PSJzcGFjaW5nIiB0ZXh0TGVuZ3RoPSIxMzIiIHg9Ijg2OC41IiB5PSI0NjUuNTAzOSI+RXZlbnQgcmVxdWVzdCBwZW5kaW5nPzwvdGV4dD48dGV4dCBmaWxsPSIjMDAwMDAwIiBmb250LWZhbWlseT0ic2Fucy1zZXJpZiIgZm9udC1zaXplPSIxMSIgbGVuZ3RoQWRqdXN0PSJzcGFjaW5nIiB0ZXh0TGVuZ3RoPSIxOCIgeD0iODM4LjUiIHk9IjQ1OS42MTcyIj55ZXM8L3RleHQ+PHRleHQgZmlsbD0iIzAwMDAwMCIgZm9udC1mYW1pbHk9InNhbnMtc2VyaWYiIGZvbnQtc2l6ZT0iMTEiIGxlbmd0aEFkanVzdD0ic3BhY2luZyIgdGV4dExlbmd0aD0iMTIiIHg9IjEwMTIuNSIgeT0iNDU5LjYxNzIiPm5vPC90ZXh0PjxyZWN0IGZpbGw9IiNGMUYxRjEiIGhlaWdodD0iMzIuODQzOCIgcng9IjEyLjUiIHJ5PSIxMi41IiBzdHlsZT0ic3Ryb2tlOiMxODE4MTg7c3Ryb2tlLXdpZHRoOjAuNTsiIHdpZHRoPSIxOTUiIHg9IjczNSIgeT0iNDgyLjk5MjIiLz48dGV4dCBmaWxsPSIjMDAwMDAwIiBmb250LWZhbWlseT0ic2Fucy1zZXJpZiIgZm9udC1zaXplPSIxMiIgbGVuZ3RoQWRqdXN0PSJzcGFjaW5nIiB0ZXh0TGVuZ3RoPSIxNzUiIHg9Ijc0NSIgeT0iNTA0LjMzNTkiPkFwcHJvdmUgb3IgZGVjbGluZSByZXF1ZXN0PC90ZXh0PjxyZWN0IGZpbGw9IiNGMUYxRjEiIGhlaWdodD0iMzIuODQzOCIgcng9IjEyLjUiIHJ5PSIxMi41IiBzdHlsZT0ic3Ryb2tlOiMxODE4MTg7c3Ryb2tlLXdpZHRoOjAuNTsiIHdpZHRoPSIxNzMiIHg9Ijk1MCIgeT0iNDgyLjk5MjIiLz48dGV4dCBmaWxsPSIjMDAwMDAwIiBmb250LWZhbWlseT0ic2Fucy1zZXJpZiIgZm9udC1zaXplPSIxMiIgbGVuZ3RoQWRqdXN0PSJzcGFjaW5nIiB0ZXh0TGVuZ3RoPSIxNTMiIHg9Ijk2MCIgeT0iNTA0LjMzNTkiPkNvbnRpbnVlIHZpZXdpbmcgZXZlbnRzPC90ZXh0Pjxwb2x5Z29uIGZpbGw9IiNGMUYxRjEiIHBvaW50cz0iOTM0LjUsNTIxLjgzNTksOTQ2LjUsNTMzLjgzNTksOTM0LjUsNTQ1LjgzNTksOTIyLjUsNTMzLjgzNTksOTM0LjUsNTIxLjgzNTkiIHN0eWxlPSJzdHJva2U6IzE4MTgxODtzdHJva2Utd2lkdGg6MC41OyIvPjxyZWN0IGZpbGw9IiNGMUYxRjEiIGhlaWdodD0iMzIuODQzOCIgcng9IjEyLjUiIHJ5PSIxMi41IiBzdHlsZT0ic3Ryb2tlOiMxODE4MTg7c3Ryb2tlLXdpZHRoOjAuNTsiIHdpZHRoPSIxNjIiIHg9IjExNTMiIHk9IjI0NS40NjA5Ii8+PHRleHQgZmlsbD0iIzAwMDAwMCIgZm9udC1mYW1pbHk9InNhbnMtc2VyaWYiIGZvbnQtc2l6ZT0iMTIiIGxlbmd0aEFkanVzdD0ic3BhY2luZyIgdGV4dExlbmd0aD0iMTQyIiB4PSIxMTYzIiB5PSIyNjYuODA0NyI+RGlzcGxheSBlcnJvciBtZXNzYWdlPC90ZXh0Pjxwb2x5Z29uIGZpbGw9IiNGMUYxRjEiIHBvaW50cz0iMTA4NC4yNSw1NTEuODM1OSwxMDk2LjI1LDU2My44MzU5LDEwODQuMjUsNTc1LjgzNTksMTA3Mi4yNSw1NjMuODM1OSwxMDg0LjI1LDU1MS44MzU5IiBzdHlsZT0ic3Ryb2tlOiMxODE4MTg7c3Ryb2tlLXdpZHRoOjAuNTsiLz48cmVjdCBmaWxsPSIjRjFGMUYxIiBoZWlnaHQ9IjMyLjg0MzgiIHJ4PSIxMi41IiByeT0iMTIuNSIgc3R5bGU9InN0cm9rZTojMTgxODE4O3N0cm9rZS13aWR0aDowLjU7IiB3aWR0aD0iMTM0IiB4PSIxMzI1IiB5PSIyNzIuNTc0MiIvPjx0ZXh0IGZpbGw9IiMwMDAwMDAiIGZvbnQtZmFtaWx5PSJzYW5zLXNlcmlmIiBmb250LXNpemU9IjEyIiBsZW5ndGhBZGp1c3Q9InNwYWNpbmciIHRleHRMZW5ndGg9IjExNCIgeD0iMTMzNSIgeT0iMjkzLjkxOCI+Q29udGludWUgYXMgZ3Vlc3Q8L3RleHQ+PHJlY3QgZmlsbD0iI0YxRjFGMSIgaGVpZ2h0PSIzMi44NDM4IiByeD0iMTIuNSIgcnk9IjEyLjUiIHN0eWxlPSJzdHJva2U6IzE4MTgxODtzdHJva2Utd2lkdGg6MC41OyIgd2lkdGg9IjkzIiB4PSIxMzQ1LjUiIHk9IjM0MC40MTgiLz48dGV4dCBmaWxsPSIjMDAwMDAwIiBmb250LWZhbWlseT0ic2Fucy1zZXJpZiIgZm9udC1zaXplPSIxMiIgbGVuZ3RoQWRqdXN0PSJzcGFjaW5nIiB0ZXh0TGVuZ3RoPSI3MyIgeD0iMTM1NS41IiB5PSIzNjEuNzYxNyI+VmlldyBldmVudHM8L3RleHQ+PHJlY3QgZmlsbD0iI0YxRjFGMSIgaGVpZ2h0PSIzMi44NDM4IiByeD0iMTIuNSIgcnk9IjEyLjUiIHN0eWxlPSJzdHJva2U6IzE4MTgxODtzdHJva2Utd2lkdGg6MC41OyIgd2lkdGg9IjEwOCIgeD0iMTMzOCIgeT0iNDA4LjI2MTciLz48dGV4dCBmaWxsPSIjMDAwMDAwIiBmb250LWZhbWlseT0ic2Fucy1zZXJpZiIgZm9udC1zaXplPSIxMiIgbGVuZ3RoQWRqdXN0PSJzcGFjaW5nIiB0ZXh0TGVuZ3RoPSI4OCIgeD0iMTM0OCIgeT0iNDI5LjYwNTUiPlNlYXJjaCBldmVudHM8L3RleHQ+PGVsbGlwc2UgY3g9IjcyNSIgY3k9IjYyNi44MzU5IiBmaWxsPSJub25lIiByeD0iMTEiIHJ5PSIxMSIgc3R5bGU9InN0cm9rZTojMjIyMjIyO3N0cm9rZS13aWR0aDoxLjA7Ii8+PGVsbGlwc2UgY3g9IjcyNSIgY3k9IjYyNi44MzU5IiBmaWxsPSIjMjIyMjIyIiByeD0iNiIgcnk9IjYiIHN0eWxlPSJzdHJva2U6IzIyMjIyMjtzdHJva2Utd2lkdGg6MS4wOyIvPjxsaW5lIHN0eWxlPSJzdHJva2U6IzE4MTgxODtzdHJva2Utd2lkdGg6MS4wOyIgeDE9IjcyNSIgeDI9IjcyNSIgeTE9IjMwIiB5Mj0iNTAiLz48cG9seWdvbiBmaWxsPSIjMTgxODE4IiBwb2ludHM9IjcyMSw0MCw3MjUsNTAsNzI5LDQwLDcyNSw0NCIgc3R5bGU9InN0cm9rZTojMTgxODE4O3N0cm9rZS13aWR0aDoxLjA7Ii8+PGxpbmUgc3R5bGU9InN0cm9rZTojMTgxODE4O3N0cm9rZS13aWR0aDoxLjA7IiB4MT0iODQuNSIgeDI9Ijg0LjUiIHkxPSIyNzguMzA0NyIgeTI9IjMxMy4zMDQ3Ii8+PHBvbHlnb24gZmlsbD0iIzE4MTgxOCIgcG9pbnRzPSI4MC41LDMwMy4zMDQ3LDg0LjUsMzEzLjMwNDcsODguNSwzMDMuMzA0Nyw4NC41LDMwNy4zMDQ3IiBzdHlsZT0ic3Ryb2tlOiMxODE4MTg7c3Ryb2tlLXdpZHRoOjEuMDsiLz48bGluZSBzdHlsZT0ic3Ryb2tlOiMxODE4MTg7c3Ryb2tlLXdpZHRoOjEuMDsiIHgxPSI4NC41IiB4Mj0iODQuNSIgeTE9IjM0Ni4xNDg0IiB5Mj0iMzgxLjE0ODQiLz48cG9seWdvbiBmaWxsPSIjMTgxODE4IiBwb2ludHM9IjgwLjUsMzcxLjE0ODQsODQuNSwzODEuMTQ4NCw4OC41LDM3MS4xNDg0LDg0LjUsMzc1LjE0ODQiIHN0eWxlPSJzdHJva2U6IzE4MTgxODtzdHJva2Utd2lkdGg6MS4wOyIvPjxsaW5lIHN0eWxlPSJzdHJva2U6IzE4MTgxODtzdHJva2Utd2lkdGg6MS4wOyIgeDE9Ijg0LjUiIHgyPSI4NC41IiB5MT0iNDEzLjk5MjIiIHkyPSI0NDguOTkyMiIvPjxwb2x5Z29uIGZpbGw9IiMxODE4MTgiIHBvaW50cz0iODAuNSw0MzguOTkyMiw4NC41LDQ0OC45OTIyLDg4LjUsNDM4Ljk5MjIsODQuNSw0NDIuOTkyMiIgc3R5bGU9InN0cm9rZTojMTgxODE4O3N0cm9rZS13aWR0aDoxLjA7Ii8+PGxpbmUgc3R5bGU9InN0cm9rZTojMTgxODE4O3N0cm9rZS13aWR0aDoxLjA7IiB4MT0iOTkuNzUiIHgyPSI4NC41IiB5MT0iMjIzLjQ2MDkiIHkyPSIyMjMuNDYwOSIvPjxsaW5lIHN0eWxlPSJzdHJva2U6IzE4MTgxODtzdHJva2Utd2lkdGg6MS4wOyIgeDE9Ijg0LjUiIHgyPSI4NC41IiB5MT0iMjIzLjQ2MDkiIHkyPSIyNDUuNDYwOSIvPjxwb2x5Z29uIGZpbGw9IiMxODE4MTgiIHBvaW50cz0iODAuNSwyMzUuNDYwOSw4NC41LDI0NS40NjA5LDg4LjUsMjM1LjQ2MDksODQuNSwyMzkuNDYwOSIgc3R5bGU9InN0cm9rZTojMTgxODE4O3N0cm9rZS13aWR0aDoxLjA7Ii8+PGxpbmUgc3R5bGU9InN0cm9rZTojMTgxODE4O3N0cm9rZS13aWR0aDoxLjA7IiB4MT0iMjQzLjc1IiB4Mj0iMjU5IiB5MT0iMjIzLjQ2MDkiIHkyPSIyMjMuNDYwOSIvPjxsaW5lIHN0eWxlPSJzdHJva2U6IzE4MTgxODtzdHJva2Utd2lkdGg6MS4wOyIgeDE9IjI1OSIgeDI9IjI1OSIgeTE9IjIyMy40NjA5IiB5Mj0iMjQ1LjQ2MDkiLz48cG9seWdvbiBmaWxsPSIjMTgxODE4IiBwb2ludHM9IjI1NSwyMzUuNDYwOSwyNTksMjQ1LjQ2MDksMjYzLDIzNS40NjA5LDI1OSwyMzkuNDYwOSIgc3R5bGU9InN0cm9rZTojMTgxODE4O3N0cm9rZS13aWR0aDoxLjA7Ii8+PGxpbmUgc3R5bGU9InN0cm9rZTojMTgxODE4O3N0cm9rZS13aWR0aDoxLjA7IiB4MT0iODQuNSIgeDI9Ijg0LjUiIHkxPSI0ODEuODM1OSIgeTI9IjQ5OS44MzU5Ii8+PGxpbmUgc3R5bGU9InN0cm9rZTojMTgxODE4O3N0cm9rZS13aWR0aDoxLjA7IiB4MT0iODQuNSIgeDI9IjE1OS43NSIgeTE9IjQ5OS44MzU5IiB5Mj0iNDk5LjgzNTkiLz48cG9seWdvbiBmaWxsPSIjMTgxODE4IiBwb2ludHM9IjE0OS43NSw0OTUuODM1OSwxNTkuNzUsNDk5LjgzNTksMTQ5Ljc1LDUwMy44MzU5LDE1My43NSw0OTkuODM1OSIgc3R5bGU9InN0cm9rZTojMTgxODE4O3N0cm9rZS13aWR0aDoxLjA7Ii8+PGxpbmUgc3R5bGU9InN0cm9rZTojMTgxODE4O3N0cm9rZS13aWR0aDoxLjA7IiB4MT0iMjU5IiB4Mj0iMjU5IiB5MT0iMjc4LjMwNDciIHkyPSI0OTkuODM1OSIvPjxsaW5lIHN0eWxlPSJzdHJva2U6IzE4MTgxODtzdHJva2Utd2lkdGg6MS4wOyIgeDE9IjI1OSIgeDI9IjE4My43NSIgeTE9IjQ5OS44MzU5IiB5Mj0iNDk5LjgzNTkiLz48cG9seWdvbiBmaWxsPSIjMTgxODE4IiBwb2ludHM9IjE5My43NSw0OTUuODM1OSwxODMuNzUsNDk5LjgzNTksMTkzLjc1LDUwMy44MzU5LDE4OS43NSw0OTkuODM1OSIgc3R5bGU9InN0cm9rZTojMTgxODE4O3N0cm9rZS13aWR0aDoxLjA7Ii8+PGxpbmUgc3R5bGU9InN0cm9rZTojMTgxODE4O3N0cm9rZS13aWR0aDoxLjA7IiB4MT0iMTcxLjc1IiB4Mj0iMTcxLjc1IiB5MT0iMTkxLjQ2MDkiIHkyPSIyMTEuNDYwOSIvPjxwb2x5Z29uIGZpbGw9IiMxODE4MTgiIHBvaW50cz0iMTY3Ljc1LDIwMS40NjA5LDE3MS43NSwyMTEuNDYwOSwxNzUuNzUsMjAxLjQ2MDksMTcxLjc1LDIwNS40NjA5IiBzdHlsZT0ic3Ryb2tlOiMxODE4MTg7c3Ryb2tlLXdpZHRoOjEuMDsiLz48bGluZSBzdHlsZT0ic3Ryb2tlOiMxODE4MTg7c3Ryb2tlLXdpZHRoOjEuMDsiIHgxPSI0MjYuNSIgeDI9IjQyNi41IiB5MT0iMjc4LjMwNDciIHkyPSIzMTMuMzA0NyIvPjxwb2x5Z29uIGZpbGw9IiMxODE4MTgiIHBvaW50cz0iNDIyLjUsMzAzLjMwNDcsNDI2LjUsMzEzLjMwNDcsNDMwLjUsMzAzLjMwNDcsNDI2LjUsMzA3LjMwNDciIHN0eWxlPSJzdHJva2U6IzE4MTgxODtzdHJva2Utd2lkdGg6MS4wOyIvPjxsaW5lIHN0eWxlPSJzdHJva2U6IzE4MTgxODtzdHJva2Utd2lkdGg6MS4wOyIgeDE9IjQyNi41IiB4Mj0iNDI2LjUiIHkxPSIzNDYuMTQ4NCIgeTI9IjM4MS4xNDg0Ii8+PHBvbHlnb24gZmlsbD0iIzE4MTgxOCIgcG9pbnRzPSI0MjIuNSwzNzEuMTQ4NCw0MjYuNSwzODEuMTQ4NCw0MzAuNSwzNzEuMTQ4NCw0MjYuNSwzNzUuMTQ4NCIgc3R5bGU9InN0cm9rZTojMTgxODE4O3N0cm9rZS13aWR0aDoxLjA7Ii8+PGxpbmUgc3R5bGU9InN0cm9rZTojMTgxODE4O3N0cm9rZS13aWR0aDoxLjA7IiB4MT0iNDI2LjUiIHgyPSI0MjYuNSIgeTE9IjQxMy45OTIyIiB5Mj0iNDQ4Ljk5MjIiLz48cG9seWdvbiBmaWxsPSIjMTgxODE4IiBwb2ludHM9IjQyMi41LDQzOC45OTIyLDQyNi41LDQ0OC45OTIyLDQzMC41LDQzOC45OTIyLDQyNi41LDQ0Mi45OTIyIiBzdHlsZT0ic3Ryb2tlOiMxODE4MTg7c3Ryb2tlLXdpZHRoOjEuMDsiLz48bGluZSBzdHlsZT0ic3Ryb2tlOiMxODE4MTg7c3Ryb2tlLXdpZHRoOjEuMDsiIHgxPSI0NDMuMjUiIHgyPSI0MjYuNSIgeTE9IjIyMy40NjA5IiB5Mj0iMjIzLjQ2MDkiLz48bGluZSBzdHlsZT0ic3Ryb2tlOiMxODE4MTg7c3Ryb2tlLXdpZHRoOjEuMDsiIHgxPSI0MjYuNSIgeDI9IjQyNi41IiB5MT0iMjIzLjQ2MDkiIHkyPSIyNDUuNDYwOSIvPjxwb2x5Z29uIGZpbGw9IiMxODE4MTgiIHBvaW50cz0iNDIyLjUsMjM1LjQ2MDksNDI2LjUsMjQ1LjQ2MDksNDMwLjUsMjM1LjQ2MDksNDI2LjUsMjM5LjQ2MDkiIHN0eWxlPSJzdHJva2U6IzE4MTgxODtzdHJva2Utd2lkdGg6MS4wOyIvPjxsaW5lIHN0eWxlPSJzdHJva2U6IzE4MTgxODtzdHJva2Utd2lkdGg6MS4wOyIgeDE9IjU4Ny4yNSIgeDI9IjYwNCIgeTE9IjIyMy40NjA5IiB5Mj0iMjIzLjQ2MDkiLz48bGluZSBzdHlsZT0ic3Ryb2tlOiMxODE4MTg7c3Ryb2tlLXdpZHRoOjEuMDsiIHgxPSI2MDQiIHgyPSI2MDQiIHkxPSIyMjMuNDYwOSIgeTI9IjI0NS40NjA5Ii8+PHBvbHlnb24gZmlsbD0iIzE4MTgxOCIgcG9pbnRzPSI2MDAsMjM1LjQ2MDksNjA0LDI0NS40NjA5LDYwOCwyMzUuNDYwOSw2MDQsMjM5LjQ2MDkiIHN0eWxlPSJzdHJva2U6IzE4MTgxODtzdHJva2Utd2lkdGg6MS4wOyIvPjxsaW5lIHN0eWxlPSJzdHJva2U6IzE4MTgxODtzdHJva2Utd2lkdGg6MS4wOyIgeDE9IjQyNi41IiB4Mj0iNDI2LjUiIHkxPSI0ODEuODM1OSIgeTI9IjQ5OS44MzU5Ii8+PGxpbmUgc3R5bGU9InN0cm9rZTojMTgxODE4O3N0cm9rZS13aWR0aDoxLjA7IiB4MT0iNDI2LjUiIHgyPSI1MDMuMjUiIHkxPSI0OTkuODM1OSIgeTI9IjQ5OS44MzU5Ii8+PHBvbHlnb24gZmlsbD0iIzE4MTgxOCIgcG9pbnRzPSI0OTMuMjUsNDk1LjgzNTksNTAzLjI1LDQ5OS44MzU5LDQ5My4yNSw1MDMuODM1OSw0OTcuMjUsNDk5LjgzNTkiIHN0eWxlPSJzdHJva2U6IzE4MTgxODtzdHJva2Utd2lkdGg6MS4wOyIvPjxsaW5lIHN0eWxlPSJzdHJva2U6IzE4MTgxODtzdHJva2Utd2lkdGg6MS4wOyIgeDE9IjYwNCIgeDI9IjYwNCIgeTE9IjI3OC4zMDQ3IiB5Mj0iNDk5LjgzNTkiLz48bGluZSBzdHlsZT0ic3Ryb2tlOiMxODE4MTg7c3Ryb2tlLXdpZHRoOjEuMDsiIHgxPSI2MDQiIHgyPSI1MjcuMjUiIHkxPSI0OTkuODM1OSIgeTI9IjQ5OS44MzU5Ii8+PHBvbHlnb24gZmlsbD0iIzE4MTgxOCIgcG9pbnRzPSI1MzcuMjUsNDk1LjgzNTksNTI3LjI1LDQ5OS44MzU5LDUzNy4yNSw1MDMuODM1OSw1MzMuMjUsNDk5LjgzNTkiIHN0eWxlPSJzdHJva2U6IzE4MTgxODtzdHJva2Utd2lkdGg6MS4wOyIvPjxsaW5lIHN0eWxlPSJzdHJva2U6IzE4MTgxODtzdHJva2Utd2lkdGg6MS4wOyIgeDE9IjUxNS4yNSIgeDI9IjUxNS4yNSIgeTE9IjE5MS40NjA5IiB5Mj0iMjExLjQ2MDkiLz48cG9seWdvbiBmaWxsPSIjMTgxODE4IiBwb2ludHM9IjUxMS4yNSwyMDEuNDYwOSw1MTUuMjUsMjExLjQ2MDksNTE5LjI1LDIwMS40NjA5LDUxNS4yNSwyMDUuNDYwOSIgc3R5bGU9InN0cm9rZTojMTgxODE4O3N0cm9rZS13aWR0aDoxLjA7Ii8+PGxpbmUgc3R5bGU9InN0cm9rZTojMTgxODE4O3N0cm9rZS13aWR0aDoxLjA7IiB4MT0iOTM0LjUiIHgyPSI5MzQuNSIgeTE9IjI3OC4zMDQ3IiB5Mj0iMzEzLjMwNDciLz48cG9seWdvbiBmaWxsPSIjMTgxODE4IiBwb2ludHM9IjkzMC41LDMwMy4zMDQ3LDkzNC41LDMxMy4zMDQ3LDkzOC41LDMwMy4zMDQ3LDkzNC41LDMwNy4zMDQ3IiBzdHlsZT0ic3Ryb2tlOiMxODE4MTg7c3Ryb2tlLXdpZHRoOjEuMDsiLz48bGluZSBzdHlsZT0ic3Ryb2tlOiMxODE4MTg7c3Ryb2tlLXdpZHRoOjEuMDsiIHgxPSI5MzQuNSIgeDI9IjkzNC41IiB5MT0iMzQ2LjE0ODQiIHkyPSIzODEuMTQ4NCIvPjxwb2x5Z29uIGZpbGw9IiMxODE4MTgiIHBvaW50cz0iOTMwLjUsMzcxLjE0ODQsOTM0LjUsMzgxLjE0ODQsOTM4LjUsMzcxLjE0ODQsOTM0LjUsMzc1LjE0ODQiIHN0eWxlPSJzdHJva2U6IzE4MTgxODtzdHJva2Utd2lkdGg6MS4wOyIvPjxsaW5lIHN0eWxlPSJzdHJva2U6IzE4MTgxODtzdHJva2Utd2lkdGg6MS4wOyIgeDE9Ijg1Ni41IiB4Mj0iODMyLjUiIHkxPSI0NjAuOTkyMiIgeTI9IjQ2MC45OTIyIi8+PGxpbmUgc3R5bGU9InN0cm9rZTojMTgxODE4O3N0cm9rZS13aWR0aDoxLjA7IiB4MT0iODMyLjUiIHgyPSI4MzIuNSIgeTE9IjQ2MC45OTIyIiB5Mj0iNDgyLjk5MjIiLz48cG9seWdvbiBmaWxsPSIjMTgxODE4IiBwb2ludHM9IjgyOC41LDQ3Mi45OTIyLDgzMi41LDQ4Mi45OTIyLDgzNi41LDQ3Mi45OTIyLDgzMi41LDQ3Ni45OTIyIiBzdHlsZT0ic3Ryb2tlOiMxODE4MTg7c3Ryb2tlLXdpZHRoOjEuMDsiLz48bGluZSBzdHlsZT0ic3Ryb2tlOiMxODE4MTg7c3Ryb2tlLXdpZHRoOjEuMDsiIHgxPSIxMDEyLjUiIHgyPSIxMDM2LjUiIHkxPSI0NjAuOTkyMiIgeTI9IjQ2MC45OTIyIi8+PGxpbmUgc3R5bGU9InN0cm9rZTojMTgxODE4O3N0cm9rZS13aWR0aDoxLjA7IiB4MT0iMTAzNi41IiB4Mj0iMTAzNi41IiB5MT0iNDYwLjk5MjIiIHkyPSI0ODIuOTkyMiIvPjxwb2x5Z29uIGZpbGw9IiMxODE4MTgiIHBvaW50cz0iMTAzMi41LDQ3Mi45OTIyLDEwMzYuNSw0ODIuOTkyMiwxMDQwLjUsNDcyLjk5MjIsMTAzNi41LDQ3Ni45OTIyIiBzdHlsZT0ic3Ryb2tlOiMxODE4MTg7c3Ryb2tlLXdpZHRoOjEuMDsiLz48bGluZSBzdHlsZT0ic3Ryb2tlOiMxODE4MTg7c3Ryb2tlLXdpZHRoOjEuMDsiIHgxPSI4MzIuNSIgeDI9IjgzMi41IiB5MT0iNTE1LjgzNTkiIHkyPSI1MzMuODM1OSIvPjxsaW5lIHN0eWxlPSJzdHJva2U6IzE4MTgxODtzdHJva2Utd2lkdGg6MS4wOyIgeDE9IjgzMi41IiB4Mj0iOTIyLjUiIHkxPSI1MzMuODM1OSIgeTI9IjUzMy44MzU5Ii8+PHBvbHlnb24gZmlsbD0iIzE4MTgxOCIgcG9pbnRzPSI5MTIuNSw1MjkuODM1OSw5MjIuNSw1MzMuODM1OSw5MTIuNSw1MzcuODM1OSw5MTYuNSw1MzMuODM1OSIgc3R5bGU9InN0cm9rZTojMTgxODE4O3N0cm9rZS13aWR0aDoxLjA7Ii8+PGxpbmUgc3R5bGU9InN0cm9rZTojMTgxODE4O3N0cm9rZS13aWR0aDoxLjA7IiB4MT0iMTAzNi41IiB4Mj0iMTAzNi41IiB5MT0iNTE1LjgzNTkiIHkyPSI1MzMuODM1OSIvPjxsaW5lIHN0eWxlPSJzdHJva2U6IzE4MTgxODtzdHJva2Utd2lkdGg6MS4wOyIgeDE9IjEwMzYuNSIgeDI9Ijk0Ni41IiB5MT0iNTMzLjgzNTkiIHkyPSI1MzMuODM1OSIvPjxwb2x5Z29uIGZpbGw9IiMxODE4MTgiIHBvaW50cz0iOTU2LjUsNTI5LjgzNTksOTQ2LjUsNTMzLjgzNTksOTU2LjUsNTM3LjgzNTksOTUyLjUsNTMzLjgzNTkiIHN0eWxlPSJzdHJva2U6IzE4MTgxODtzdHJva2Utd2lkdGg6MS4wOyIvPjxsaW5lIHN0eWxlPSJzdHJva2U6IzE4MTgxODtzdHJva2Utd2lkdGg6MS4wOyIgeDE9IjkzNC41IiB4Mj0iOTM0LjUiIHkxPSI0MTMuOTkyMiIgeTI9IjQ0OC45OTIyIi8+PHBvbHlnb24gZmlsbD0iIzE4MTgxOCIgcG9pbnRzPSI5MzAuNSw0MzguOTkyMiw5MzQuNSw0NDguOTkyMiw5MzguNSw0MzguOTkyMiw5MzQuNSw0NDIuOTkyMiIgc3R5bGU9InN0cm9rZTojMTgxODE4O3N0cm9rZS13aWR0aDoxLjA7Ii8+PGxpbmUgc3R5bGU9InN0cm9rZTojMTgxODE4O3N0cm9rZS13aWR0aDoxLjA7IiB4MT0iMTAxMi4yNSIgeDI9IjkzNC41IiB5MT0iMjIzLjQ2MDkiIHkyPSIyMjMuNDYwOSIvPjxsaW5lIHN0eWxlPSJzdHJva2U6IzE4MTgxODtzdHJva2Utd2lkdGg6MS4wOyIgeDE9IjkzNC41IiB4Mj0iOTM0LjUiIHkxPSIyMjMuNDYwOSIgeTI9IjI0NS40NjA5Ii8+PHBvbHlnb24gZmlsbD0iIzE4MTgxOCIgcG9pbnRzPSI5MzAuNSwyMzUuNDYwOSw5MzQuNSwyNDUuNDYwOSw5MzguNSwyMzUuNDYwOSw5MzQuNSwyMzkuNDYwOSIgc3R5bGU9InN0cm9rZTojMTgxODE4O3N0cm9rZS13aWR0aDoxLjA7Ii8+PGxpbmUgc3R5bGU9InN0cm9rZTojMTgxODE4O3N0cm9rZS13aWR0aDoxLjA7IiB4MT0iMTE1Ni4yNSIgeDI9IjEyMzQiIHkxPSIyMjMuNDYwOSIgeTI9IjIyMy40NjA5Ii8+PGxpbmUgc3R5bGU9InN0cm9rZTojMTgxODE4O3N0cm9rZS13aWR0aDoxLjA7IiB4MT0iMTIzNCIgeDI9IjEyMzQiIHkxPSIyMjMuNDYwOSIgeTI9IjI0NS40NjA5Ii8+PHBvbHlnb24gZmlsbD0iIzE4MTgxOCIgcG9pbnRzPSIxMjMwLDIzNS40NjA5LDEyMzQsMjQ1LjQ2MDksMTIzOCwyMzUuNDYwOSwxMjM0LDIzOS40NjA5IiBzdHlsZT0ic3Ryb2tlOiMxODE4MTg7c3Ryb2tlLXdpZHRoOjEuMDsiLz48bGluZSBzdHlsZT0ic3Ryb2tlOiMxODE4MTg7c3Ryb2tlLXdpZHRoOjEuMDsiIHgxPSI5MzQuNSIgeDI9IjkzNC41IiB5MT0iNTQ1LjgzNTkiIHkyPSI1NjMuODM1OSIvPjxsaW5lIHN0eWxlPSJzdHJva2U6IzE4MTgxODtzdHJva2Utd2lkdGg6MS4wOyIgeDE9IjkzNC41IiB4Mj0iMTA3Mi4yNSIgeTE9IjU2My44MzU5IiB5Mj0iNTYzLjgzNTkiLz48cG9seWdvbiBmaWxsPSIjMTgxODE4IiBwb2ludHM9IjEwNjIuMjUsNTU5LjgzNTksMTA3Mi4yNSw1NjMuODM1OSwxMDYyLjI1LDU2Ny44MzU5LDEwNjYuMjUsNTYzLjgzNTkiIHN0eWxlPSJzdHJva2U6IzE4MTgxODtzdHJva2Utd2lkdGg6MS4wOyIvPjxsaW5lIHN0eWxlPSJzdHJva2U6IzE4MTgxODtzdHJva2Utd2lkdGg6MS4wOyIgeDE9IjEyMzQiIHgyPSIxMjM0IiB5MT0iMjc4LjMwNDciIHkyPSI1NjMuODM1OSIvPjxsaW5lIHN0eWxlPSJzdHJva2U6IzE4MTgxODtzdHJva2Utd2lkdGg6MS4wOyIgeDE9IjEyMzQiIHgyPSIxMDk2LjI1IiB5MT0iNTYzLjgzNTkiIHkyPSI1NjMuODM1OSIvPjxwb2x5Z29uIGZpbGw9IiMxODE4MTgiIHBvaW50cz0iMTEwNi4yNSw1NTkuODM1OSwxMDk2LjI1LDU2My44MzU5LDExMDYuMjUsNTY3LjgzNTksMTEwMi4yNSw1NjMuODM1OSIgc3R5bGU9InN0cm9rZTojMTgxODE4O3N0cm9rZS13aWR0aDoxLjA7Ii8+PGxpbmUgc3R5bGU9InN0cm9rZTojMTgxODE4O3N0cm9rZS13aWR0aDoxLjA7IiB4MT0iMTA4NC4yNSIgeDI9IjEwODQuMjUiIHkxPSIxOTEuNDYwOSIgeTI9IjIxMS40NjA5Ii8+PHBvbHlnb24gZmlsbD0iIzE4MTgxOCIgcG9pbnRzPSIxMDgwLjI1LDIwMS40NjA5LDEwODQuMjUsMjExLjQ2MDksMTA4OC4yNSwyMDEuNDYwOSwxMDg0LjI1LDIwNS40NjA5IiBzdHlsZT0ic3Ryb2tlOiMxODE4MTg7c3Ryb2tlLXdpZHRoOjEuMDsiLz48bGluZSBzdHlsZT0ic3Ryb2tlOiMxODE4MTg7c3Ryb2tlLXdpZHRoOjEuMDsiIHgxPSIxMzkyIiB4Mj0iMTM5MiIgeTE9IjMwNS40MTgiIHkyPSIzNDAuNDE4Ii8+PHBvbHlnb24gZmlsbD0iIzE4MTgxOCIgcG9pbnRzPSIxMzg4LDMzMC40MTgsMTM5MiwzNDAuNDE4LDEzOTYsMzMwLjQxOCwxMzkyLDMzNC40MTgiIHN0eWxlPSJzdHJva2U6IzE4MTgxODtzdHJva2Utd2lkdGg6MS4wOyIvPjxsaW5lIHN0eWxlPSJzdHJva2U6IzE4MTgxODtzdHJva2Utd2lkdGg6MS4wOyIgeDE9IjEzOTIiIHgyPSIxMzkyIiB5MT0iMzczLjI2MTciIHkyPSI0MDguMjYxNyIvPjxwb2x5Z29uIGZpbGw9IiMxODE4MTgiIHBvaW50cz0iMTM4OCwzOTguMjYxNywxMzkyLDQwOC4yNjE3LDEzOTYsMzk4LjI2MTcsMTM5Miw0MDIuMjYxNyIgc3R5bGU9InN0cm9rZTojMTgxODE4O3N0cm9rZS13aWR0aDoxLjA7Ii8+PGxpbmUgc3R5bGU9InN0cm9rZTojMTgxODE4O3N0cm9rZS13aWR0aDoxLjA7IiB4MT0iMTcxLjc1IiB4Mj0iMTcxLjc1IiB5MT0iMTI2Ljg0MzgiIHkyPSIxNTguNjE3MiIvPjxwb2x5Z29uIGZpbGw9IiMxODE4MTgiIHBvaW50cz0iMTY3Ljc1LDE0OC42MTcyLDE3MS43NSwxNTguNjE3MiwxNzUuNzUsMTQ4LjYxNzIsMTcxLjc1LDE1Mi42MTcyIiBzdHlsZT0ic3Ryb2tlOiMxODE4MTg7c3Ryb2tlLXdpZHRoOjEuMDsiLz48bGluZSBzdHlsZT0ic3Ryb2tlOiMxODE4MTg7c3Ryb2tlLXdpZHRoOjEuMDsiIHgxPSIxNzEuNzUiIHgyPSIxNzEuNzUiIHkxPSI1MTEuODM1OSIgeTI9IjU5NS44MzU5Ii8+PHBvbHlnb24gZmlsbD0iIzE4MTgxOCIgcG9pbnRzPSIxNjcuNzUsNTg1LjgzNTksMTcxLjc1LDU5NS44MzU5LDE3NS43NSw1ODUuODM1OSwxNzEuNzUsNTg5LjgzNTkiIHN0eWxlPSJzdHJva2U6IzE4MTgxODtzdHJva2Utd2lkdGg6MS4wOyIvPjxsaW5lIHN0eWxlPSJzdHJva2U6IzE4MTgxODtzdHJva2Utd2lkdGg6MS4wOyIgeDE9IjUxNS4yNSIgeDI9IjUxNS4yNSIgeTE9IjEyNi44NDM4IiB5Mj0iMTU4LjYxNzIiLz48cG9seWdvbiBmaWxsPSIjMTgxODE4IiBwb2ludHM9IjUxMS4yNSwxNDguNjE3Miw1MTUuMjUsMTU4LjYxNzIsNTE5LjI1LDE0OC42MTcyLDUxNS4yNSwxNTIuNjE3MiIgc3R5bGU9InN0cm9rZTojMTgxODE4O3N0cm9rZS13aWR0aDoxLjA7Ii8+PGxpbmUgc3R5bGU9InN0cm9rZTojMTgxODE4O3N0cm9rZS13aWR0aDoxLjA7IiB4MT0iNTE1LjI1IiB4Mj0iNTE1LjI1IiB5MT0iNTExLjgzNTkiIHkyPSI1OTUuODM1OSIvPjxwb2x5Z29uIGZpbGw9IiMxODE4MTgiIHBvaW50cz0iNTExLjI1LDU4NS44MzU5LDUxNS4yNSw1OTUuODM1OSw1MTkuMjUsNTg1LjgzNTksNTE1LjI1LDU4OS44MzU5IiBzdHlsZT0ic3Ryb2tlOiMxODE4MTg7c3Ryb2tlLXdpZHRoOjEuMDsiLz48bGluZSBzdHlsZT0ic3Ryb2tlOiMxODE4MTg7c3Ryb2tlLXdpZHRoOjEuMDsiIHgxPSIxMDg0LjI1IiB4Mj0iMTA4NC4yNSIgeTE9IjEyNi44NDM4IiB5Mj0iMTU4LjYxNzIiLz48cG9seWdvbiBmaWxsPSIjMTgxODE4IiBwb2ludHM9IjEwODAuMjUsMTQ4LjYxNzIsMTA4NC4yNSwxNTguNjE3MiwxMDg4LjI1LDE0OC42MTcyLDEwODQuMjUsMTUyLjYxNzIiIHN0eWxlPSJzdHJva2U6IzE4MTgxODtzdHJva2Utd2lkdGg6MS4wOyIvPjxsaW5lIHN0eWxlPSJzdHJva2U6IzE4MTgxODtzdHJva2Utd2lkdGg6MS4wOyIgeDE9IjEwODQuMjUiIHgyPSIxMDg0LjI1IiB5MT0iNTc1LjgzNTkiIHkyPSI1OTUuODM1OSIvPjxwb2x5Z29uIGZpbGw9IiMxODE4MTgiIHBvaW50cz0iMTA4MC4yNSw1ODUuODM1OSwxMDg0LjI1LDU5NS44MzU5LDEwODguMjUsNTg1LjgzNTksMTA4NC4yNSw1ODkuODM1OSIgc3R5bGU9InN0cm9rZTojMTgxODE4O3N0cm9rZS13aWR0aDoxLjA7Ii8+PGxpbmUgc3R5bGU9InN0cm9rZTojMTgxODE4O3N0cm9rZS13aWR0aDoxLjA7IiB4MT0iMjMxLjc1IiB4Mj0iNDU1LjI1IiB5MT0iMTE0Ljg0MzgiIHkyPSIxMTQuODQzOCIvPjxwb2x5Z29uIGZpbGw9IiMxODE4MTgiIHBvaW50cz0iNDQ1LjI1LDExMC44NDM4LDQ1NS4yNSwxMTQuODQzOCw0NDUuMjUsMTE4Ljg0MzgsNDQ5LjI1LDExNC44NDM4IiBzdHlsZT0ic3Ryb2tlOiMxODE4MTg7c3Ryb2tlLXdpZHRoOjEuMDsiLz48bGluZSBzdHlsZT0ic3Ryb2tlOiMxODE4MTg7c3Ryb2tlLXdpZHRoOjEuMDsiIHgxPSI1NzUuMjUiIHgyPSIxMDMwLjI1IiB5MT0iMTE0Ljg0MzgiIHkyPSIxMTQuODQzOCIvPjxwb2x5Z29uIGZpbGw9IiMxODE4MTgiIHBvaW50cz0iMTAyMC4yNSwxMTAuODQzOCwxMDMwLjI1LDExNC44NDM4LDEwMjAuMjUsMTE4Ljg0MzgsMTAyNC4yNSwxMTQuODQzOCIgc3R5bGU9InN0cm9rZTojMTgxODE4O3N0cm9rZS13aWR0aDoxLjA7Ii8+PGxpbmUgc3R5bGU9InN0cm9rZTojMTgxODE4O3N0cm9rZS13aWR0aDoxLjA7IiB4MT0iNzI1IiB4Mj0iNzI1IiB5MT0iODIuODQzOCIgeTI9Ijg3Ljg0MzgiLz48bGluZSBzdHlsZT0ic3Ryb2tlOiMxODE4MTg7c3Ryb2tlLXdpZHRoOjEuMDsiIHgxPSI3MjUiIHgyPSIxNzEuNzUiIHkxPSI4Ny44NDM4IiB5Mj0iODcuODQzOCIvPjxsaW5lIHN0eWxlPSJzdHJva2U6IzE4MTgxODtzdHJva2Utd2lkdGg6MS4wOyIgeDE9IjE3MS43NSIgeDI9IjE3MS43NSIgeTE9Ijg3Ljg0MzgiIHkyPSIxMDIuODQzOCIvPjxwb2x5Z29uIGZpbGw9IiMxODE4MTgiIHBvaW50cz0iMTY3Ljc1LDkyLjg0MzgsMTcxLjc1LDEwMi44NDM4LDE3NS43NSw5Mi44NDM4LDE3MS43NSw5Ni44NDM4IiBzdHlsZT0ic3Ryb2tlOiMxODE4MTg7c3Ryb2tlLXdpZHRoOjEuMDsiLz48bGluZSBzdHlsZT0ic3Ryb2tlOiMxODE4MTg7c3Ryb2tlLXdpZHRoOjEuMDsiIHgxPSIxMTM4LjI1IiB4Mj0iMTM5MiIgeTE9IjExNC44NDM4IiB5Mj0iMTE0Ljg0MzgiLz48bGluZSBzdHlsZT0ic3Ryb2tlOiMxODE4MTg7c3Ryb2tlLXdpZHRoOjEuMDsiIHgxPSIxMzkyIiB4Mj0iMTM5MiIgeTE9IjExNC44NDM4IiB5Mj0iMjcyLjU3NDIiLz48cG9seWdvbiBmaWxsPSIjMTgxODE4IiBwb2ludHM9IjEzODgsMjYyLjU3NDIsMTM5MiwyNzIuNTc0MiwxMzk2LDI2Mi41NzQyLDEzOTIsMjY2LjU3NDIiIHN0eWxlPSJzdHJva2U6IzE4MTgxODtzdHJva2Utd2lkdGg6MS4wOyIvPjxsaW5lIHN0eWxlPSJzdHJva2U6IzE4MTgxODtzdHJva2Utd2lkdGg6MS4wOyIgeDE9IjEzOTIiIHgyPSIxMzkyIiB5MT0iNDQxLjEwNTUiIHkyPSI1OTUuODM1OSIvPjxwb2x5Z29uIGZpbGw9IiMxODE4MTgiIHBvaW50cz0iMTM4OCw1ODUuODM1OSwxMzkyLDU5NS44MzU5LDEzOTYsNTg1LjgzNTksMTM5Miw1ODkuODM1OSIgc3R5bGU9InN0cm9rZTojMTgxODE4O3N0cm9rZS13aWR0aDoxLjA7Ii8+PGxpbmUgc3R5bGU9InN0cm9rZTojMTgxODE4O3N0cm9rZS13aWR0aDoxLjA7IiB4MT0iMTcxLjc1IiB4Mj0iMTM5MiIgeTE9IjU5NS44MzU5IiB5Mj0iNTk1LjgzNTkiLz48bGluZSBzdHlsZT0ic3Ryb2tlOiMxODE4MTg7c3Ryb2tlLXdpZHRoOjEuMDsiIHgxPSI3MjUiIHgyPSI3MjUiIHkxPSI1OTUuODM1OSIgeTI9IjYxNS44MzU5Ii8+PHBvbHlnb24gZmlsbD0iIzE4MTgxOCIgcG9pbnRzPSI3MjEsNjA1LjgzNTksNzI1LDYxNS44MzU5LDcyOSw2MDUuODM1OSw3MjUsNjA5LjgzNTkiIHN0eWxlPSJzdHJva2U6IzE4MTgxODtzdHJva2Utd2lkdGg6MS4wOyIvPjwhLS1TUkM9W3BQNTFKeUNtMzhObF9ISy1UZHpYRXcyZmNuMEk5b1BuM3dkUkhLaGpwNHVzeFQtSmowRHJYSEQyV2tqcF85d181dXI2T2JNamNvRXA4ZFprN0c2N3c5V3NiVWtXVlh1TGV0MjhnS01BQXVYNzlBWWxnQWlBT0JzZFkwOTlLU1dDMjhQUTI0UnJtajlreWhuT0Q4OWJxbmNsTzVhNFJObk9zNklaQUtZSmpRWlE5Ui1QdjVVNzV5MXB0alVSU2EwWnpkWWxsTTNsajFwSWlTbWN3M0RKSk5vQnMzYUR0Ym0xSFZBcDhVVU83aVR0ckJna0FnX2xhMWxzN2RseTdqYkVHdFpRX0hOcThScURCYXVRMjl1SVFsbTV3Y3F4RUZnTnRybkl6ZERRMjhNMS1neXZzTTBSV2wwUDhLRXRRQnFaZDlVcWgyYWxEOW9sZnVIbXBpVGFyeGxpZ1FvVmIwbHJPbWFUUV9vQ28zdHQ3d1NpdVBWZWFyTWJhU0N4XS0tPjwvZz48L3N2Zz4=;" vertex="1" parent="WIyWlLk6GJQsqaUBKTNV-1">
            <mxGeometry x="-320" y="-30" width="1470" height="648" as="geometry" />
          </mxCell>
        </UserObject>
        <UserObject label="" plantUmlData="{&#xa;  &quot;data&quot;: &quot;@startuml\n\nstart\n\n:Choose login or signup option;\nif (Login as Student) then (yes)\n  :Enter username and password;\n  if (Credentials correct?) then (yes)\n    :Login successful;\n    :View events;\n    :Search events;\n    :Register for events;\n  else (no)\n    :Display error message;\n  endif\nelseif (Login as College) then (yes)\n  :Enter college ID and password;\n  if (Credentials correct?) then (yes)\n    :Login successful;\n    :View events;\n    :Search events;\n    :Submit event request;\n  else (no)\n    :Display error message;\n  endif\nelseif (Login as Admin) then (yes)\n  :Enter username and password;\n  if (Credentials correct?) then (yes)\n    :Login successful;\n    :View events;\n    :Search events;\n    if (Event request pending?) then (yes)\n      :Approve or decline request;\n    else (no)\n      :Continue viewing events;\n    endif\n  else (no)\n    :Display error message;\n  endif\nelseif (Signup as Student) then (yes)\n  :Provide username and password;\n  :Create student account;\n  :Redirect to student login page;\nelseif (Signup as College) then (yes)\n  :Provide college ID and password;\n  :Create college account;\n  :Redirect to college login page;\nelse (Guest)\n  :Continue as guest;\n  :View events;\n  :Search events;\nendif\n\nstop\n\n@enduml\n\n&quot;,&#xa;  &quot;format&quot;: &quot;svg&quot;&#xa;}" id="Ujrtwh-Fv8kipslyC4hR-5">
          <mxCell style="shape=image;noLabel=1;verticalAlign=top;aspect=fixed;imageAspect=0;image=data:image/svg+xml,PD94bWwgdmVyc2lvbj0iMS4wIiBlbmNvZGluZz0idXMtYXNjaWkiIHN0YW5kYWxvbmU9Im5vIj8+PHN2ZyB4bWxucz0iaHR0cDovL3d3dy53My5vcmcvMjAwMC9zdmciIHhtbG5zOnhsaW5rPSJodHRwOi8vd3d3LnczLm9yZy8xOTk5L3hsaW5rIiBjb250ZW50U3R5bGVUeXBlPSJ0ZXh0L2NzcyIgaGVpZ2h0PSI2NDhweCIgcHJlc2VydmVBc3BlY3RSYXRpbz0ibm9uZSIgc3R5bGU9IndpZHRoOjE4OTVweDtoZWlnaHQ6NjQ4cHg7YmFja2dyb3VuZDojRkZGRkZGOyIgdmVyc2lvbj0iMS4xIiB2aWV3Qm94PSIwIDAgMTg5NSA2NDgiIHdpZHRoPSIxODk1cHgiIHpvb21BbmRQYW49Im1hZ25pZnkiPjxkZWZzLz48Zz48ZWxsaXBzZSBjeD0iOTI3LjUiIGN5PSIyMCIgZmlsbD0iIzIyMjIyMiIgcng9IjEwIiByeT0iMTAiIHN0eWxlPSJzdHJva2U6IzIyMjIyMjtzdHJva2Utd2lkdGg6MS4wOyIvPjxyZWN0IGZpbGw9IiNGMUYxRjEiIGhlaWdodD0iMzIuODQzOCIgcng9IjEyLjUiIHJ5PSIxMi41IiBzdHlsZT0ic3Ryb2tlOiMxODE4MTg7c3Ryb2tlLXdpZHRoOjAuNTsiIHdpZHRoPSIyMTQiIHg9IjgyMC41IiB5PSI1MCIvPjx0ZXh0IGZpbGw9IiMwMDAwMDAiIGZvbnQtZmFtaWx5PSJzYW5zLXNlcmlmIiBmb250LXNpemU9IjEyIiBsZW5ndGhBZGp1c3Q9InNwYWNpbmciIHRleHRMZW5ndGg9IjE5NCIgeD0iODMwLjUiIHk9IjcxLjM0MzgiPkNob29zZSBsb2dpbiBvciBzaWdudXAgb3B0aW9uPC90ZXh0Pjxwb2x5Z29uIGZpbGw9IiNGMUYxRjEiIHBvaW50cz0iMTIzLjc1LDEwMi44NDM4LDIxOS43NSwxMDIuODQzOCwyMzEuNzUsMTE0Ljg0MzgsMjE5Ljc1LDEyNi44NDM4LDEyMy43NSwxMjYuODQzOCwxMTEuNzUsMTE0Ljg0MzgsMTIzLjc1LDEwMi44NDM4IiBzdHlsZT0ic3Ryb2tlOiMxODE4MTg7c3Ryb2tlLXdpZHRoOjAuNTsiLz48dGV4dCBmaWxsPSIjMDAwMDAwIiBmb250LWZhbWlseT0ic2Fucy1zZXJpZiIgZm9udC1zaXplPSIxMSIgbGVuZ3RoQWRqdXN0PSJzcGFjaW5nIiB0ZXh0TGVuZ3RoPSIxOCIgeD0iMTc1Ljc1IiB5PSIxMzcuMjQyMiI+eWVzPC90ZXh0Pjx0ZXh0IGZpbGw9IiMwMDAwMDAiIGZvbnQtZmFtaWx5PSJzYW5zLXNlcmlmIiBmb250LXNpemU9IjExIiBsZW5ndGhBZGp1c3Q9InNwYWNpbmciIHRleHRMZW5ndGg9Ijk2IiB4PSIxMjMuNzUiIHk9IjExOS4zNTU1Ij5Mb2dpbiBhcyBTdHVkZW50PC90ZXh0PjxyZWN0IGZpbGw9IiNGMUYxRjEiIGhlaWdodD0iMzIuODQzOCIgcng9IjEyLjUiIHJ5PSIxMi41IiBzdHlsZT0ic3Ryb2tlOiMxODE4MTg7c3Ryb2tlLXdpZHRoOjAuNTsiIHdpZHRoPSIyMDIiIHg9IjcwLjc1IiB5PSIxNTguNjE3MiIvPjx0ZXh0IGZpbGw9IiMwMDAwMDAiIGZvbnQtZmFtaWx5PSJzYW5zLXNlcmlmIiBmb250LXNpemU9IjEyIiBsZW5ndGhBZGp1c3Q9InNwYWNpbmciIHRleHRMZW5ndGg9IjE4MiIgeD0iODAuNzUiIHk9IjE3OS45NjA5Ij5FbnRlciB1c2VybmFtZSBhbmQgcGFzc3dvcmQ8L3RleHQ+PHBvbHlnb24gZmlsbD0iI0YxRjFGMSIgcG9pbnRzPSIxMTEuNzUsMjExLjQ2MDksMjMxLjc1LDIxMS40NjA5LDI0My43NSwyMjMuNDYwOSwyMzEuNzUsMjM1LjQ2MDksMTExLjc1LDIzNS40NjA5LDk5Ljc1LDIyMy40NjA5LDExMS43NSwyMTEuNDYwOSIgc3R5bGU9InN0cm9rZTojMTgxODE4O3N0cm9rZS13aWR0aDowLjU7Ii8+PHRleHQgZmlsbD0iIzAwMDAwMCIgZm9udC1mYW1pbHk9InNhbnMtc2VyaWYiIGZvbnQtc2l6ZT0iMTEiIGxlbmd0aEFkanVzdD0ic3BhY2luZyIgdGV4dExlbmd0aD0iMTIwIiB4PSIxMTEuNzUiIHk9IjIyNy45NzI3Ij5DcmVkZW50aWFscyBjb3JyZWN0PzwvdGV4dD48dGV4dCBmaWxsPSIjMDAwMDAwIiBmb250LWZhbWlseT0ic2Fucy1zZXJpZiIgZm9udC1zaXplPSIxMSIgbGVuZ3RoQWRqdXN0PSJzcGFjaW5nIiB0ZXh0TGVuZ3RoPSIxOCIgeD0iODEuNzUiIHk9IjIyMi4wODU5Ij55ZXM8L3RleHQ+PHRleHQgZmlsbD0iIzAwMDAwMCIgZm9udC1mYW1pbHk9InNhbnMtc2VyaWYiIGZvbnQtc2l6ZT0iMTEiIGxlbmd0aEFkanVzdD0ic3BhY2luZyIgdGV4dExlbmd0aD0iMTIiIHg9IjI0My43NSIgeT0iMjIyLjA4NTkiPm5vPC90ZXh0PjxyZWN0IGZpbGw9IiNGMUYxRjEiIGhlaWdodD0iMzIuODQzOCIgcng9IjEyLjUiIHJ5PSIxMi41IiBzdHlsZT0ic3Ryb2tlOiMxODE4MTg7c3Ryb2tlLXdpZHRoOjAuNTsiIHdpZHRoPSIxMjUiIHg9IjIyIiB5PSIyNDUuNDYwOSIvPjx0ZXh0IGZpbGw9IiMwMDAwMDAiIGZvbnQtZmFtaWx5PSJzYW5zLXNlcmlmIiBmb250LXNpemU9IjEyIiBsZW5ndGhBZGp1c3Q9InNwYWNpbmciIHRleHRMZW5ndGg9IjEwNSIgeD0iMzIiIHk9IjI2Ni44MDQ3Ij5Mb2dpbiBzdWNjZXNzZnVsPC90ZXh0PjxyZWN0IGZpbGw9IiNGMUYxRjEiIGhlaWdodD0iMzIuODQzOCIgcng9IjEyLjUiIHJ5PSIxMi41IiBzdHlsZT0ic3Ryb2tlOiMxODE4MTg7c3Ryb2tlLXdpZHRoOjAuNTsiIHdpZHRoPSI5MyIgeD0iMzgiIHk9IjMxMy4zMDQ3Ii8+PHRleHQgZmlsbD0iIzAwMDAwMCIgZm9udC1mYW1pbHk9InNhbnMtc2VyaWYiIGZvbnQtc2l6ZT0iMTIiIGxlbmd0aEFkanVzdD0ic3BhY2luZyIgdGV4dExlbmd0aD0iNzMiIHg9IjQ4IiB5PSIzMzQuNjQ4NCI+VmlldyBldmVudHM8L3RleHQ+PHJlY3QgZmlsbD0iI0YxRjFGMSIgaGVpZ2h0PSIzMi44NDM4IiByeD0iMTIuNSIgcnk9IjEyLjUiIHN0eWxlPSJzdHJva2U6IzE4MTgxODtzdHJva2Utd2lkdGg6MC41OyIgd2lkdGg9IjEwOCIgeD0iMzAuNSIgeT0iMzgxLjE0ODQiLz48dGV4dCBmaWxsPSIjMDAwMDAwIiBmb250LWZhbWlseT0ic2Fucy1zZXJpZiIgZm9udC1zaXplPSIxMiIgbGVuZ3RoQWRqdXN0PSJzcGFjaW5nIiB0ZXh0TGVuZ3RoPSI4OCIgeD0iNDAuNSIgeT0iNDAyLjQ5MjIiPlNlYXJjaCBldmVudHM8L3RleHQ+PHJlY3QgZmlsbD0iI0YxRjFGMSIgaGVpZ2h0PSIzMi44NDM4IiByeD0iMTIuNSIgcnk9IjEyLjUiIHN0eWxlPSJzdHJva2U6IzE4MTgxODtzdHJva2Utd2lkdGg6MC41OyIgd2lkdGg9IjE0NyIgeD0iMTEiIHk9IjQ0OC45OTIyIi8+PHRleHQgZmlsbD0iIzAwMDAwMCIgZm9udC1mYW1pbHk9InNhbnMtc2VyaWYiIGZvbnQtc2l6ZT0iMTIiIGxlbmd0aEFkanVzdD0ic3BhY2luZyIgdGV4dExlbmd0aD0iMTI3IiB4PSIyMSIgeT0iNDcwLjMzNTkiPlJlZ2lzdGVyIGZvciBldmVudHM8L3RleHQ+PHJlY3QgZmlsbD0iI0YxRjFGMSIgaGVpZ2h0PSIzMi44NDM4IiByeD0iMTIuNSIgcnk9IjEyLjUiIHN0eWxlPSJzdHJva2U6IzE4MTgxODtzdHJva2Utd2lkdGg6MC41OyIgd2lkdGg9IjE2MiIgeD0iMTc4IiB5PSIyNDUuNDYwOSIvPjx0ZXh0IGZpbGw9IiMwMDAwMDAiIGZvbnQtZmFtaWx5PSJzYW5zLXNlcmlmIiBmb250LXNpemU9IjEyIiBsZW5ndGhBZGp1c3Q9InNwYWNpbmciIHRleHRMZW5ndGg9IjE0MiIgeD0iMTg4IiB5PSIyNjYuODA0NyI+RGlzcGxheSBlcnJvciBtZXNzYWdlPC90ZXh0Pjxwb2x5Z29uIGZpbGw9IiNGMUYxRjEiIHBvaW50cz0iMTcxLjc1LDQ4Ny44MzU5LDE4My43NSw0OTkuODM1OSwxNzEuNzUsNTExLjgzNTksMTU5Ljc1LDQ5OS44MzU5LDE3MS43NSw0ODcuODM1OSIgc3R5bGU9InN0cm9rZTojMTgxODE4O3N0cm9rZS13aWR0aDowLjU7Ii8+PHBvbHlnb24gZmlsbD0iI0YxRjFGMSIgcG9pbnRzPSI0NjcuMjUsMTAyLjg0MzgsNTYzLjI1LDEwMi44NDM4LDU3NS4yNSwxMTQuODQzOCw1NjMuMjUsMTI2Ljg0MzgsNDY3LjI1LDEyNi44NDM4LDQ1NS4yNSwxMTQuODQzOCw0NjcuMjUsMTAyLjg0MzgiIHN0eWxlPSJzdHJva2U6IzE4MTgxODtzdHJva2Utd2lkdGg6MC41OyIvPjx0ZXh0IGZpbGw9IiMwMDAwMDAiIGZvbnQtZmFtaWx5PSJzYW5zLXNlcmlmIiBmb250LXNpemU9IjExIiBsZW5ndGhBZGp1c3Q9InNwYWNpbmciIHRleHRMZW5ndGg9IjE4IiB4PSI1MTkuMjUiIHk9IjEzNy4yNDIyIj55ZXM8L3RleHQ+PHRleHQgZmlsbD0iIzAwMDAwMCIgZm9udC1mYW1pbHk9InNhbnMtc2VyaWYiIGZvbnQtc2l6ZT0iMTEiIGxlbmd0aEFkanVzdD0ic3BhY2luZyIgdGV4dExlbmd0aD0iOTYiIHg9IjQ2Ny4yNSIgeT0iMTE5LjM1NTUiPkxvZ2luIGFzIENvbGxlZ2U8L3RleHQ+PHJlY3QgZmlsbD0iI0YxRjFGMSIgaGVpZ2h0PSIzMi44NDM4IiByeD0iMTIuNSIgcnk9IjEyLjUiIHN0eWxlPSJzdHJva2U6IzE4MTgxODtzdHJva2Utd2lkdGg6MC41OyIgd2lkdGg9IjIxMiIgeD0iNDA5LjI1IiB5PSIxNTguNjE3MiIvPjx0ZXh0IGZpbGw9IiMwMDAwMDAiIGZvbnQtZmFtaWx5PSJzYW5zLXNlcmlmIiBmb250LXNpemU9IjEyIiBsZW5ndGhBZGp1c3Q9InNwYWNpbmciIHRleHRMZW5ndGg9IjE5MiIgeD0iNDE5LjI1IiB5PSIxNzkuOTYwOSI+RW50ZXIgY29sbGVnZSBJRCBhbmQgcGFzc3dvcmQ8L3RleHQ+PHBvbHlnb24gZmlsbD0iI0YxRjFGMSIgcG9pbnRzPSI0NTUuMjUsMjExLjQ2MDksNTc1LjI1LDIxMS40NjA5LDU4Ny4yNSwyMjMuNDYwOSw1NzUuMjUsMjM1LjQ2MDksNDU1LjI1LDIzNS40NjA5LDQ0My4yNSwyMjMuNDYwOSw0NTUuMjUsMjExLjQ2MDkiIHN0eWxlPSJzdHJva2U6IzE4MTgxODtzdHJva2Utd2lkdGg6MC41OyIvPjx0ZXh0IGZpbGw9IiMwMDAwMDAiIGZvbnQtZmFtaWx5PSJzYW5zLXNlcmlmIiBmb250LXNpemU9IjExIiBsZW5ndGhBZGp1c3Q9InNwYWNpbmciIHRleHRMZW5ndGg9IjEyMCIgeD0iNDU1LjI1IiB5PSIyMjcuOTcyNyI+Q3JlZGVudGlhbHMgY29ycmVjdD88L3RleHQ+PHRleHQgZmlsbD0iIzAwMDAwMCIgZm9udC1mYW1pbHk9InNhbnMtc2VyaWYiIGZvbnQtc2l6ZT0iMTEiIGxlbmd0aEFkanVzdD0ic3BhY2luZyIgdGV4dExlbmd0aD0iMTgiIHg9IjQyNS4yNSIgeT0iMjIyLjA4NTkiPnllczwvdGV4dD48dGV4dCBmaWxsPSIjMDAwMDAwIiBmb250LWZhbWlseT0ic2Fucy1zZXJpZiIgZm9udC1zaXplPSIxMSIgbGVuZ3RoQWRqdXN0PSJzcGFjaW5nIiB0ZXh0TGVuZ3RoPSIxMiIgeD0iNTg3LjI1IiB5PSIyMjIuMDg1OSI+bm88L3RleHQ+PHJlY3QgZmlsbD0iI0YxRjFGMSIgaGVpZ2h0PSIzMi44NDM4IiByeD0iMTIuNSIgcnk9IjEyLjUiIHN0eWxlPSJzdHJva2U6IzE4MTgxODtzdHJva2Utd2lkdGg6MC41OyIgd2lkdGg9IjEyNSIgeD0iMzY0IiB5PSIyNDUuNDYwOSIvPjx0ZXh0IGZpbGw9IiMwMDAwMDAiIGZvbnQtZmFtaWx5PSJzYW5zLXNlcmlmIiBmb250LXNpemU9IjEyIiBsZW5ndGhBZGp1c3Q9InNwYWNpbmciIHRleHRMZW5ndGg9IjEwNSIgeD0iMzc0IiB5PSIyNjYuODA0NyI+TG9naW4gc3VjY2Vzc2Z1bDwvdGV4dD48cmVjdCBmaWxsPSIjRjFGMUYxIiBoZWlnaHQ9IjMyLjg0MzgiIHJ4PSIxMi41IiByeT0iMTIuNSIgc3R5bGU9InN0cm9rZTojMTgxODE4O3N0cm9rZS13aWR0aDowLjU7IiB3aWR0aD0iOTMiIHg9IjM4MCIgeT0iMzEzLjMwNDciLz48dGV4dCBmaWxsPSIjMDAwMDAwIiBmb250LWZhbWlseT0ic2Fucy1zZXJpZiIgZm9udC1zaXplPSIxMiIgbGVuZ3RoQWRqdXN0PSJzcGFjaW5nIiB0ZXh0TGVuZ3RoPSI3MyIgeD0iMzkwIiB5PSIzMzQuNjQ4NCI+VmlldyBldmVudHM8L3RleHQ+PHJlY3QgZmlsbD0iI0YxRjFGMSIgaGVpZ2h0PSIzMi44NDM4IiByeD0iMTIuNSIgcnk9IjEyLjUiIHN0eWxlPSJzdHJva2U6IzE4MTgxODtzdHJva2Utd2lkdGg6MC41OyIgd2lkdGg9IjEwOCIgeD0iMzcyLjUiIHk9IjM4MS4xNDg0Ii8+PHRleHQgZmlsbD0iIzAwMDAwMCIgZm9udC1mYW1pbHk9InNhbnMtc2VyaWYiIGZvbnQtc2l6ZT0iMTIiIGxlbmd0aEFkanVzdD0ic3BhY2luZyIgdGV4dExlbmd0aD0iODgiIHg9IjM4Mi41IiB5PSI0MDIuNDkyMiI+U2VhcmNoIGV2ZW50czwvdGV4dD48cmVjdCBmaWxsPSIjRjFGMUYxIiBoZWlnaHQ9IjMyLjg0MzgiIHJ4PSIxMi41IiByeT0iMTIuNSIgc3R5bGU9InN0cm9rZTojMTgxODE4O3N0cm9rZS13aWR0aDowLjU7IiB3aWR0aD0iMTUzIiB4PSIzNTAiIHk9IjQ0OC45OTIyIi8+PHRleHQgZmlsbD0iIzAwMDAwMCIgZm9udC1mYW1pbHk9InNhbnMtc2VyaWYiIGZvbnQtc2l6ZT0iMTIiIGxlbmd0aEFkanVzdD0ic3BhY2luZyIgdGV4dExlbmd0aD0iMTMzIiB4PSIzNjAiIHk9IjQ3MC4zMzU5Ij5TdWJtaXQgZXZlbnQgcmVxdWVzdDwvdGV4dD48cmVjdCBmaWxsPSIjRjFGMUYxIiBoZWlnaHQ9IjMyLjg0MzgiIHJ4PSIxMi41IiByeT0iMTIuNSIgc3R5bGU9InN0cm9rZTojMTgxODE4O3N0cm9rZS13aWR0aDowLjU7IiB3aWR0aD0iMTYyIiB4PSI1MjMiIHk9IjI0NS40NjA5Ii8+PHRleHQgZmlsbD0iIzAwMDAwMCIgZm9udC1mYW1pbHk9InNhbnMtc2VyaWYiIGZvbnQtc2l6ZT0iMTIiIGxlbmd0aEFkanVzdD0ic3BhY2luZyIgdGV4dExlbmd0aD0iMTQyIiB4PSI1MzMiIHk9IjI2Ni44MDQ3Ij5EaXNwbGF5IGVycm9yIG1lc3NhZ2U8L3RleHQ+PHBvbHlnb24gZmlsbD0iI0YxRjFGMSIgcG9pbnRzPSI1MTUuMjUsNDg3LjgzNTksNTI3LjI1LDQ5OS44MzU5LDUxNS4yNSw1MTEuODM1OSw1MDMuMjUsNDk5LjgzNTksNTE1LjI1LDQ4Ny44MzU5IiBzdHlsZT0ic3Ryb2tlOiMxODE4MTg7c3Ryb2tlLXdpZHRoOjAuNTsiLz48cG9seWdvbiBmaWxsPSIjRjFGMUYxIiBwb2ludHM9IjEwMDIuMjUsMTAyLjg0MzgsMTA4Ni4yNSwxMDIuODQzOCwxMDk4LjI1LDExNC44NDM4LDEwODYuMjUsMTI2Ljg0MzgsMTAwMi4yNSwxMjYuODQzOCw5OTAuMjUsMTE0Ljg0MzgsMTAwMi4yNSwxMDIuODQzOCIgc3R5bGU9InN0cm9rZTojMTgxODE4O3N0cm9rZS13aWR0aDowLjU7Ii8+PHRleHQgZmlsbD0iIzAwMDAwMCIgZm9udC1mYW1pbHk9InNhbnMtc2VyaWYiIGZvbnQtc2l6ZT0iMTEiIGxlbmd0aEFkanVzdD0ic3BhY2luZyIgdGV4dExlbmd0aD0iMTgiIHg9IjEwNDguMjUiIHk9IjEzNy4yNDIyIj55ZXM8L3RleHQ+PHRleHQgZmlsbD0iIzAwMDAwMCIgZm9udC1mYW1pbHk9InNhbnMtc2VyaWYiIGZvbnQtc2l6ZT0iMTEiIGxlbmd0aEFkanVzdD0ic3BhY2luZyIgdGV4dExlbmd0aD0iODQiIHg9IjEwMDIuMjUiIHk9IjExOS4zNTU1Ij5Mb2dpbiBhcyBBZG1pbjwvdGV4dD48cmVjdCBmaWxsPSIjRjFGMUYxIiBoZWlnaHQ9IjMyLjg0MzgiIHJ4PSIxMi41IiByeT0iMTIuNSIgc3R5bGU9InN0cm9rZTojMTgxODE4O3N0cm9rZS13aWR0aDowLjU7IiB3aWR0aD0iMjAyIiB4PSI5NDMuMjUiIHk9IjE1OC42MTcyIi8+PHRleHQgZmlsbD0iIzAwMDAwMCIgZm9udC1mYW1pbHk9InNhbnMtc2VyaWYiIGZvbnQtc2l6ZT0iMTIiIGxlbmd0aEFkanVzdD0ic3BhY2luZyIgdGV4dExlbmd0aD0iMTgyIiB4PSI5NTMuMjUiIHk9IjE3OS45NjA5Ij5FbnRlciB1c2VybmFtZSBhbmQgcGFzc3dvcmQ8L3RleHQ+PHBvbHlnb24gZmlsbD0iI0YxRjFGMSIgcG9pbnRzPSI5ODQuMjUsMjExLjQ2MDksMTEwNC4yNSwyMTEuNDYwOSwxMTE2LjI1LDIyMy40NjA5LDExMDQuMjUsMjM1LjQ2MDksOTg0LjI1LDIzNS40NjA5LDk3Mi4yNSwyMjMuNDYwOSw5ODQuMjUsMjExLjQ2MDkiIHN0eWxlPSJzdHJva2U6IzE4MTgxODtzdHJva2Utd2lkdGg6MC41OyIvPjx0ZXh0IGZpbGw9IiMwMDAwMDAiIGZvbnQtZmFtaWx5PSJzYW5zLXNlcmlmIiBmb250LXNpemU9IjExIiBsZW5ndGhBZGp1c3Q9InNwYWNpbmciIHRleHRMZW5ndGg9IjEyMCIgeD0iOTg0LjI1IiB5PSIyMjcuOTcyNyI+Q3JlZGVudGlhbHMgY29ycmVjdD88L3RleHQ+PHRleHQgZmlsbD0iIzAwMDAwMCIgZm9udC1mYW1pbHk9InNhbnMtc2VyaWYiIGZvbnQtc2l6ZT0iMTEiIGxlbmd0aEFkanVzdD0ic3BhY2luZyIgdGV4dExlbmd0aD0iMTgiIHg9Ijk1NC4yNSIgeT0iMjIyLjA4NTkiPnllczwvdGV4dD48dGV4dCBmaWxsPSIjMDAwMDAwIiBmb250LWZhbWlseT0ic2Fucy1zZXJpZiIgZm9udC1zaXplPSIxMSIgbGVuZ3RoQWRqdXN0PSJzcGFjaW5nIiB0ZXh0TGVuZ3RoPSIxMiIgeD0iMTExNi4yNSIgeT0iMjIyLjA4NTkiPm5vPC90ZXh0PjxyZWN0IGZpbGw9IiNGMUYxRjEiIGhlaWdodD0iMzIuODQzOCIgcng9IjEyLjUiIHJ5PSIxMi41IiBzdHlsZT0ic3Ryb2tlOiMxODE4MTg7c3Ryb2tlLXdpZHRoOjAuNTsiIHdpZHRoPSIxMjUiIHg9IjgzMiIgeT0iMjQ1LjQ2MDkiLz48dGV4dCBmaWxsPSIjMDAwMDAwIiBmb250LWZhbWlseT0ic2Fucy1zZXJpZiIgZm9udC1zaXplPSIxMiIgbGVuZ3RoQWRqdXN0PSJzcGFjaW5nIiB0ZXh0TGVuZ3RoPSIxMDUiIHg9Ijg0MiIgeT0iMjY2LjgwNDciPkxvZ2luIHN1Y2Nlc3NmdWw8L3RleHQ+PHJlY3QgZmlsbD0iI0YxRjFGMSIgaGVpZ2h0PSIzMi44NDM4IiByeD0iMTIuNSIgcnk9IjEyLjUiIHN0eWxlPSJzdHJva2U6IzE4MTgxODtzdHJva2Utd2lkdGg6MC41OyIgd2lkdGg9IjkzIiB4PSI4NDgiIHk9IjMxMy4zMDQ3Ii8+PHRleHQgZmlsbD0iIzAwMDAwMCIgZm9udC1mYW1pbHk9InNhbnMtc2VyaWYiIGZvbnQtc2l6ZT0iMTIiIGxlbmd0aEFkanVzdD0ic3BhY2luZyIgdGV4dExlbmd0aD0iNzMiIHg9Ijg1OCIgeT0iMzM0LjY0ODQiPlZpZXcgZXZlbnRzPC90ZXh0PjxyZWN0IGZpbGw9IiNGMUYxRjEiIGhlaWdodD0iMzIuODQzOCIgcng9IjEyLjUiIHJ5PSIxMi41IiBzdHlsZT0ic3Ryb2tlOiMxODE4MTg7c3Ryb2tlLXdpZHRoOjAuNTsiIHdpZHRoPSIxMDgiIHg9Ijg0MC41IiB5PSIzODEuMTQ4NCIvPjx0ZXh0IGZpbGw9IiMwMDAwMDAiIGZvbnQtZmFtaWx5PSJzYW5zLXNlcmlmIiBmb250LXNpemU9IjEyIiBsZW5ndGhBZGp1c3Q9InNwYWNpbmciIHRleHRMZW5ndGg9Ijg4IiB4PSI4NTAuNSIgeT0iNDAyLjQ5MjIiPlNlYXJjaCBldmVudHM8L3RleHQ+PHBvbHlnb24gZmlsbD0iI0YxRjFGMSIgcG9pbnRzPSI4MjguNSw0NDguOTkyMiw5NjAuNSw0NDguOTkyMiw5NzIuNSw0NjAuOTkyMiw5NjAuNSw0NzIuOTkyMiw4MjguNSw0NzIuOTkyMiw4MTYuNSw0NjAuOTkyMiw4MjguNSw0NDguOTkyMiIgc3R5bGU9InN0cm9rZTojMTgxODE4O3N0cm9rZS13aWR0aDowLjU7Ii8+PHRleHQgZmlsbD0iIzAwMDAwMCIgZm9udC1mYW1pbHk9InNhbnMtc2VyaWYiIGZvbnQtc2l6ZT0iMTEiIGxlbmd0aEFkanVzdD0ic3BhY2luZyIgdGV4dExlbmd0aD0iMTMyIiB4PSI4MjguNSIgeT0iNDY1LjUwMzkiPkV2ZW50IHJlcXVlc3QgcGVuZGluZz88L3RleHQ+PHRleHQgZmlsbD0iIzAwMDAwMCIgZm9udC1mYW1pbHk9InNhbnMtc2VyaWYiIGZvbnQtc2l6ZT0iMTEiIGxlbmd0aEFkanVzdD0ic3BhY2luZyIgdGV4dExlbmd0aD0iMTgiIHg9Ijc5OC41IiB5PSI0NTkuNjE3MiI+eWVzPC90ZXh0Pjx0ZXh0IGZpbGw9IiMwMDAwMDAiIGZvbnQtZmFtaWx5PSJzYW5zLXNlcmlmIiBmb250LXNpemU9IjExIiBsZW5ndGhBZGp1c3Q9InNwYWNpbmciIHRleHRMZW5ndGg9IjEyIiB4PSI5NzIuNSIgeT0iNDU5LjYxNzIiPm5vPC90ZXh0PjxyZWN0IGZpbGw9IiNGMUYxRjEiIGhlaWdodD0iMzIuODQzOCIgcng9IjEyLjUiIHJ5PSIxMi41IiBzdHlsZT0ic3Ryb2tlOiMxODE4MTg7c3Ryb2tlLXdpZHRoOjAuNTsiIHdpZHRoPSIxOTUiIHg9IjY5NSIgeT0iNDgyLjk5MjIiLz48dGV4dCBmaWxsPSIjMDAwMDAwIiBmb250LWZhbWlseT0ic2Fucy1zZXJpZiIgZm9udC1zaXplPSIxMiIgbGVuZ3RoQWRqdXN0PSJzcGFjaW5nIiB0ZXh0TGVuZ3RoPSIxNzUiIHg9IjcwNSIgeT0iNTA0LjMzNTkiPkFwcHJvdmUgb3IgZGVjbGluZSByZXF1ZXN0PC90ZXh0PjxyZWN0IGZpbGw9IiNGMUYxRjEiIGhlaWdodD0iMzIuODQzOCIgcng9IjEyLjUiIHJ5PSIxMi41IiBzdHlsZT0ic3Ryb2tlOiMxODE4MTg7c3Ryb2tlLXdpZHRoOjAuNTsiIHdpZHRoPSIxNzMiIHg9IjkxMCIgeT0iNDgyLjk5MjIiLz48dGV4dCBmaWxsPSIjMDAwMDAwIiBmb250LWZhbWlseT0ic2Fucy1zZXJpZiIgZm9udC1zaXplPSIxMiIgbGVuZ3RoQWRqdXN0PSJzcGFjaW5nIiB0ZXh0TGVuZ3RoPSIxNTMiIHg9IjkyMCIgeT0iNTA0LjMzNTkiPkNvbnRpbnVlIHZpZXdpbmcgZXZlbnRzPC90ZXh0Pjxwb2x5Z29uIGZpbGw9IiNGMUYxRjEiIHBvaW50cz0iODk0LjUsNTIxLjgzNTksOTA2LjUsNTMzLjgzNTksODk0LjUsNTQ1LjgzNTksODgyLjUsNTMzLjgzNTksODk0LjUsNTIxLjgzNTkiIHN0eWxlPSJzdHJva2U6IzE4MTgxODtzdHJva2Utd2lkdGg6MC41OyIvPjxyZWN0IGZpbGw9IiNGMUYxRjEiIGhlaWdodD0iMzIuODQzOCIgcng9IjEyLjUiIHJ5PSIxMi41IiBzdHlsZT0ic3Ryb2tlOiMxODE4MTg7c3Ryb2tlLXdpZHRoOjAuNTsiIHdpZHRoPSIxNjIiIHg9IjExMTMiIHk9IjI0NS40NjA5Ii8+PHRleHQgZmlsbD0iIzAwMDAwMCIgZm9udC1mYW1pbHk9InNhbnMtc2VyaWYiIGZvbnQtc2l6ZT0iMTIiIGxlbmd0aEFkanVzdD0ic3BhY2luZyIgdGV4dExlbmd0aD0iMTQyIiB4PSIxMTIzIiB5PSIyNjYuODA0NyI+RGlzcGxheSBlcnJvciBtZXNzYWdlPC90ZXh0Pjxwb2x5Z29uIGZpbGw9IiNGMUYxRjEiIHBvaW50cz0iMTA0NC4yNSw1NTEuODM1OSwxMDU2LjI1LDU2My44MzU5LDEwNDQuMjUsNTc1LjgzNTksMTAzMi4yNSw1NjMuODM1OSwxMDQ0LjI1LDU1MS44MzU5IiBzdHlsZT0ic3Ryb2tlOiMxODE4MTg7c3Ryb2tlLXdpZHRoOjAuNTsiLz48cG9seWdvbiBmaWxsPSIjRjFGMUYxIiBwb2ludHM9IjEzNDMsMTAyLjg0MzgsMTQ0NSwxMDIuODQzOCwxNDU3LDExNC44NDM4LDE0NDUsMTI2Ljg0MzgsMTM0MywxMjYuODQzOCwxMzMxLDExNC44NDM4LDEzNDMsMTAyLjg0MzgiIHN0eWxlPSJzdHJva2U6IzE4MTgxODtzdHJva2Utd2lkdGg6MC41OyIvPjx0ZXh0IGZpbGw9IiMwMDAwMDAiIGZvbnQtZmFtaWx5PSJzYW5zLXNlcmlmIiBmb250LXNpemU9IjExIiBsZW5ndGhBZGp1c3Q9InNwYWNpbmciIHRleHRMZW5ndGg9IjE4IiB4PSIxMzk4IiB5PSIxMzcuMjQyMiI+eWVzPC90ZXh0Pjx0ZXh0IGZpbGw9IiMwMDAwMDAiIGZvbnQtZmFtaWx5PSJzYW5zLXNlcmlmIiBmb250LXNpemU9IjExIiBsZW5ndGhBZGp1c3Q9InNwYWNpbmciIHRleHRMZW5ndGg9IjEwMiIgeD0iMTM0MyIgeT0iMTE5LjM1NTUiPlNpZ251cCBhcyBTdHVkZW50PC90ZXh0PjxyZWN0IGZpbGw9IiNGMUYxRjEiIGhlaWdodD0iMzIuODQzOCIgcng9IjEyLjUiIHJ5PSIxMi41IiBzdHlsZT0ic3Ryb2tlOiMxODE4MTg7c3Ryb2tlLXdpZHRoOjAuNTsiIHdpZHRoPSIyMTciIHg9IjEyODUuNSIgeT0iMTU4LjYxNzIiLz48dGV4dCBmaWxsPSIjMDAwMDAwIiBmb250LWZhbWlseT0ic2Fucy1zZXJpZiIgZm9udC1zaXplPSIxMiIgbGVuZ3RoQWRqdXN0PSJzcGFjaW5nIiB0ZXh0TGVuZ3RoPSIxOTciIHg9IjEyOTUuNSIgeT0iMTc5Ljk2MDkiPlByb3ZpZGUgdXNlcm5hbWUgYW5kIHBhc3N3b3JkPC90ZXh0PjxyZWN0IGZpbGw9IiNGMUYxRjEiIGhlaWdodD0iMzIuODQzOCIgcng9IjEyLjUiIHJ5PSIxMi41IiBzdHlsZT0ic3Ryb2tlOiMxODE4MTg7c3Ryb2tlLXdpZHRoOjAuNTsiIHdpZHRoPSIxNjYiIHg9IjEzMTEiIHk9IjIxMS40NjA5Ii8+PHRleHQgZmlsbD0iIzAwMDAwMCIgZm9udC1mYW1pbHk9InNhbnMtc2VyaWYiIGZvbnQtc2l6ZT0iMTIiIGxlbmd0aEFkanVzdD0ic3BhY2luZyIgdGV4dExlbmd0aD0iMTQ2IiB4PSIxMzIxIiB5PSIyMzIuODA0NyI+Q3JlYXRlIHN0dWRlbnQgYWNjb3VudDwvdGV4dD48cmVjdCBmaWxsPSIjRjFGMUYxIiBoZWlnaHQ9IjMyLjg0MzgiIHJ4PSIxMi41IiByeT0iMTIuNSIgc3R5bGU9InN0cm9rZTojMTgxODE4O3N0cm9rZS13aWR0aDowLjU7IiB3aWR0aD0iMjE4IiB4PSIxMjg1IiB5PSIyNzkuMzA0NyIvPjx0ZXh0IGZpbGw9IiMwMDAwMDAiIGZvbnQtZmFtaWx5PSJzYW5zLXNlcmlmIiBmb250LXNpemU9IjEyIiBsZW5ndGhBZGp1c3Q9InNwYWNpbmciIHRleHRMZW5ndGg9IjE5OCIgeD0iMTI5NSIgeT0iMzAwLjY0ODQiPlJlZGlyZWN0IHRvIHN0dWRlbnQgbG9naW4gcGFnZTwvdGV4dD48cG9seWdvbiBmaWxsPSIjRjFGMUYxIiBwb2ludHM9IjE1NzUuNSwxMDIuODQzOCwxNjc3LjUsMTAyLjg0MzgsMTY4OS41LDExNC44NDM4LDE2NzcuNSwxMjYuODQzOCwxNTc1LjUsMTI2Ljg0MzgsMTU2My41LDExNC44NDM4LDE1NzUuNSwxMDIuODQzOCIgc3R5bGU9InN0cm9rZTojMTgxODE4O3N0cm9rZS13aWR0aDowLjU7Ii8+PHRleHQgZmlsbD0iIzAwMDAwMCIgZm9udC1mYW1pbHk9InNhbnMtc2VyaWYiIGZvbnQtc2l6ZT0iMTEiIGxlbmd0aEFkanVzdD0ic3BhY2luZyIgdGV4dExlbmd0aD0iMTgiIHg9IjE2MzAuNSIgeT0iMTM3LjI0MjIiPnllczwvdGV4dD48dGV4dCBmaWxsPSIjMDAwMDAwIiBmb250LWZhbWlseT0ic2Fucy1zZXJpZiIgZm9udC1zaXplPSIxMSIgbGVuZ3RoQWRqdXN0PSJzcGFjaW5nIiB0ZXh0TGVuZ3RoPSIxMDIiIHg9IjE1NzUuNSIgeT0iMTE5LjM1NTUiPlNpZ251cCBhcyBDb2xsZWdlPC90ZXh0Pjx0ZXh0IGZpbGw9IiMwMDAwMDAiIGZvbnQtZmFtaWx5PSJzYW5zLXNlcmlmIiBmb250LXNpemU9IjExIiBsZW5ndGhBZGp1c3Q9InNwYWNpbmciIHRleHRMZW5ndGg9IjMwIiB4PSIxNjg5LjUiIHk9IjExMy40Njg4Ij5HdWVzdDwvdGV4dD48cmVjdCBmaWxsPSIjRjFGMUYxIiBoZWlnaHQ9IjMyLjg0MzgiIHJ4PSIxMi41IiByeT0iMTIuNSIgc3R5bGU9InN0cm9rZTojMTgxODE4O3N0cm9rZS13aWR0aDowLjU7IiB3aWR0aD0iMjI3IiB4PSIxNTEzIiB5PSIxNTguNjE3MiIvPjx0ZXh0IGZpbGw9IiMwMDAwMDAiIGZvbnQtZmFtaWx5PSJzYW5zLXNlcmlmIiBmb250LXNpemU9IjEyIiBsZW5ndGhBZGp1c3Q9InNwYWNpbmciIHRleHRMZW5ndGg9IjIwNyIgeD0iMTUyMyIgeT0iMTc5Ljk2MDkiPlByb3ZpZGUgY29sbGVnZSBJRCBhbmQgcGFzc3dvcmQ8L3RleHQ+PHJlY3QgZmlsbD0iI0YxRjFGMSIgaGVpZ2h0PSIzMi44NDM4IiByeD0iMTIuNSIgcnk9IjEyLjUiIHN0eWxlPSJzdHJva2U6IzE4MTgxODtzdHJva2Utd2lkdGg6MC41OyIgd2lkdGg9IjE2NSIgeD0iMTU0NCIgeT0iMjExLjQ2MDkiLz48dGV4dCBmaWxsPSIjMDAwMDAwIiBmb250LWZhbWlseT0ic2Fucy1zZXJpZiIgZm9udC1zaXplPSIxMiIgbGVuZ3RoQWRqdXN0PSJzcGFjaW5nIiB0ZXh0TGVuZ3RoPSIxNDUiIHg9IjE1NTQiIHk9IjIzMi44MDQ3Ij5DcmVhdGUgY29sbGVnZSBhY2NvdW50PC90ZXh0PjxyZWN0IGZpbGw9IiNGMUYxRjEiIGhlaWdodD0iMzIuODQzOCIgcng9IjEyLjUiIHJ5PSIxMi41IiBzdHlsZT0ic3Ryb2tlOiMxODE4MTg7c3Ryb2tlLXdpZHRoOjAuNTsiIHdpZHRoPSIyMTciIHg9IjE1MTgiIHk9IjI3OS4zMDQ3Ii8+PHRleHQgZmlsbD0iIzAwMDAwMCIgZm9udC1mYW1pbHk9InNhbnMtc2VyaWYiIGZvbnQtc2l6ZT0iMTIiIGxlbmd0aEFkanVzdD0ic3BhY2luZyIgdGV4dExlbmd0aD0iMTk3IiB4PSIxNTI4IiB5PSIzMDAuNjQ4NCI+UmVkaXJlY3QgdG8gY29sbGVnZSBsb2dpbiBwYWdlPC90ZXh0PjxyZWN0IGZpbGw9IiNGMUYxRjEiIGhlaWdodD0iMzIuODQzOCIgcng9IjEyLjUiIHJ5PSIxMi41IiBzdHlsZT0ic3Ryb2tlOiMxODE4MTg7c3Ryb2tlLXdpZHRoOjAuNTsiIHdpZHRoPSIxMzQiIHg9IjE3NTAiIHk9IjI3Mi41NzQyIi8+PHRleHQgZmlsbD0iIzAwMDAwMCIgZm9udC1mYW1pbHk9InNhbnMtc2VyaWYiIGZvbnQtc2l6ZT0iMTIiIGxlbmd0aEFkanVzdD0ic3BhY2luZyIgdGV4dExlbmd0aD0iMTE0IiB4PSIxNzYwIiB5PSIyOTMuOTE4Ij5Db250aW51ZSBhcyBndWVzdDwvdGV4dD48cmVjdCBmaWxsPSIjRjFGMUYxIiBoZWlnaHQ9IjMyLjg0MzgiIHJ4PSIxMi41IiByeT0iMTIuNSIgc3R5bGU9InN0cm9rZTojMTgxODE4O3N0cm9rZS13aWR0aDowLjU7IiB3aWR0aD0iOTMiIHg9IjE3NzAuNSIgeT0iMzQwLjQxOCIvPjx0ZXh0IGZpbGw9IiMwMDAwMDAiIGZvbnQtZmFtaWx5PSJzYW5zLXNlcmlmIiBmb250LXNpemU9IjEyIiBsZW5ndGhBZGp1c3Q9InNwYWNpbmciIHRleHRMZW5ndGg9IjczIiB4PSIxNzgwLjUiIHk9IjM2MS43NjE3Ij5WaWV3IGV2ZW50czwvdGV4dD48cmVjdCBmaWxsPSIjRjFGMUYxIiBoZWlnaHQ9IjMyLjg0MzgiIHJ4PSIxMi41IiByeT0iMTIuNSIgc3R5bGU9InN0cm9rZTojMTgxODE4O3N0cm9rZS13aWR0aDowLjU7IiB3aWR0aD0iMTA4IiB4PSIxNzYzIiB5PSI0MDguMjYxNyIvPjx0ZXh0IGZpbGw9IiMwMDAwMDAiIGZvbnQtZmFtaWx5PSJzYW5zLXNlcmlmIiBmb250LXNpemU9IjEyIiBsZW5ndGhBZGp1c3Q9InNwYWNpbmciIHRleHRMZW5ndGg9Ijg4IiB4PSIxNzczIiB5PSI0MjkuNjA1NSI+U2VhcmNoIGV2ZW50czwvdGV4dD48ZWxsaXBzZSBjeD0iOTI3LjUiIGN5PSI2MjYuODM1OSIgZmlsbD0ibm9uZSIgcng9IjExIiByeT0iMTEiIHN0eWxlPSJzdHJva2U6IzIyMjIyMjtzdHJva2Utd2lkdGg6MS4wOyIvPjxlbGxpcHNlIGN4PSI5MjcuNSIgY3k9IjYyNi44MzU5IiBmaWxsPSIjMjIyMjIyIiByeD0iNiIgcnk9IjYiIHN0eWxlPSJzdHJva2U6IzIyMjIyMjtzdHJva2Utd2lkdGg6MS4wOyIvPjxsaW5lIHN0eWxlPSJzdHJva2U6IzE4MTgxODtzdHJva2Utd2lkdGg6MS4wOyIgeDE9IjkyNy41IiB4Mj0iOTI3LjUiIHkxPSIzMCIgeTI9IjUwIi8+PHBvbHlnb24gZmlsbD0iIzE4MTgxOCIgcG9pbnRzPSI5MjMuNSw0MCw5MjcuNSw1MCw5MzEuNSw0MCw5MjcuNSw0NCIgc3R5bGU9InN0cm9rZTojMTgxODE4O3N0cm9rZS13aWR0aDoxLjA7Ii8+PGxpbmUgc3R5bGU9InN0cm9rZTojMTgxODE4O3N0cm9rZS13aWR0aDoxLjA7IiB4MT0iODQuNSIgeDI9Ijg0LjUiIHkxPSIyNzguMzA0NyIgeTI9IjMxMy4zMDQ3Ii8+PHBvbHlnb24gZmlsbD0iIzE4MTgxOCIgcG9pbnRzPSI4MC41LDMwMy4zMDQ3LDg0LjUsMzEzLjMwNDcsODguNSwzMDMuMzA0Nyw4NC41LDMwNy4zMDQ3IiBzdHlsZT0ic3Ryb2tlOiMxODE4MTg7c3Ryb2tlLXdpZHRoOjEuMDsiLz48bGluZSBzdHlsZT0ic3Ryb2tlOiMxODE4MTg7c3Ryb2tlLXdpZHRoOjEuMDsiIHgxPSI4NC41IiB4Mj0iODQuNSIgeTE9IjM0Ni4xNDg0IiB5Mj0iMzgxLjE0ODQiLz48cG9seWdvbiBmaWxsPSIjMTgxODE4IiBwb2ludHM9IjgwLjUsMzcxLjE0ODQsODQuNSwzODEuMTQ4NCw4OC41LDM3MS4xNDg0LDg0LjUsMzc1LjE0ODQiIHN0eWxlPSJzdHJva2U6IzE4MTgxODtzdHJva2Utd2lkdGg6MS4wOyIvPjxsaW5lIHN0eWxlPSJzdHJva2U6IzE4MTgxODtzdHJva2Utd2lkdGg6MS4wOyIgeDE9Ijg0LjUiIHgyPSI4NC41IiB5MT0iNDEzLjk5MjIiIHkyPSI0NDguOTkyMiIvPjxwb2x5Z29uIGZpbGw9IiMxODE4MTgiIHBvaW50cz0iODAuNSw0MzguOTkyMiw4NC41LDQ0OC45OTIyLDg4LjUsNDM4Ljk5MjIsODQuNSw0NDIuOTkyMiIgc3R5bGU9InN0cm9rZTojMTgxODE4O3N0cm9rZS13aWR0aDoxLjA7Ii8+PGxpbmUgc3R5bGU9InN0cm9rZTojMTgxODE4O3N0cm9rZS13aWR0aDoxLjA7IiB4MT0iOTkuNzUiIHgyPSI4NC41IiB5MT0iMjIzLjQ2MDkiIHkyPSIyMjMuNDYwOSIvPjxsaW5lIHN0eWxlPSJzdHJva2U6IzE4MTgxODtzdHJva2Utd2lkdGg6MS4wOyIgeDE9Ijg0LjUiIHgyPSI4NC41IiB5MT0iMjIzLjQ2MDkiIHkyPSIyNDUuNDYwOSIvPjxwb2x5Z29uIGZpbGw9IiMxODE4MTgiIHBvaW50cz0iODAuNSwyMzUuNDYwOSw4NC41LDI0NS40NjA5LDg4LjUsMjM1LjQ2MDksODQuNSwyMzkuNDYwOSIgc3R5bGU9InN0cm9rZTojMTgxODE4O3N0cm9rZS13aWR0aDoxLjA7Ii8+PGxpbmUgc3R5bGU9InN0cm9rZTojMTgxODE4O3N0cm9rZS13aWR0aDoxLjA7IiB4MT0iMjQzLjc1IiB4Mj0iMjU5IiB5MT0iMjIzLjQ2MDkiIHkyPSIyMjMuNDYwOSIvPjxsaW5lIHN0eWxlPSJzdHJva2U6IzE4MTgxODtzdHJva2Utd2lkdGg6MS4wOyIgeDE9IjI1OSIgeDI9IjI1OSIgeTE9IjIyMy40NjA5IiB5Mj0iMjQ1LjQ2MDkiLz48cG9seWdvbiBmaWxsPSIjMTgxODE4IiBwb2ludHM9IjI1NSwyMzUuNDYwOSwyNTksMjQ1LjQ2MDksMjYzLDIzNS40NjA5LDI1OSwyMzkuNDYwOSIgc3R5bGU9InN0cm9rZTojMTgxODE4O3N0cm9rZS13aWR0aDoxLjA7Ii8+PGxpbmUgc3R5bGU9InN0cm9rZTojMTgxODE4O3N0cm9rZS13aWR0aDoxLjA7IiB4MT0iODQuNSIgeDI9Ijg0LjUiIHkxPSI0ODEuODM1OSIgeTI9IjQ5OS44MzU5Ii8+PGxpbmUgc3R5bGU9InN0cm9rZTojMTgxODE4O3N0cm9rZS13aWR0aDoxLjA7IiB4MT0iODQuNSIgeDI9IjE1OS43NSIgeTE9IjQ5OS44MzU5IiB5Mj0iNDk5LjgzNTkiLz48cG9seWdvbiBmaWxsPSIjMTgxODE4IiBwb2ludHM9IjE0OS43NSw0OTUuODM1OSwxNTkuNzUsNDk5LjgzNTksMTQ5Ljc1LDUwMy44MzU5LDE1My43NSw0OTkuODM1OSIgc3R5bGU9InN0cm9rZTojMTgxODE4O3N0cm9rZS13aWR0aDoxLjA7Ii8+PGxpbmUgc3R5bGU9InN0cm9rZTojMTgxODE4O3N0cm9rZS13aWR0aDoxLjA7IiB4MT0iMjU5IiB4Mj0iMjU5IiB5MT0iMjc4LjMwNDciIHkyPSI0OTkuODM1OSIvPjxsaW5lIHN0eWxlPSJzdHJva2U6IzE4MTgxODtzdHJva2Utd2lkdGg6MS4wOyIgeDE9IjI1OSIgeDI9IjE4My43NSIgeTE9IjQ5OS44MzU5IiB5Mj0iNDk5LjgzNTkiLz48cG9seWdvbiBmaWxsPSIjMTgxODE4IiBwb2ludHM9IjE5My43NSw0OTUuODM1OSwxODMuNzUsNDk5LjgzNTksMTkzLjc1LDUwMy44MzU5LDE4OS43NSw0OTkuODM1OSIgc3R5bGU9InN0cm9rZTojMTgxODE4O3N0cm9rZS13aWR0aDoxLjA7Ii8+PGxpbmUgc3R5bGU9InN0cm9rZTojMTgxODE4O3N0cm9rZS13aWR0aDoxLjA7IiB4MT0iMTcxLjc1IiB4Mj0iMTcxLjc1IiB5MT0iMTkxLjQ2MDkiIHkyPSIyMTEuNDYwOSIvPjxwb2x5Z29uIGZpbGw9IiMxODE4MTgiIHBvaW50cz0iMTY3Ljc1LDIwMS40NjA5LDE3MS43NSwyMTEuNDYwOSwxNzUuNzUsMjAxLjQ2MDksMTcxLjc1LDIwNS40NjA5IiBzdHlsZT0ic3Ryb2tlOiMxODE4MTg7c3Ryb2tlLXdpZHRoOjEuMDsiLz48bGluZSBzdHlsZT0ic3Ryb2tlOiMxODE4MTg7c3Ryb2tlLXdpZHRoOjEuMDsiIHgxPSI0MjYuNSIgeDI9IjQyNi41IiB5MT0iMjc4LjMwNDciIHkyPSIzMTMuMzA0NyIvPjxwb2x5Z29uIGZpbGw9IiMxODE4MTgiIHBvaW50cz0iNDIyLjUsMzAzLjMwNDcsNDI2LjUsMzEzLjMwNDcsNDMwLjUsMzAzLjMwNDcsNDI2LjUsMzA3LjMwNDciIHN0eWxlPSJzdHJva2U6IzE4MTgxODtzdHJva2Utd2lkdGg6MS4wOyIvPjxsaW5lIHN0eWxlPSJzdHJva2U6IzE4MTgxODtzdHJva2Utd2lkdGg6MS4wOyIgeDE9IjQyNi41IiB4Mj0iNDI2LjUiIHkxPSIzNDYuMTQ4NCIgeTI9IjM4MS4xNDg0Ii8+PHBvbHlnb24gZmlsbD0iIzE4MTgxOCIgcG9pbnRzPSI0MjIuNSwzNzEuMTQ4NCw0MjYuNSwzODEuMTQ4NCw0MzAuNSwzNzEuMTQ4NCw0MjYuNSwzNzUuMTQ4NCIgc3R5bGU9InN0cm9rZTojMTgxODE4O3N0cm9rZS13aWR0aDoxLjA7Ii8+PGxpbmUgc3R5bGU9InN0cm9rZTojMTgxODE4O3N0cm9rZS13aWR0aDoxLjA7IiB4MT0iNDI2LjUiIHgyPSI0MjYuNSIgeTE9IjQxMy45OTIyIiB5Mj0iNDQ4Ljk5MjIiLz48cG9seWdvbiBmaWxsPSIjMTgxODE4IiBwb2ludHM9IjQyMi41LDQzOC45OTIyLDQyNi41LDQ0OC45OTIyLDQzMC41LDQzOC45OTIyLDQyNi41LDQ0Mi45OTIyIiBzdHlsZT0ic3Ryb2tlOiMxODE4MTg7c3Ryb2tlLXdpZHRoOjEuMDsiLz48bGluZSBzdHlsZT0ic3Ryb2tlOiMxODE4MTg7c3Ryb2tlLXdpZHRoOjEuMDsiIHgxPSI0NDMuMjUiIHgyPSI0MjYuNSIgeTE9IjIyMy40NjA5IiB5Mj0iMjIzLjQ2MDkiLz48bGluZSBzdHlsZT0ic3Ryb2tlOiMxODE4MTg7c3Ryb2tlLXdpZHRoOjEuMDsiIHgxPSI0MjYuNSIgeDI9IjQyNi41IiB5MT0iMjIzLjQ2MDkiIHkyPSIyNDUuNDYwOSIvPjxwb2x5Z29uIGZpbGw9IiMxODE4MTgiIHBvaW50cz0iNDIyLjUsMjM1LjQ2MDksNDI2LjUsMjQ1LjQ2MDksNDMwLjUsMjM1LjQ2MDksNDI2LjUsMjM5LjQ2MDkiIHN0eWxlPSJzdHJva2U6IzE4MTgxODtzdHJva2Utd2lkdGg6MS4wOyIvPjxsaW5lIHN0eWxlPSJzdHJva2U6IzE4MTgxODtzdHJva2Utd2lkdGg6MS4wOyIgeDE9IjU4Ny4yNSIgeDI9IjYwNCIgeTE9IjIyMy40NjA5IiB5Mj0iMjIzLjQ2MDkiLz48bGluZSBzdHlsZT0ic3Ryb2tlOiMxODE4MTg7c3Ryb2tlLXdpZHRoOjEuMDsiIHgxPSI2MDQiIHgyPSI2MDQiIHkxPSIyMjMuNDYwOSIgeTI9IjI0NS40NjA5Ii8+PHBvbHlnb24gZmlsbD0iIzE4MTgxOCIgcG9pbnRzPSI2MDAsMjM1LjQ2MDksNjA0LDI0NS40NjA5LDYwOCwyMzUuNDYwOSw2MDQsMjM5LjQ2MDkiIHN0eWxlPSJzdHJva2U6IzE4MTgxODtzdHJva2Utd2lkdGg6MS4wOyIvPjxsaW5lIHN0eWxlPSJzdHJva2U6IzE4MTgxODtzdHJva2Utd2lkdGg6MS4wOyIgeDE9IjQyNi41IiB4Mj0iNDI2LjUiIHkxPSI0ODEuODM1OSIgeTI9IjQ5OS44MzU5Ii8+PGxpbmUgc3R5bGU9InN0cm9rZTojMTgxODE4O3N0cm9rZS13aWR0aDoxLjA7IiB4MT0iNDI2LjUiIHgyPSI1MDMuMjUiIHkxPSI0OTkuODM1OSIgeTI9IjQ5OS44MzU5Ii8+PHBvbHlnb24gZmlsbD0iIzE4MTgxOCIgcG9pbnRzPSI0OTMuMjUsNDk1LjgzNTksNTAzLjI1LDQ5OS44MzU5LDQ5My4yNSw1MDMuODM1OSw0OTcuMjUsNDk5LjgzNTkiIHN0eWxlPSJzdHJva2U6IzE4MTgxODtzdHJva2Utd2lkdGg6MS4wOyIvPjxsaW5lIHN0eWxlPSJzdHJva2U6IzE4MTgxODtzdHJva2Utd2lkdGg6MS4wOyIgeDE9IjYwNCIgeDI9IjYwNCIgeTE9IjI3OC4zMDQ3IiB5Mj0iNDk5LjgzNTkiLz48bGluZSBzdHlsZT0ic3Ryb2tlOiMxODE4MTg7c3Ryb2tlLXdpZHRoOjEuMDsiIHgxPSI2MDQiIHgyPSI1MjcuMjUiIHkxPSI0OTkuODM1OSIgeTI9IjQ5OS44MzU5Ii8+PHBvbHlnb24gZmlsbD0iIzE4MTgxOCIgcG9pbnRzPSI1MzcuMjUsNDk1LjgzNTksNTI3LjI1LDQ5OS44MzU5LDUzNy4yNSw1MDMuODM1OSw1MzMuMjUsNDk5LjgzNTkiIHN0eWxlPSJzdHJva2U6IzE4MTgxODtzdHJva2Utd2lkdGg6MS4wOyIvPjxsaW5lIHN0eWxlPSJzdHJva2U6IzE4MTgxODtzdHJva2Utd2lkdGg6MS4wOyIgeDE9IjUxNS4yNSIgeDI9IjUxNS4yNSIgeTE9IjE5MS40NjA5IiB5Mj0iMjExLjQ2MDkiLz48cG9seWdvbiBmaWxsPSIjMTgxODE4IiBwb2ludHM9IjUxMS4yNSwyMDEuNDYwOSw1MTUuMjUsMjExLjQ2MDksNTE5LjI1LDIwMS40NjA5LDUxNS4yNSwyMDUuNDYwOSIgc3R5bGU9InN0cm9rZTojMTgxODE4O3N0cm9rZS13aWR0aDoxLjA7Ii8+PGxpbmUgc3R5bGU9InN0cm9rZTojMTgxODE4O3N0cm9rZS13aWR0aDoxLjA7IiB4MT0iODk0LjUiIHgyPSI4OTQuNSIgeTE9IjI3OC4zMDQ3IiB5Mj0iMzEzLjMwNDciLz48cG9seWdvbiBmaWxsPSIjMTgxODE4IiBwb2ludHM9Ijg5MC41LDMwMy4zMDQ3LDg5NC41LDMxMy4zMDQ3LDg5OC41LDMwMy4zMDQ3LDg5NC41LDMwNy4zMDQ3IiBzdHlsZT0ic3Ryb2tlOiMxODE4MTg7c3Ryb2tlLXdpZHRoOjEuMDsiLz48bGluZSBzdHlsZT0ic3Ryb2tlOiMxODE4MTg7c3Ryb2tlLXdpZHRoOjEuMDsiIHgxPSI4OTQuNSIgeDI9Ijg5NC41IiB5MT0iMzQ2LjE0ODQiIHkyPSIzODEuMTQ4NCIvPjxwb2x5Z29uIGZpbGw9IiMxODE4MTgiIHBvaW50cz0iODkwLjUsMzcxLjE0ODQsODk0LjUsMzgxLjE0ODQsODk4LjUsMzcxLjE0ODQsODk0LjUsMzc1LjE0ODQiIHN0eWxlPSJzdHJva2U6IzE4MTgxODtzdHJva2Utd2lkdGg6MS4wOyIvPjxsaW5lIHN0eWxlPSJzdHJva2U6IzE4MTgxODtzdHJva2Utd2lkdGg6MS4wOyIgeDE9IjgxNi41IiB4Mj0iNzkyLjUiIHkxPSI0NjAuOTkyMiIgeTI9IjQ2MC45OTIyIi8+PGxpbmUgc3R5bGU9InN0cm9rZTojMTgxODE4O3N0cm9rZS13aWR0aDoxLjA7IiB4MT0iNzkyLjUiIHgyPSI3OTIuNSIgeTE9IjQ2MC45OTIyIiB5Mj0iNDgyLjk5MjIiLz48cG9seWdvbiBmaWxsPSIjMTgxODE4IiBwb2ludHM9Ijc4OC41LDQ3Mi45OTIyLDc5Mi41LDQ4Mi45OTIyLDc5Ni41LDQ3Mi45OTIyLDc5Mi41LDQ3Ni45OTIyIiBzdHlsZT0ic3Ryb2tlOiMxODE4MTg7c3Ryb2tlLXdpZHRoOjEuMDsiLz48bGluZSBzdHlsZT0ic3Ryb2tlOiMxODE4MTg7c3Ryb2tlLXdpZHRoOjEuMDsiIHgxPSI5NzIuNSIgeDI9Ijk5Ni41IiB5MT0iNDYwLjk5MjIiIHkyPSI0NjAuOTkyMiIvPjxsaW5lIHN0eWxlPSJzdHJva2U6IzE4MTgxODtzdHJva2Utd2lkdGg6MS4wOyIgeDE9Ijk5Ni41IiB4Mj0iOTk2LjUiIHkxPSI0NjAuOTkyMiIgeTI9IjQ4Mi45OTIyIi8+PHBvbHlnb24gZmlsbD0iIzE4MTgxOCIgcG9pbnRzPSI5OTIuNSw0NzIuOTkyMiw5OTYuNSw0ODIuOTkyMiwxMDAwLjUsNDcyLjk5MjIsOTk2LjUsNDc2Ljk5MjIiIHN0eWxlPSJzdHJva2U6IzE4MTgxODtzdHJva2Utd2lkdGg6MS4wOyIvPjxsaW5lIHN0eWxlPSJzdHJva2U6IzE4MTgxODtzdHJva2Utd2lkdGg6MS4wOyIgeDE9Ijc5Mi41IiB4Mj0iNzkyLjUiIHkxPSI1MTUuODM1OSIgeTI9IjUzMy44MzU5Ii8+PGxpbmUgc3R5bGU9InN0cm9rZTojMTgxODE4O3N0cm9rZS13aWR0aDoxLjA7IiB4MT0iNzkyLjUiIHgyPSI4ODIuNSIgeTE9IjUzMy44MzU5IiB5Mj0iNTMzLjgzNTkiLz48cG9seWdvbiBmaWxsPSIjMTgxODE4IiBwb2ludHM9Ijg3Mi41LDUyOS44MzU5LDg4Mi41LDUzMy44MzU5LDg3Mi41LDUzNy44MzU5LDg3Ni41LDUzMy44MzU5IiBzdHlsZT0ic3Ryb2tlOiMxODE4MTg7c3Ryb2tlLXdpZHRoOjEuMDsiLz48bGluZSBzdHlsZT0ic3Ryb2tlOiMxODE4MTg7c3Ryb2tlLXdpZHRoOjEuMDsiIHgxPSI5OTYuNSIgeDI9Ijk5Ni41IiB5MT0iNTE1LjgzNTkiIHkyPSI1MzMuODM1OSIvPjxsaW5lIHN0eWxlPSJzdHJva2U6IzE4MTgxODtzdHJva2Utd2lkdGg6MS4wOyIgeDE9Ijk5Ni41IiB4Mj0iOTA2LjUiIHkxPSI1MzMuODM1OSIgeTI9IjUzMy44MzU5Ii8+PHBvbHlnb24gZmlsbD0iIzE4MTgxOCIgcG9pbnRzPSI5MTYuNSw1MjkuODM1OSw5MDYuNSw1MzMuODM1OSw5MTYuNSw1MzcuODM1OSw5MTIuNSw1MzMuODM1OSIgc3R5bGU9InN0cm9rZTojMTgxODE4O3N0cm9rZS13aWR0aDoxLjA7Ii8+PGxpbmUgc3R5bGU9InN0cm9rZTojMTgxODE4O3N0cm9rZS13aWR0aDoxLjA7IiB4MT0iODk0LjUiIHgyPSI4OTQuNSIgeTE9IjQxMy45OTIyIiB5Mj0iNDQ4Ljk5MjIiLz48cG9seWdvbiBmaWxsPSIjMTgxODE4IiBwb2ludHM9Ijg5MC41LDQzOC45OTIyLDg5NC41LDQ0OC45OTIyLDg5OC41LDQzOC45OTIyLDg5NC41LDQ0Mi45OTIyIiBzdHlsZT0ic3Ryb2tlOiMxODE4MTg7c3Ryb2tlLXdpZHRoOjEuMDsiLz48bGluZSBzdHlsZT0ic3Ryb2tlOiMxODE4MTg7c3Ryb2tlLXdpZHRoOjEuMDsiIHgxPSI5NzIuMjUiIHgyPSI4OTQuNSIgeTE9IjIyMy40NjA5IiB5Mj0iMjIzLjQ2MDkiLz48bGluZSBzdHlsZT0ic3Ryb2tlOiMxODE4MTg7c3Ryb2tlLXdpZHRoOjEuMDsiIHgxPSI4OTQuNSIgeDI9Ijg5NC41IiB5MT0iMjIzLjQ2MDkiIHkyPSIyNDUuNDYwOSIvPjxwb2x5Z29uIGZpbGw9IiMxODE4MTgiIHBvaW50cz0iODkwLjUsMjM1LjQ2MDksODk0LjUsMjQ1LjQ2MDksODk4LjUsMjM1LjQ2MDksODk0LjUsMjM5LjQ2MDkiIHN0eWxlPSJzdHJva2U6IzE4MTgxODtzdHJva2Utd2lkdGg6MS4wOyIvPjxsaW5lIHN0eWxlPSJzdHJva2U6IzE4MTgxODtzdHJva2Utd2lkdGg6MS4wOyIgeDE9IjExMTYuMjUiIHgyPSIxMTk0IiB5MT0iMjIzLjQ2MDkiIHkyPSIyMjMuNDYwOSIvPjxsaW5lIHN0eWxlPSJzdHJva2U6IzE4MTgxODtzdHJva2Utd2lkdGg6MS4wOyIgeDE9IjExOTQiIHgyPSIxMTk0IiB5MT0iMjIzLjQ2MDkiIHkyPSIyNDUuNDYwOSIvPjxwb2x5Z29uIGZpbGw9IiMxODE4MTgiIHBvaW50cz0iMTE5MCwyMzUuNDYwOSwxMTk0LDI0NS40NjA5LDExOTgsMjM1LjQ2MDksMTE5NCwyMzkuNDYwOSIgc3R5bGU9InN0cm9rZTojMTgxODE4O3N0cm9rZS13aWR0aDoxLjA7Ii8+PGxpbmUgc3R5bGU9InN0cm9rZTojMTgxODE4O3N0cm9rZS13aWR0aDoxLjA7IiB4MT0iODk0LjUiIHgyPSI4OTQuNSIgeTE9IjU0NS44MzU5IiB5Mj0iNTYzLjgzNTkiLz48bGluZSBzdHlsZT0ic3Ryb2tlOiMxODE4MTg7c3Ryb2tlLXdpZHRoOjEuMDsiIHgxPSI4OTQuNSIgeDI9IjEwMzIuMjUiIHkxPSI1NjMuODM1OSIgeTI9IjU2My44MzU5Ii8+PHBvbHlnb24gZmlsbD0iIzE4MTgxOCIgcG9pbnRzPSIxMDIyLjI1LDU1OS44MzU5LDEwMzIuMjUsNTYzLjgzNTksMTAyMi4yNSw1NjcuODM1OSwxMDI2LjI1LDU2My44MzU5IiBzdHlsZT0ic3Ryb2tlOiMxODE4MTg7c3Ryb2tlLXdpZHRoOjEuMDsiLz48bGluZSBzdHlsZT0ic3Ryb2tlOiMxODE4MTg7c3Ryb2tlLXdpZHRoOjEuMDsiIHgxPSIxMTk0IiB4Mj0iMTE5NCIgeTE9IjI3OC4zMDQ3IiB5Mj0iNTYzLjgzNTkiLz48bGluZSBzdHlsZT0ic3Ryb2tlOiMxODE4MTg7c3Ryb2tlLXdpZHRoOjEuMDsiIHgxPSIxMTk0IiB4Mj0iMTA1Ni4yNSIgeTE9IjU2My44MzU5IiB5Mj0iNTYzLjgzNTkiLz48cG9seWdvbiBmaWxsPSIjMTgxODE4IiBwb2ludHM9IjEwNjYuMjUsNTU5LjgzNTksMTA1Ni4yNSw1NjMuODM1OSwxMDY2LjI1LDU2Ny44MzU5LDEwNjIuMjUsNTYzLjgzNTkiIHN0eWxlPSJzdHJva2U6IzE4MTgxODtzdHJva2Utd2lkdGg6MS4wOyIvPjxsaW5lIHN0eWxlPSJzdHJva2U6IzE4MTgxODtzdHJva2Utd2lkdGg6MS4wOyIgeDE9IjEwNDQuMjUiIHgyPSIxMDQ0LjI1IiB5MT0iMTkxLjQ2MDkiIHkyPSIyMTEuNDYwOSIvPjxwb2x5Z29uIGZpbGw9IiMxODE4MTgiIHBvaW50cz0iMTA0MC4yNSwyMDEuNDYwOSwxMDQ0LjI1LDIxMS40NjA5LDEwNDguMjUsMjAxLjQ2MDksMTA0NC4yNSwyMDUuNDYwOSIgc3R5bGU9InN0cm9rZTojMTgxODE4O3N0cm9rZS13aWR0aDoxLjA7Ii8+PGxpbmUgc3R5bGU9InN0cm9rZTojMTgxODE4O3N0cm9rZS13aWR0aDoxLjA7IiB4MT0iMTM5NCIgeDI9IjEzOTQiIHkxPSIxOTEuNDYwOSIgeTI9IjIxMS40NjA5Ii8+PHBvbHlnb24gZmlsbD0iIzE4MTgxOCIgcG9pbnRzPSIxMzkwLDIwMS40NjA5LDEzOTQsMjExLjQ2MDksMTM5OCwyMDEuNDYwOSwxMzk0LDIwNS40NjA5IiBzdHlsZT0ic3Ryb2tlOiMxODE4MTg7c3Ryb2tlLXdpZHRoOjEuMDsiLz48bGluZSBzdHlsZT0ic3Ryb2tlOiMxODE4MTg7c3Ryb2tlLXdpZHRoOjEuMDsiIHgxPSIxMzk0IiB4Mj0iMTM5NCIgeTE9IjI0NC4zMDQ3IiB5Mj0iMjc5LjMwNDciLz48cG9seWdvbiBmaWxsPSIjMTgxODE4IiBwb2ludHM9IjEzOTAsMjY5LjMwNDcsMTM5NCwyNzkuMzA0NywxMzk4LDI2OS4zMDQ3LDEzOTQsMjczLjMwNDciIHN0eWxlPSJzdHJva2U6IzE4MTgxODtzdHJva2Utd2lkdGg6MS4wOyIvPjxsaW5lIHN0eWxlPSJzdHJva2U6IzE4MTgxODtzdHJva2Utd2lkdGg6MS4wOyIgeDE9IjE2MjYuNSIgeDI9IjE2MjYuNSIgeTE9IjE5MS40NjA5IiB5Mj0iMjExLjQ2MDkiLz48cG9seWdvbiBmaWxsPSIjMTgxODE4IiBwb2ludHM9IjE2MjIuNSwyMDEuNDYwOSwxNjI2LjUsMjExLjQ2MDksMTYzMC41LDIwMS40NjA5LDE2MjYuNSwyMDUuNDYwOSIgc3R5bGU9InN0cm9rZTojMTgxODE4O3N0cm9rZS13aWR0aDoxLjA7Ii8+PGxpbmUgc3R5bGU9InN0cm9rZTojMTgxODE4O3N0cm9rZS13aWR0aDoxLjA7IiB4MT0iMTYyNi41IiB4Mj0iMTYyNi41IiB5MT0iMjQ0LjMwNDciIHkyPSIyNzkuMzA0NyIvPjxwb2x5Z29uIGZpbGw9IiMxODE4MTgiIHBvaW50cz0iMTYyMi41LDI2OS4zMDQ3LDE2MjYuNSwyNzkuMzA0NywxNjMwLjUsMjY5LjMwNDcsMTYyNi41LDI3My4zMDQ3IiBzdHlsZT0ic3Ryb2tlOiMxODE4MTg7c3Ryb2tlLXdpZHRoOjEuMDsiLz48bGluZSBzdHlsZT0ic3Ryb2tlOiMxODE4MTg7c3Ryb2tlLXdpZHRoOjEuMDsiIHgxPSIxODE3IiB4Mj0iMTgxNyIgeTE9IjMwNS40MTgiIHkyPSIzNDAuNDE4Ii8+PHBvbHlnb24gZmlsbD0iIzE4MTgxOCIgcG9pbnRzPSIxODEzLDMzMC40MTgsMTgxNywzNDAuNDE4LDE4MjEsMzMwLjQxOCwxODE3LDMzNC40MTgiIHN0eWxlPSJzdHJva2U6IzE4MTgxODtzdHJva2Utd2lkdGg6MS4wOyIvPjxsaW5lIHN0eWxlPSJzdHJva2U6IzE4MTgxODtzdHJva2Utd2lkdGg6MS4wOyIgeDE9IjE4MTciIHgyPSIxODE3IiB5MT0iMzczLjI2MTciIHkyPSI0MDguMjYxNyIvPjxwb2x5Z29uIGZpbGw9IiMxODE4MTgiIHBvaW50cz0iMTgxMywzOTguMjYxNywxODE3LDQwOC4yNjE3LDE4MjEsMzk4LjI2MTcsMTgxNyw0MDIuMjYxNyIgc3R5bGU9InN0cm9rZTojMTgxODE4O3N0cm9rZS13aWR0aDoxLjA7Ii8+PGxpbmUgc3R5bGU9InN0cm9rZTojMTgxODE4O3N0cm9rZS13aWR0aDoxLjA7IiB4MT0iMTcxLjc1IiB4Mj0iMTcxLjc1IiB5MT0iMTI2Ljg0MzgiIHkyPSIxNTguNjE3MiIvPjxwb2x5Z29uIGZpbGw9IiMxODE4MTgiIHBvaW50cz0iMTY3Ljc1LDE0OC42MTcyLDE3MS43NSwxNTguNjE3MiwxNzUuNzUsMTQ4LjYxNzIsMTcxLjc1LDE1Mi42MTcyIiBzdHlsZT0ic3Ryb2tlOiMxODE4MTg7c3Ryb2tlLXdpZHRoOjEuMDsiLz48bGluZSBzdHlsZT0ic3Ryb2tlOiMxODE4MTg7c3Ryb2tlLXdpZHRoOjEuMDsiIHgxPSIxNzEuNzUiIHgyPSIxNzEuNzUiIHkxPSI1MTEuODM1OSIgeTI9IjU5NS44MzU5Ii8+PHBvbHlnb24gZmlsbD0iIzE4MTgxOCIgcG9pbnRzPSIxNjcuNzUsNTg1LjgzNTksMTcxLjc1LDU5NS44MzU5LDE3NS43NSw1ODUuODM1OSwxNzEuNzUsNTg5LjgzNTkiIHN0eWxlPSJzdHJva2U6IzE4MTgxODtzdHJva2Utd2lkdGg6MS4wOyIvPjxsaW5lIHN0eWxlPSJzdHJva2U6IzE4MTgxODtzdHJva2Utd2lkdGg6MS4wOyIgeDE9IjUxNS4yNSIgeDI9IjUxNS4yNSIgeTE9IjEyNi44NDM4IiB5Mj0iMTU4LjYxNzIiLz48cG9seWdvbiBmaWxsPSIjMTgxODE4IiBwb2ludHM9IjUxMS4yNSwxNDguNjE3Miw1MTUuMjUsMTU4LjYxNzIsNTE5LjI1LDE0OC42MTcyLDUxNS4yNSwxNTIuNjE3MiIgc3R5bGU9InN0cm9rZTojMTgxODE4O3N0cm9rZS13aWR0aDoxLjA7Ii8+PGxpbmUgc3R5bGU9InN0cm9rZTojMTgxODE4O3N0cm9rZS13aWR0aDoxLjA7IiB4MT0iNTE1LjI1IiB4Mj0iNTE1LjI1IiB5MT0iNTExLjgzNTkiIHkyPSI1OTUuODM1OSIvPjxwb2x5Z29uIGZpbGw9IiMxODE4MTgiIHBvaW50cz0iNTExLjI1LDU4NS44MzU5LDUxNS4yNSw1OTUuODM1OSw1MTkuMjUsNTg1LjgzNTksNTE1LjI1LDU4OS44MzU5IiBzdHlsZT0ic3Ryb2tlOiMxODE4MTg7c3Ryb2tlLXdpZHRoOjEuMDsiLz48bGluZSBzdHlsZT0ic3Ryb2tlOiMxODE4MTg7c3Ryb2tlLXdpZHRoOjEuMDsiIHgxPSIxMDQ0LjI1IiB4Mj0iMTA0NC4yNSIgeTE9IjEyNi44NDM4IiB5Mj0iMTU4LjYxNzIiLz48cG9seWdvbiBmaWxsPSIjMTgxODE4IiBwb2ludHM9IjEwNDAuMjUsMTQ4LjYxNzIsMTA0NC4yNSwxNTguNjE3MiwxMDQ4LjI1LDE0OC42MTcyLDEwNDQuMjUsMTUyLjYxNzIiIHN0eWxlPSJzdHJva2U6IzE4MTgxODtzdHJva2Utd2lkdGg6MS4wOyIvPjxsaW5lIHN0eWxlPSJzdHJva2U6IzE4MTgxODtzdHJva2Utd2lkdGg6MS4wOyIgeDE9IjEwNDQuMjUiIHgyPSIxMDQ0LjI1IiB5MT0iNTc1LjgzNTkiIHkyPSI1OTUuODM1OSIvPjxwb2x5Z29uIGZpbGw9IiMxODE4MTgiIHBvaW50cz0iMTA0MC4yNSw1ODUuODM1OSwxMDQ0LjI1LDU5NS44MzU5LDEwNDguMjUsNTg1LjgzNTksMTA0NC4yNSw1ODkuODM1OSIgc3R5bGU9InN0cm9rZTojMTgxODE4O3N0cm9rZS13aWR0aDoxLjA7Ii8+PGxpbmUgc3R5bGU9InN0cm9rZTojMTgxODE4O3N0cm9rZS13aWR0aDoxLjA7IiB4MT0iMTM5NCIgeDI9IjEzOTQiIHkxPSIxMjYuODQzOCIgeTI9IjE1OC42MTcyIi8+PHBvbHlnb24gZmlsbD0iIzE4MTgxOCIgcG9pbnRzPSIxMzkwLDE0OC42MTcyLDEzOTQsMTU4LjYxNzIsMTM5OCwxNDguNjE3MiwxMzk0LDE1Mi42MTcyIiBzdHlsZT0ic3Ryb2tlOiMxODE4MTg7c3Ryb2tlLXdpZHRoOjEuMDsiLz48bGluZSBzdHlsZT0ic3Ryb2tlOiMxODE4MTg7c3Ryb2tlLXdpZHRoOjEuMDsiIHgxPSIxMzk0IiB4Mj0iMTM5NCIgeTE9IjMxMi4xNDg0IiB5Mj0iNTk1LjgzNTkiLz48cG9seWdvbiBmaWxsPSIjMTgxODE4IiBwb2ludHM9IjEzOTAsNTg1LjgzNTksMTM5NCw1OTUuODM1OSwxMzk4LDU4NS44MzU5LDEzOTQsNTg5LjgzNTkiIHN0eWxlPSJzdHJva2U6IzE4MTgxODtzdHJva2Utd2lkdGg6MS4wOyIvPjxsaW5lIHN0eWxlPSJzdHJva2U6IzE4MTgxODtzdHJva2Utd2lkdGg6MS4wOyIgeDE9IjE2MjYuNSIgeDI9IjE2MjYuNSIgeTE9IjEyNi44NDM4IiB5Mj0iMTU4LjYxNzIiLz48cG9seWdvbiBmaWxsPSIjMTgxODE4IiBwb2ludHM9IjE2MjIuNSwxNDguNjE3MiwxNjI2LjUsMTU4LjYxNzIsMTYzMC41LDE0OC42MTcyLDE2MjYuNSwxNTIuNjE3MiIgc3R5bGU9InN0cm9rZTojMTgxODE4O3N0cm9rZS13aWR0aDoxLjA7Ii8+PGxpbmUgc3R5bGU9InN0cm9rZTojMTgxODE4O3N0cm9rZS13aWR0aDoxLjA7IiB4MT0iMTYyNi41IiB4Mj0iMTYyNi41IiB5MT0iMzEyLjE0ODQiIHkyPSI1OTUuODM1OSIvPjxwb2x5Z29uIGZpbGw9IiMxODE4MTgiIHBvaW50cz0iMTYyMi41LDU4NS44MzU5LDE2MjYuNSw1OTUuODM1OSwxNjMwLjUsNTg1LjgzNTksMTYyNi41LDU4OS44MzU5IiBzdHlsZT0ic3Ryb2tlOiMxODE4MTg7c3Ryb2tlLXdpZHRoOjEuMDsiLz48bGluZSBzdHlsZT0ic3Ryb2tlOiMxODE4MTg7c3Ryb2tlLXdpZHRoOjEuMDsiIHgxPSIyMzEuNzUiIHgyPSI0NTUuMjUiIHkxPSIxMTQuODQzOCIgeTI9IjExNC44NDM4Ii8+PHBvbHlnb24gZmlsbD0iIzE4MTgxOCIgcG9pbnRzPSI0NDUuMjUsMTEwLjg0MzgsNDU1LjI1LDExNC44NDM4LDQ0NS4yNSwxMTguODQzOCw0NDkuMjUsMTE0Ljg0MzgiIHN0eWxlPSJzdHJva2U6IzE4MTgxODtzdHJva2Utd2lkdGg6MS4wOyIvPjxsaW5lIHN0eWxlPSJzdHJva2U6IzE4MTgxODtzdHJva2Utd2lkdGg6MS4wOyIgeDE9IjU3NS4yNSIgeDI9Ijk5MC4yNSIgeTE9IjExNC44NDM4IiB5Mj0iMTE0Ljg0MzgiLz48cG9seWdvbiBmaWxsPSIjMTgxODE4IiBwb2ludHM9Ijk4MC4yNSwxMTAuODQzOCw5OTAuMjUsMTE0Ljg0MzgsOTgwLjI1LDExOC44NDM4LDk4NC4yNSwxMTQuODQzOCIgc3R5bGU9InN0cm9rZTojMTgxODE4O3N0cm9rZS13aWR0aDoxLjA7Ii8+PGxpbmUgc3R5bGU9InN0cm9rZTojMTgxODE4O3N0cm9rZS13aWR0aDoxLjA7IiB4MT0iMTA5OC4yNSIgeDI9IjEzMzEiIHkxPSIxMTQuODQzOCIgeTI9IjExNC44NDM4Ii8+PHBvbHlnb24gZmlsbD0iIzE4MTgxOCIgcG9pbnRzPSIxMzIxLDExMC44NDM4LDEzMzEsMTE0Ljg0MzgsMTMyMSwxMTguODQzOCwxMzI1LDExNC44NDM4IiBzdHlsZT0ic3Ryb2tlOiMxODE4MTg7c3Ryb2tlLXdpZHRoOjEuMDsiLz48bGluZSBzdHlsZT0ic3Ryb2tlOiMxODE4MTg7c3Ryb2tlLXdpZHRoOjEuMDsiIHgxPSIxNDU3IiB4Mj0iMTU2My41IiB5MT0iMTE0Ljg0MzgiIHkyPSIxMTQuODQzOCIvPjxwb2x5Z29uIGZpbGw9IiMxODE4MTgiIHBvaW50cz0iMTU1My41LDExMC44NDM4LDE1NjMuNSwxMTQuODQzOCwxNTUzLjUsMTE4Ljg0MzgsMTU1Ny41LDExNC44NDM4IiBzdHlsZT0ic3Ryb2tlOiMxODE4MTg7c3Ryb2tlLXdpZHRoOjEuMDsiLz48bGluZSBzdHlsZT0ic3Ryb2tlOiMxODE4MTg7c3Ryb2tlLXdpZHRoOjEuMDsiIHgxPSI5MjcuNSIgeDI9IjkyNy41IiB5MT0iODIuODQzOCIgeTI9Ijg3Ljg0MzgiLz48bGluZSBzdHlsZT0ic3Ryb2tlOiMxODE4MTg7c3Ryb2tlLXdpZHRoOjEuMDsiIHgxPSI5MjcuNSIgeDI9IjE3MS43NSIgeTE9Ijg3Ljg0MzgiIHkyPSI4Ny44NDM4Ii8+PGxpbmUgc3R5bGU9InN0cm9rZTojMTgxODE4O3N0cm9rZS13aWR0aDoxLjA7IiB4MT0iMTcxLjc1IiB4Mj0iMTcxLjc1IiB5MT0iODcuODQzOCIgeTI9IjEwMi44NDM4Ii8+PHBvbHlnb24gZmlsbD0iIzE4MTgxOCIgcG9pbnRzPSIxNjcuNzUsOTIuODQzOCwxNzEuNzUsMTAyLjg0MzgsMTc1Ljc1LDkyLjg0MzgsMTcxLjc1LDk2Ljg0MzgiIHN0eWxlPSJzdHJva2U6IzE4MTgxODtzdHJva2Utd2lkdGg6MS4wOyIvPjxsaW5lIHN0eWxlPSJzdHJva2U6IzE4MTgxODtzdHJva2Utd2lkdGg6MS4wOyIgeDE9IjE2ODkuNSIgeDI9IjE4MTciIHkxPSIxMTQuODQzOCIgeTI9IjExNC44NDM4Ii8+PGxpbmUgc3R5bGU9InN0cm9rZTojMTgxODE4O3N0cm9rZS13aWR0aDoxLjA7IiB4MT0iMTgxNyIgeDI9IjE4MTciIHkxPSIxMTQuODQzOCIgeTI9IjI3Mi41NzQyIi8+PHBvbHlnb24gZmlsbD0iIzE4MTgxOCIgcG9pbnRzPSIxODEzLDI2Mi41NzQyLDE4MTcsMjcyLjU3NDIsMTgyMSwyNjIuNTc0MiwxODE3LDI2Ni41NzQyIiBzdHlsZT0ic3Ryb2tlOiMxODE4MTg7c3Ryb2tlLXdpZHRoOjEuMDsiLz48bGluZSBzdHlsZT0ic3Ryb2tlOiMxODE4MTg7c3Ryb2tlLXdpZHRoOjEuMDsiIHgxPSIxODE3IiB4Mj0iMTgxNyIgeTE9IjQ0MS4xMDU1IiB5Mj0iNTk1LjgzNTkiLz48cG9seWdvbiBmaWxsPSIjMTgxODE4IiBwb2ludHM9IjE4MTMsNTg1LjgzNTksMTgxNyw1OTUuODM1OSwxODIxLDU4NS44MzU5LDE4MTcsNTg5LjgzNTkiIHN0eWxlPSJzdHJva2U6IzE4MTgxODtzdHJva2Utd2lkdGg6MS4wOyIvPjxsaW5lIHN0eWxlPSJzdHJva2U6IzE4MTgxODtzdHJva2Utd2lkdGg6MS4wOyIgeDE9IjE3MS43NSIgeDI9IjE4MTciIHkxPSI1OTUuODM1OSIgeTI9IjU5NS44MzU5Ii8+PGxpbmUgc3R5bGU9InN0cm9rZTojMTgxODE4O3N0cm9rZS13aWR0aDoxLjA7IiB4MT0iOTI3LjUiIHgyPSI5MjcuNSIgeTE9IjU5NS44MzU5IiB5Mj0iNjE1LjgzNTkiLz48cG9seWdvbiBmaWxsPSIjMTgxODE4IiBwb2ludHM9IjkyMy41LDYwNS44MzU5LDkyNy41LDYxNS44MzU5LDkzMS41LDYwNS44MzU5LDkyNy41LDYwOS44MzU5IiBzdHlsZT0ic3Ryb2tlOiMxODE4MTg7c3Ryb2tlLXdpZHRoOjEuMDsiLz48IS0tU1JDPVtwTEZESmlDbTNCeHRBTnBTTmM0eGVBY1I0MTg3SDJOazhONnhJNmFJdWNKSnRYd2RNU1RNQTBVNDE1Vl9WSi1zQU9lR2dzZkx4dnFaMUVDd1JTNDU4RHRQdkM3dmc5clRMeGc1blVFRzRtSERKMGZqTjRCU2V1TjUyTWJQMFFuc0RjQTBIMVlpdzE2NExVMDVxVDQ1alVQeTdiNDdwOXJRNjBCZkdhMFB4b1BaVTUwMWVZR2I0aE45aDRsdUhVQ0h5QzN6VDh1cUE4QlN0eVFVaVRFS1lSSWl1WUUzWGpLamgzajNSM0x2OHF3MDhOMVBwcFlZbXc3RUFqck1rVmY2U2tzQ21Hd19iWW5CNFh3c1ZvTXdJUS16WllLNjBUeUlLbG01ckhsTFFfaWxydm5IVGpUZ21NU0RqbGtDbW1Dc3RXVHRtN3BOMmdOSDVnekRjamg0M1JMWnpaT1g3OVdDSnh0MUJjUnpyRG9jRkRSeTZwcW5MUXJtdGs0THNvaVkwZkwtNDVBd1AwU2ZWRnJBUHhpWGthay1fQkdWczduY0NORlA4dWpsUmRsYUNQUkN5SFpwS253bWtDeWg2RTBrWFpFWlJicEN6MUljWHIyQ2hJV3dfbXUwXS0tPjwvZz48L3N2Zz4=;" vertex="1" parent="WIyWlLk6GJQsqaUBKTNV-1">
            <mxGeometry x="-530" y="-50" width="1895" height="648" as="geometry" />
          </mxCell>
        </UserObject>
      </root>
    </mxGraphModel>
  </diagram>
</mxfile>
